<?xml version="1.0" standalone="no"?>
<!DOCTYPE svg PUBLIC "-//W3C//DTD SVG 1.1//EN" "http://www.w3.org/Graphics/SVG/1.1/DTD/svg11.dtd" >
<svg>
<metadata>
Created by FontForge 20110222 at Mon May  5 03:34:04 2014
 By Orthosie Webhosting
Copyright (c) 2005 Parachute :, www.parachute.gr.  All rights reserved.
</metadata>
<defs>
<font id="PFSquareSansProExtraBlack" horiz-adv-x="1818" >
  <font-face 
    font-family="PFSquareSansProExtraBlack"
    font-weight="1000"
    font-stretch="normal"
    units-per-em="1000"
    panose-1="2 0 9 6 4 0 0 2 0 4"
    ascent="750"
    descent="-250"
    x-height="497"
    cap-height="665"
    bbox="-247.667 -366.095 1760 952.565"
    underline-thickness="40"
    underline-position="-80"
    unicode-range="U+0020-FB05"
  />
<missing-glyph horiz-adv-x="460" 
d="M0 700h460v-700h-460v700zM323 95l-93 167l-92 -167h185zM323 605h-187l94 -165zM95 199l83 152l-83 153v-305zM365 199v304l-83 -154z" />
    <glyph glyph-name="fj" unicode="fj" horiz-adv-x="633" 
d="M313 733q17 0 39 -1.5t44.5 -4.5t44 -8t37.5 -12q21 -9 22 -20.5t-1 -23.5l-16 -81q-3 -14 -9 -15t-27 1q-23 2 -44.5 3.5t-40.5 1.5q-35 0 -57.5 -11t-22.5 -43v-22h273q16 0 19.5 -9t3.5 -15v-429q0 -82 -23 -134t-62.5 -80.5t-94 -38t-117.5 -7.5q-7 0 -17 4.5
t-12 20.5l-9 102q-2 14 2 19.5t19 9.5q36 7 60 13.5t39 16.5t21 26t6 43v313h-110v-328q0 -6 -3.5 -15t-19.5 -9h-140q-14 0 -19 7t-5 17v43.5v36v37.5v48t0.5 67.5t0.5 95.5h-40q-24 0 -24 25v96q0 24 24 24h40v54q0 42 11.5 75.5t37.5 57t67.5 36.5t102.5 13z" />
    <glyph glyph-name="ffj" unicode="ffj" horiz-adv-x="925" 
d="M605 743q17 0 39 -1.5t44.5 -4.5t44 -8t37.5 -12q21 -9 22 -20.5t-1 -23.5l-16 -81q-3 -14 -9 -15t-27 1q-23 2 -44.5 3.5t-40.5 1.5q-35 0 -57.5 -11t-22.5 -43v-32h273q16 0 19.5 -9t3.5 -15v-429q0 -82 -23 -134t-62.5 -80.5t-94 -38t-117.5 -7.5q-7 0 -17 4.5
t-12 20.5l-9 102q-2 14 2 19.5t19 9.5q36 7 60 13.5t39 16.5t21 26t6 43v313h-110v-328q0 -6 -3.5 -15t-19.5 -9h-140q-14 0 -19 7t-5 17v43.5v36v37.5v48t0.5 67.5t0.5 95.5h-106v-328q0 -6 -3.5 -15t-19.5 -9h-140q-14 0 -19 7t-5 17v43.5v36v37.5v48t0.5 67.5t0.5 95.5
h-40q-24 0 -24 25v96q0 24 24 24h40q0 11 0.5 21t0.5 22q0 84 50.5 133t157.5 49q31 0 69.5 -5t70.5 -16q26 20 65.5 31t96.5 11zM282 497h104v63q-18 2 -31.5 2h-18.5q-31 0 -42.5 -14.5t-11.5 -39.5v-11z" />
    <glyph glyph-name="ff" unicode="ff" horiz-adv-x="756" 
d="M599 743q17 0 37 -1.5t40.5 -4.5t40 -8t35.5 -12q21 -9 22 -20.5t-1 -23.5l-16 -81q-3 -14 -9 -15t-27 1q-29 3 -55 4t-34 1q-31 0 -42.5 -14.5t-11.5 -39.5v-32h102q15 0 19 -6t4 -17v-97q0 -13 -4 -19t-19 -6h-104v-328q0 -6 -3.5 -15t-19.5 -9h-140q-14 0 -19 7t-5 17
l1 328h-110v-328q0 -6 -3.5 -15t-19.5 -9h-140q-14 0 -19 7t-5 17l1 328h-40q-24 0 -24 25v96q0 24 24 24h40v43q0 84 51 133t158 49q32 0 72.5 -5t72.5 -18q53 44 151 44zM336 562q-31 0 -42.5 -14.5t-11.5 -39.5v-11h108v63q-20 1 -34.5 1.5t-19.5 0.5z" />
    <glyph glyph-name="fi" unicode="fi" horiz-adv-x="633" 
d="M313 733q17 0 39 -1.5t44.5 -4.5t44 -8t37.5 -12q21 -9 22 -20.5t-1 -23.5l-16 -81q-3 -14 -9 -15t-27 1q-25 2 -45.5 3.5t-39.5 1.5q-35 0 -57.5 -11t-22.5 -43v-22h273q16 0 19.5 -9t3.5 -15v-449q0 -6 -3.5 -15t-19.5 -9h-141q-14 0 -19 7t-5 17v328h-110v-328
q0 -6 -3.5 -15t-19.5 -9h-140q-14 0 -19 7t-5 17v328h-39q-24 0 -24 25v96q0 24 24 24h40v54q0 42 11.5 75.5t37.5 57t67.5 36.5t102.5 13z" />
    <glyph glyph-name="fl" unicode="fl" horiz-adv-x="633" 
d="M280 352v-328q0 -6 -3.5 -15t-19.5 -9h-140q-14 0 -19 7t-5 17v328h-39q-24 0 -24 25v96q0 24 24 24h40v54q0 42 11.5 75.5t37.5 57t67.5 36.5t102.5 13q17 0 39 -1.5t44.5 -4.5t43.5 -8t37 -12l78 20q15 4 19 -1.5t4 -15.5v-686q0 -6 -3.5 -15t-19.5 -9h-141
q-14 0 -19 7t-5 17v548q-8 1 -14.5 1h-13.5q-35 0 -57.5 -11t-22.5 -43v-22h56q24 0 24 -24v-96q0 -25 -24 -25h-58z" />
    <glyph glyph-name="ffi" unicode="ffi" horiz-adv-x="925" 
d="M605 743q17 0 39 -1.5t44.5 -4.5t44 -8t37.5 -12q21 -9 22 -20.5t-1 -23.5l-16 -81q-3 -14 -9 -15t-27 1q-23 2 -44.5 3.5t-40.5 1.5q-35 0 -57.5 -11t-22.5 -43v-32h273q16 0 19.5 -9t3.5 -15v-449q0 -6 -3.5 -15t-19.5 -9h-140q-14 0 -19 7t-5 17l-1 328h-110v-328
q0 -6 -3.5 -15t-19.5 -9h-140q-14 0 -19 7t-5 17v43.5v36v37.5v48t0.5 67.5t0.5 95.5h-106v-328q0 -6 -3.5 -15t-19.5 -9h-140q-14 0 -19 7t-5 17v43.5v36v37.5v48t0.5 67.5t0.5 95.5h-40q-24 0 -24 25v96q0 24 24 24h40v43q0 84 51 133t158 49q31 0 69.5 -5t70.5 -16
q26 20 65.5 31t96.5 11zM336 562q-31 0 -42.5 -14.5t-11.5 -39.5v-11h104v63q-18 2 -31.5 2h-18.5z" />
    <glyph glyph-name="ffl" unicode="ffl" horiz-adv-x="925" 
d="M572 352v-328q0 -6 -3.5 -15t-19.5 -9h-139q-14 0 -19 7t-5 17v328h-106v-328q0 -6 -3.5 -15t-19.5 -9h-140q-14 0 -19 7t-5 17v43.5v36v37.5v48t0.5 67.5t0.5 95.5h-40q-24 0 -24 25v96q0 24 24 24h40v43q0 84 51 133t158 49q31 0 69.5 -5t70.5 -16q26 20 65.5 31
t96.5 11q17 0 39 -1.5t44.5 -4.5t44 -8.5t37.5 -12.5l77 22q15 5 19 -0.5t4 -12.5v-701q0 -6 -3.5 -15t-19.5 -9h-140q-14 0 -19 7t-5 17l-1 558q-8 0 -14.5 0.5t-13.5 0.5q-35 0 -57.5 -11t-22.5 -43v-32h56q24 0 24 -24v-96q0 -25 -24 -25h-58zM336 562q-31 0 -42.5 -14.5
t-11.5 -39.5v-11h104v63q-18 2 -31.5 2h-18.5z" />
    <glyph glyph-name="ft" unicode="ft" horiz-adv-x="783" 
d="M287 722q19 0 48 -2t58 -10q19 -5 21 -16.5t0 -23.5l-11 -95q-2 -12 -8.5 -14t-27.5 0q-9 1 -16 1h-15q-31 0 -42.5 -14.5t-11.5 -39.5v-11h140v94q0 13 6.5 19t17.5 9l129 34q13 3 21 -2t8 -19v-135h98q15 0 19 -6t4 -17v-97q0 -13 -4 -19t-19 -6h-100v-118
q0 -32 5.5 -48.5t20 -23t39 -5.5t63.5 4q14 1 20 -1t8 -17l13 -88q2 -16 -5 -24.5t-18 -12.5q-22 -9 -46 -14t-46.5 -7.5t-42 -3.5t-32.5 -1q-88 0 -124.5 41.5t-36.5 117.5v201h-140v-328q0 -6 -3.5 -15t-19.5 -9h-140q-14 0 -19 7t-5 17l1 328h-40q-24 0 -24 25v96
q0 24 24 24h40v43q0 42 10.5 75.5t33.5 57t59.5 36.5t89.5 13z" />
    <glyph glyph-name=".notdef" horiz-adv-x="460" 
d="M0 700h460v-700h-460v700zM323 95l-93 167l-92 -167h185zM323 605h-187l94 -165zM95 199l83 152l-83 153v-305zM365 199v304l-83 -154z" />
    <glyph glyph-name=".null" horiz-adv-x="0" 
 />
    <glyph glyph-name="nonmarkingreturn" horiz-adv-x="333" 
 />
    <glyph glyph-name="space" unicode=" " horiz-adv-x="305" 
 />
    <glyph glyph-name="exclam" unicode="!" horiz-adv-x="324" 
d="M238 228q-1 -11 -5.5 -16.5t-16.5 -5.5h-104q-12 0 -16.5 5t-4.5 17l-15 413q-1 13 4 17.5t17 4.5h133q12 0 17 -4.5t5 -17.5zM254 75q0 -16 -3.5 -31t-13.5 -27t-28 -19.5t-47 -7.5q-30 0 -48.5 7.5t-28 20t-12.5 27.5t-3 30q0 18 4 33.5t14.5 27t28.5 18t45 6.5
q28 0 46 -6.5t28.5 -17.5t14 -27t3.5 -34z" />
    <glyph glyph-name="quotedbl" unicode="&#x22;" horiz-adv-x="405" 
d="M345 418q-1 -7 -5.5 -12t-13.5 -5h-82q-17 0 -17 17l-10 226q-1 8 4.5 13.5t14.5 5.5h101q11 0 14.5 -7t3.5 -12zM178 418q0 -7 -4.5 -12t-13.5 -5h-83q-16 0 -16 17l-11 226q0 19 20 19h101q11 0 14.5 -7t3.5 -12z" />
    <glyph glyph-name="numbersign" unicode="#" horiz-adv-x="664" 
d="M333 203h-74l-45 -181q-3 -11 -6.5 -16.5t-15.5 -5.5h-93q-12 0 -18 5t-3 17l45 181h-75q-11 0 -15 4.5t0 17.5l21 77q4 12 10 16.5t19 4.5h71l14 56h-74q-11 0 -15 4.5t0 17.5l20 76q4 12 10 16.5t19 4.5h70l36 143q4 13 7 17.5t15 4.5h98q12 0 16 -4.5t0 -17.5
l-36 -143h74l36 143q4 13 7 17.5t15 4.5h98q12 0 16 -4.5t0 -17.5l-36 -143h73q13 0 16 -4.5t-1 -16.5l-20 -76q-4 -12 -9.5 -17t-18.5 -5h-70l-14 -56h72q13 0 16 -4.5t-1 -16.5l-21 -77q-4 -12 -9.5 -17t-18.5 -5h-69l-45 -181q-3 -11 -6.5 -16.5t-15.5 -5.5h-93
q-12 0 -18 5t-3 17zM290 323h74l14 56h-74z" />
    <glyph glyph-name="dollar" unicode="$" horiz-adv-x="616" 
d="M241 736q0 10 5 17t19 7h94q16 0 19.5 -9t3.5 -15v-85q29 -2 61 -8t61 -17q15 -6 23 -11t11 -11t2.5 -12.5t-1.5 -15.5l-14 -66q-3 -13 -7 -19.5t-10 -8.5t-15 -1.5t-22 1.5q-33 5 -67.5 7.5t-80.5 2.5q-28 0 -46 -7t-18 -28q0 -20 13 -27.5t50 -15.5q42 -10 84.5 -22
t77.5 -34t57 -58.5t22 -94.5q0 -46 -14 -80t-39 -58t-58 -39t-70 -22v-80q0 -6 -3.5 -15t-19.5 -9h-94q-14 0 -19 7t-5 17v74q-32 2 -71.5 8.5t-74.5 20.5q-15 6 -23 11t-11 11t-3 12.5t2 15.5l15 70q5 23 13.5 26t33.5 -1q33 -5 78.5 -9.5t91.5 -4.5q40 0 56 10t16 31
q0 22 -17.5 29.5t-52.5 15.5q-42 10 -84 23t-76.5 35.5t-56 58t-21.5 90.5q0 84 50 133.5t135 63.5v86z" />
    <glyph glyph-name="percent" unicode="%" horiz-adv-x="1020" 
d="M786 -6q-70 0 -110 24.5t-60 60t-25 75.5t-5 72q0 14 2 36t9 46.5t20 49t35.5 44t55 32t78.5 12.5q68 0 108.5 -21.5t62 -54t28 -71.5t6.5 -73q0 -29 -5.5 -68.5t-26.5 -76t-62 -62t-111 -25.5zM786 321q-26 0 -35 -28.5t-9 -72.5q0 -19 2 -37t7 -32.5t13.5 -23
t21.5 -8.5q29 0 39.5 26.5t10.5 74.5q0 49 -9.5 75t-40.5 26zM228 229q-70 0 -110 24.5t-60 60t-25 75.5t-5 72q0 14 2 36t9 46.5t20 49t35.5 44t55 32t78.5 12.5q68 0 108.5 -21.5t62 -54t28 -71.5t6.5 -73q0 -29 -5.5 -68.5t-26.5 -76t-62 -62t-111 -25.5zM228 556
q-26 0 -35 -28.5t-9 -72.5q0 -19 2 -37t7 -32.5t13.5 -23t21.5 -8.5q29 0 39.5 26.5t10.5 74.5q0 49 -9.5 75t-40.5 26zM441 -11q-5 -12 -15 -12h-114q-15 0 -10 15l276 695q3 7 6 10t10 3h114q13 0 8 -15z" />
    <glyph glyph-name="ampersand" unicode="&#x26;" horiz-adv-x="772" 
d="M681 -49q-8 -11 -16.5 -14.5t-28.5 5.5q-15 7 -34 18.5t-38.5 24.5t-38.5 26.5t-34 25.5q-47 -27 -101.5 -38t-117.5 -11q-49 0 -91.5 11.5t-73.5 36t-49 61.5t-18 88q0 63 36 118t102 97q-19 32 -27.5 60.5t-8.5 43.5q0 36 11.5 67.5t35 55t58.5 37t82 13.5
q43 0 77.5 -13t58 -35t36 -51.5t12.5 -62.5q0 -25 -8.5 -49.5t-24 -46t-38 -39t-49.5 -27.5q14 -19 25 -33t22 -26t24 -25t33 -29q26 35 43.5 77t24.5 85q3 13 4 21t3.5 11.5t8.5 4.5t18 1h87q23 0 30 -6.5t6 -35.5q-1 -34 -11 -71.5t-25 -72.5t-33 -66.5t-36 -53.5
q26 -20 51 -37.5t54 -34.5q17 -10 15 -18t-11 -22zM287 126q17 -1 40 3t46 15q-37 38 -67.5 72.5t-47.5 60.5q-47 -36 -47 -78q0 -33 21.5 -53t54.5 -20zM349 514q0 10 -7 17.5t-21 7.5q-13 0 -20.5 -9.5t-7.5 -20.5q0 -7 3.5 -16.5t13.5 -22.5q18 11 28.5 22t10.5 22z" />
    <glyph glyph-name="quotesingle" unicode="'" horiz-adv-x="239" 
d="M178 418q0 -7 -4.5 -12t-13.5 -5h-83q-16 0 -16 17l-11 226q0 19 20 19h101q11 0 14.5 -7t3.5 -12z" />
    <glyph glyph-name="parenleft" unicode="(" horiz-adv-x="363" 
d="M234 302q0 -76 20 -160t64 -162q12 -22 10.5 -30.5t-16.5 -16.5l-76 -44q-17 -10 -26 -9t-23 20q-64 84 -103 189t-39 213t39 213t103 189q14 19 23 20t26 -9l76 -44q15 -8 17 -16.5t-11 -30.5q-46 -78 -65 -161.5t-19 -160.5z" />
    <glyph glyph-name="parenright" unicode=")" horiz-adv-x="363" 
d="M132 302q0 77 -19 160.5t-65 161.5q-13 22 -11 30.5t17 16.5l76 44q17 10 26 9t23 -20q64 -84 103 -189t39 -213t-39 -213t-103 -189q-14 -19 -23 -20t-26 9l-76 44q-15 8 -16.5 16.5t10.5 30.5q44 78 64 162t20 160z" />
    <glyph glyph-name="asterisk" unicode="*" horiz-adv-x="476" 
d="M409 350q-10 -15 -18.5 -16.5t-25.5 6.5l-66 28l-7 -62q-2 -20 -6.5 -24t-24.5 -4h-57q-18 0 -22.5 4t-6.5 24l-8 62l-61 -25q-11 -5 -21.5 -6.5t-18.5 11.5l-29 43q-6 9 -4 16.5t18 19.5l52 43l-52 33q-14 10 -18 18t6 26l20 39q11 19 20 17.5t26 -8.5l64 -24l5 65
q2 18 7.5 23t26.5 5h48q20 0 28 -6.5t9 -23.5l4 -65l70 30q16 8 21.5 7.5t15.5 -16.5l24 -37q16 -23 -1 -33l-66 -48l60 -46q17 -12 17.5 -19.5t-9.5 -22.5z" />
    <glyph glyph-name="plus" unicode="+" horiz-adv-x="616" 
d="M388 391h139q15 0 19 -6t4 -17v-87q0 -13 -4 -19t-19 -6h-139v-145q0 -15 -6 -19t-17 -4h-114q-13 0 -19 4t-6 19v145h-135q-24 0 -24 25v86q0 24 24 24h135v136q0 24 25 24h113q24 0 24 -24v-136z" />
    <glyph glyph-name="comma" unicode="," horiz-adv-x="258" 
d="M222 36q0 -35 -10.5 -67.5t-28 -60.5t-39.5 -50t-44 -35q-15 -8 -25.5 -5.5t-20.5 13.5l-32 33q-8 8 -11.5 13t-3 9.5t5 10.5t13.5 15q18 20 26 39.5t8 35.5q0 31 -22 56q-17 18 -19 29.5t21 28.5l77 59q19 14 31 8.5t27 -19.5q23 -22 35 -54t12 -59z" />
    <glyph glyph-name="hyphen" unicode="-" horiz-adv-x="430" 
d="M384 391q15 0 19 -6t4 -17v-98q0 -13 -4 -19t-19 -6h-331q-24 0 -24 25v97q0 24 24 24h331z" />
    <glyph glyph-name="period" unicode="." horiz-adv-x="252" 
d="M222 79q0 -17 -3.5 -32.5t-14 -28.5t-29.5 -20.5t-49 -7.5q-32 0 -50.5 8t-29 20.5t-13.5 28.5t-3 32q0 18 4.5 34t15 28t29 19t47.5 7q30 0 48.5 -6.5t29 -18.5t14.5 -28t4 -35z" />
    <glyph glyph-name="slash" unicode="/" horiz-adv-x="348" 
d="M174 -43q-2 -8 -9 -13.5t-15 -5.5h-123q-25 0 -20 25q42 176 85 356t85 356q2 7 7.5 12.5t16.5 5.5h121q12 0 16.5 -8t3.5 -20z" />
    <glyph glyph-name="zero" unicode="0" horiz-adv-x="616" 
d="M304 -9q-65 0 -111.5 17t-78 45.5t-50 64.5t-28 75t-12 77.5t-2.5 70.5q0 21 3 54t12.5 70t28 74t50 67t77.5 48.5t111 18.5q64 0 110 -15t78.5 -40t52.5 -58.5t30.5 -70.5t14.5 -75t4 -73q0 -29 -3 -66t-13 -76t-29 -76.5t-51.5 -66.5t-80 -47t-113.5 -18zM304 510
q-25 0 -41 -13t-25.5 -37t-13.5 -56.5t-4 -71.5q0 -34 3.5 -66.5t13 -57.5t26 -40t41.5 -15q54 0 73.5 47t19.5 132q0 86 -18.5 132t-74.5 46z" />
    <glyph glyph-name="one" unicode="1" horiz-adv-x="616" 
d="M120 0q-24 0 -24 25v107q0 24 24 24h100v333h-85q-15 0 -22.5 3.5t-7.5 18.5v60q0 13 4 23t20 18l85 40q20 10 37 11.5t37 1.5h96q27 0 27 -25v-484h108q15 0 19 -6t4 -17v-108q0 -13 -4 -19t-19 -6h-399z" />
    <glyph glyph-name="two" unicode="2" horiz-adv-x="616" 
d="M328 157h205q15 0 19 -6.5t4 -17.5v-108q0 -13 -4 -19t-19 -6h-469q-24 0 -24 25v82q0 10 3 22t15 23l137 128l105 98q20 18 32.5 39.5t12.5 44.5q0 26 -18 36t-55 10q-46 0 -93.5 -4t-80.5 -7q-22 -2 -30.5 1t-11.5 25l-9 68q-1 7 -1 14t3 13.5t11 12.5t22 12
q21 8 49 14t56.5 9.5t53.5 5t39 1.5q141 0 203.5 -52.5t62.5 -146.5q0 -33 -6.5 -59.5t-19.5 -50.5t-32.5 -46.5t-44.5 -47.5q-12 -12 -24.5 -23.5t-26 -23.5t-29.5 -26.5t-37 -32.5z" />
    <glyph glyph-name="three" unicode="3" horiz-adv-x="616" 
d="M566 250q0 -77 -20.5 -127t-59 -79t-92.5 -41t-120 -12q-14 0 -37.5 1.5t-50.5 5t-54.5 9t-48.5 13.5q-32 12 -39 24.5t-3 30.5l13 67q4 20 11.5 25t31.5 2q44 -6 86 -9.5t74 -3.5q25 0 45.5 2t35.5 10t23 23.5t8 43.5q0 20 -10 28.5t-31 12.5l-138 26q-21 4 -28 12
t-7 30v41q0 19 2 27.5t11 16.5l92 76l-1 4h-178q-24 0 -24 24v107q0 25 24 25h434q15 0 19 -6t4 -19l-1 -80q0 -11 -2.5 -23t-18.5 -26l-93 -82l2 -4l39 -10q29 -8 48.5 -23.5t31.5 -37t17 -48t5 -56.5z" />
    <glyph glyph-name="four" unicode="4" horiz-adv-x="616" 
d="M324 425l-97 -132v-6h103v138h-6zM516 24q0 -6 -3.5 -15t-19.5 -9h-142q-14 0 -19 7t-5 17v112l-274 -1q-13 0 -22.5 6t-9.5 23v94q0 7 1.5 15.5t9.5 18.5l273 351q17 20 46 20h142q16 0 19.5 -9t3.5 -15v-347h59q15 0 19 -6t4 -17v-109q0 -13 -4 -19t-19 -6l-59 1v-112z
" />
    <glyph glyph-name="five" unicode="5" horiz-adv-x="616" 
d="M369 236q0 16 -9 25.5t-31 14.5l-222 39q-34 6 -41 22.5t-2 43.5l40 238q4 23 15 34.5t38 11.5h351q24 0 24 -25v-107q0 -24 -24 -24h-237l-10 -59l157 -23q68 -10 108.5 -55t40.5 -122t-21 -127t-59 -79t-92.5 -41t-120.5 -12q-14 0 -37.5 1.5t-50.5 5t-54.5 9
t-48.5 13.5q-32 12 -39 24.5t-3 30.5l13 67q4 20 11.5 25t31.5 2q44 -6 86 -9.5t74 -3.5q25 0 45.5 2t35.5 10t23 24t8 44z" />
    <glyph glyph-name="six" unicode="6" horiz-adv-x="616" 
d="M587 207q0 -61 -25 -102t-65 -66.5t-90.5 -36.5t-100.5 -11q-94 0 -148 25t-81.5 68t-34.5 101.5t-7 126.5q0 38 3.5 79t14 81t29.5 76.5t50.5 64t77.5 43.5t110 16h28.5t48 -2.5t59 -8.5t60.5 -17q28 -11 34.5 -21t1.5 -29l-14 -67q-5 -21 -13 -26.5t-23 -3.5
q-39 5 -86 8t-97 3q-38 0 -58 -19t-25 -61q41 4 70 5.5t61 1.5q108 0 164 -57t56 -171zM394 206q0 38 -12.5 56t-43.5 18q-19 0 -42.5 -1t-66.5 -5q-1 -35 1.5 -58.5t10.5 -40.5q5 -11 19.5 -18.5t49.5 -7.5q17 0 32.5 2.5t27 9t18 17.5t6.5 28z" />
    <glyph glyph-name="seven" unicode="7" horiz-adv-x="616" 
d="M286 -4q-8 -14 -15.5 -19t-26.5 4l-113 49q-19 9 -19.5 16.5t7.5 24.5l218 438h-270q-24 0 -24 24v107q0 25 24 25h477q15 0 19 -6t4 -19l-1 -73q0 -17 -5 -29t-15 -31z" />
    <glyph glyph-name="eight" unicode="8" horiz-adv-x="616" 
d="M303 -9q-60 0 -110.5 11.5t-87 36.5t-57 64.5t-20.5 95.5q0 44 22 84.5t67 68.5q-20 10 -33.5 24t-22 30t-12.5 32.5t-4 31.5q0 51 19 89t53.5 63.5t82.5 38.5t106 13q55 0 102 -11.5t81.5 -35.5t54.5 -62t20 -91q0 -13 -4.5 -30t-13.5 -33.5t-22.5 -31.5t-32.5 -25
q50 -25 71 -67t21 -86q0 -50 -21 -89t-58.5 -66t-88.5 -41t-112 -14zM388 216q0 34 -25.5 50.5t-60.5 22.5q-14 -3 -28.5 -8.5t-26 -14.5t-19 -21.5t-7.5 -28.5q0 -27 22 -44.5t60 -17.5q45 0 65 20t20 42zM306 511q-32 0 -48.5 -13.5t-16.5 -32.5q0 -15 16 -27t51 -20
q35 5 48 19.5t13 27.5q0 23 -18.5 34.5t-44.5 11.5z" />
    <glyph glyph-name="nine" unicode="9" horiz-adv-x="616" 
d="M33 450q0 61 25 103t65 68.5t90.5 38.5t100.5 12q94 0 148 -25t81.5 -68t34.5 -102t7 -126q0 -38 -3.5 -79t-14 -81t-29.5 -76.5t-50.5 -64t-77.5 -43.5t-110 -16h-28.5t-48 2.5t-59 8.5t-60.5 17q-28 11 -34.5 21t-1.5 29l14 67q6 20 13.5 26t22.5 4q39 -5 84.5 -8
t95.5 -3q38 0 59.5 18t26.5 60q-41 -4 -70 -4.5t-61 -0.5q-108 0 -164 54t-56 168zM226 454q0 -38 12.5 -54.5t43.5 -16.5q19 0 42.5 1t66.5 5q0 28 -2 55t-9 41q-5 11 -22 18.5t-48 7.5q-35 0 -59.5 -11.5t-24.5 -45.5z" />
    <glyph glyph-name="colon" unicode=":" horiz-adv-x="252" 
d="M222 79q0 -17 -3.5 -32.5t-14 -28.5t-29.5 -20.5t-49 -7.5q-32 0 -50.5 8t-29 20.5t-13.5 28.5t-3 32q0 18 4.5 34t15 28t29 19t47.5 7q30 0 48.5 -6.5t29 -18.5t14.5 -28t4 -35zM222 372q0 -17 -3.5 -32.5t-14 -28.5t-29.5 -20.5t-49 -7.5q-32 0 -50.5 8t-29 20.5
t-13.5 28.5t-3 32q0 18 4.5 34t15 28t29 19t47.5 7q30 0 48.5 -6.5t29 -18.5t14.5 -28t4 -35z" />
    <glyph glyph-name="semicolon" unicode=";" horiz-adv-x="252" 
d="M222 372q0 -17 -3.5 -32.5t-14 -28.5t-29.5 -20.5t-49 -7.5q-32 0 -50.5 8t-29 20.5t-13.5 28.5t-3 32q0 18 4.5 34t15 28t29 19t47.5 7q30 0 48.5 -6.5t29 -18.5t14.5 -28t4 -35zM224 36q0 -35 -10.5 -67.5t-28 -60.5t-39.5 -50t-44 -35q-15 -8 -25.5 -5.5t-20.5 13.5
l-32 33q-8 8 -11.5 13t-3 9.5t5 10.5t13.5 15q18 20 26 39.5t8 35.5q0 31 -22 56q-17 18 -19 29.5t21 28.5l77 59q19 14 31 8.5t27 -19.5q23 -22 35 -54t12 -59z" />
    <glyph glyph-name="less" unicode="&#x3c;" horiz-adv-x="616" 
d="M523 207q8 -3 12.5 -8.5t4.5 -16.5v-123q0 -9 -6.5 -11.5t-14.5 1.5l-423 208q-6 3 -11.5 8t-5.5 18v88q0 11 4.5 16t11.5 9l425 211q11 5 15 -0.5t4 -11.5v-118q0 -12 -5 -17t-12 -9l-237 -121v-5l238 -118v0z" />
    <glyph glyph-name="equal" unicode="=" horiz-adv-x="616" 
d="M527 488q15 0 19 -6t4 -17v-88q0 -13 -4 -19t-19 -6h-436q-24 0 -24 25v87q0 24 24 24h436zM527 293q15 0 19 -6t4 -17v-88q0 -13 -4 -19t-19 -6h-436q-24 0 -24 25v87q0 24 24 24h436z" />
    <glyph glyph-name="greater" unicode="&#x3e;" horiz-adv-x="616" 
d="M335 325v5l-237 121q-7 4 -12 9t-5 17v118q0 6 4 11.5t15 0.5l425 -211q7 -4 11.5 -9t4.5 -16v-88q0 -13 -5.5 -18t-11.5 -8l-423 -208q-8 -4 -14.5 -1.5t-6.5 11.5v123q0 11 4.5 16.5t12.5 8.5z" />
    <glyph glyph-name="question" unicode="?" horiz-adv-x="475" 
d="M435 505q0 -28 -8.5 -50t-22 -38.5t-29 -29.5t-29.5 -23q-19 -14 -32 -26.5t-21.5 -26t-12.5 -29t-4 -36.5v-29q0 -10 -3.5 -17.5t-15.5 -7.5h-127q-11 0 -17 4.5t-8 18.5t-2 22.5v19.5q0 39 6 66.5t19 49t32.5 40.5t45.5 41q25 19 25 39q0 17 -14.5 23.5t-48.5 6.5
q-21 0 -45.5 -1.5t-45.5 -4.5q-23 -3 -28 0t-7 19l-6 72q-2 18 1 24t20 14q20 9 41 14t40.5 7.5t36 3.5t27.5 1q112 0 172.5 -42.5t60.5 -124.5zM280 75q0 -16 -3.5 -31t-13.5 -27t-28 -19.5t-47 -7.5q-30 0 -48.5 7.5t-28 20t-12.5 27.5t-3 30q0 18 4 33.5t14.5 27t28.5 18
t45 6.5q28 0 46 -6.5t28.5 -17.5t14 -27t3.5 -34z" />
    <glyph glyph-name="at" unicode="@" horiz-adv-x="947" 
d="M487 741q103 0 177 -29.5t122 -79.5t70.5 -116t22.5 -140q0 -59 -17.5 -102t-46 -71.5t-65.5 -42.5t-77 -14q-42 0 -78 14t-53 41q-24 -17 -55.5 -28t-63.5 -11q-71 0 -101.5 30.5t-30.5 97.5q0 76 45.5 107.5t125.5 31.5h52v6q0 17 -15.5 21.5t-37.5 4.5q-7 0 -20 -1
t-28 -2.5t-29.5 -3t-23.5 -2.5q-20 -2 -26 0.5t-9 19.5l-7 41q-3 20 7.5 28.5t24.5 13.5q25 8 59.5 14t69.5 6q52 0 85 -10t51.5 -30t25 -49.5t6.5 -67.5v-122q0 -3 0.5 -8t4 -10t10.5 -9t20 -4q25 0 45.5 25t20.5 81q0 51 -15.5 97t-47 80t-79 54t-112.5 20
q-72 0 -128 -20.5t-94 -55.5t-57.5 -82.5t-19.5 -101.5q0 -56 18 -103.5t52.5 -82t84.5 -54t115 -19.5q6 0 18.5 0.5t28.5 2t34.5 4t35.5 5.5q14 3 22 3.5t12.5 -1.5t7 -6.5t4.5 -13.5l14 -52q5 -19 -4 -28t-20 -14q-17 -7 -37.5 -12t-42 -8t-41.5 -4t-34 -1
q-104 0 -179.5 28.5t-124 79.5t-71.5 121t-23 153q0 82 31.5 152t87.5 121t133.5 79.5t169.5 28.5zM419 290q0 -7 4.5 -14.5t17.5 -7.5q14 0 31 5.5t41 19.5l-1 40h-55q-38 0 -38 -43z" />
    <glyph glyph-name="A" unicode="A" horiz-adv-x="650" 
d="M204 33q-5 -19 -15 -26t-27 -7h-138q-14 0 -18.5 5t1.5 25l186 601q5 17 14 26t35 9h157q26 0 34 -9t14 -27l197 -602q9 -28 -13 -28h-153q-20 0 -28 9.5t-13 29.5l-27 98h-178zM349 367l-25 104h-6l-47 -188h99z" />
    <glyph glyph-name="B" unicode="B" horiz-adv-x="662" 
d="M607 204q0 -50 -18.5 -88t-49 -63.5t-70 -39t-82.5 -13.5h-298q-14 0 -19 7t-5 17v617q0 10 5 17t19 7l286 1q106 0 160.5 -50.5t54.5 -141.5q0 -10 -2.5 -25.5t-10 -33t-20 -33.5t-33.5 -27v-5q29 -12 45.5 -31t25 -40t10.5 -41t2 -34zM406 213q0 23 -13 38.5t-42 15.5
h-89v-106h89q31 0 43 14.5t12 37.5zM390 461q0 19 -11 31t-37 12h-80v-83h80q26 0 37 11t11 29z" />
    <glyph glyph-name="C" unicode="C" horiz-adv-x="619" 
d="M55 332q0 59 12 120t45.5 110t93.5 80t155 31q55 0 104 -8.5t88 -25.5q17 -8 27.5 -18.5t5.5 -35.5l-15 -71q-4 -19 -11.5 -22.5t-30.5 -1.5q-45 4 -82.5 6.5t-63.5 2.5q-35 0 -58 -12.5t-36.5 -34t-19 -51.5t-5.5 -65q0 -46 5.5 -79t19 -54t36 -31t57.5 -10
q19 0 35.5 0.5t33 1.5t36 2.5t45.5 4.5q23 2 30 -1t12 -23l17 -65q7 -24 -4 -36t-28 -20q-39 -17 -90.5 -26.5t-106.5 -9.5q-64 0 -111 14t-81.5 38.5t-56.5 57t-35 70.5t-18 79.5t-5 82.5z" />
    <glyph glyph-name="D" unicode="D" horiz-adv-x="680" 
d="M89 0q-14 0 -19 7t-5 17v617q0 10 5 17t19 7h230q90 0 149.5 -27.5t94 -73t48.5 -105.5t14 -125t-13.5 -125.5t-48 -107t-94 -74t-150.5 -27.5h-230zM422 327q0 39 -5 71.5t-18.5 56t-36 36.5t-58.5 13h-44v-343h37q67 0 96 43.5t29 122.5z" />
    <glyph glyph-name="E" unicode="E" horiz-adv-x="582" 
d="M65 641q0 10 5 17t19 7h420q11 0 17.5 -6.5t6.5 -17.5v-115q0 -9 -5 -15.5t-19 -6.5h-248v-80h214q11 0 17.5 -6.5t6.5 -17.5v-115q0 -9 -5 -15.5t-19 -6.5h-214v-102h252q11 0 17.5 -6.5t6.5 -17.5v-115q0 -9 -5 -15.5t-19 -6.5h-424q-14 0 -19 7t-5 17v617z" />
    <glyph glyph-name="F" unicode="F" horiz-adv-x="546" 
d="M63 641q0 10 5 17t19 7h412q11 0 17.5 -6.5t6.5 -17.5v-115q0 -9 -5 -15.5t-19 -6.5h-239v-80h201q11 0 17.5 -6.5t6.5 -17.5v-115q0 -9 -5 -15.5t-19 -6.5h-201v-239q0 -6 -3.5 -15t-19.5 -9h-149q-14 0 -19 7t-5 17z" />
    <glyph glyph-name="G" unicode="G" horiz-adv-x="664" 
d="M264 336q0 -39 3.5 -71.5t15.5 -56t33.5 -36t57.5 -12.5q14 0 25 0.5t23 2.5v81h-58q-16 0 -20 6.5t-4 15.5v105q0 11 4 17.5t20 6.5h221q11 0 17.5 -6.5t6.5 -17.5v-46.5v-36.5v-34v-39.5t-0.5 -53t-0.5 -73.5q0 -18 -4.5 -35t-27.5 -27q-26 -10 -55.5 -17t-59.5 -11
t-58.5 -6t-51.5 -2q-93 0 -151 29.5t-90.5 77.5t-43.5 109.5t-11 125.5q0 59 12 120t45.5 110t93.5 80t155 31q55 0 104 -8.5t88 -25.5q17 -8 27.5 -18.5t5.5 -35.5l-16 -73q-4 -19 -11.5 -22t-29.5 0q-45 5 -80.5 7.5t-61.5 2.5q-36 0 -59.5 -12.5t-38 -34.5t-20 -52
t-5.5 -65z" />
    <glyph glyph-name="H" unicode="H" horiz-adv-x="671" 
d="M410 641q0 10 5 17t19 7h149q16 0 19.5 -9t3.5 -15v-617q0 -6 -3.5 -15t-19.5 -9h-149q-14 0 -19 7t-5 17v237h-149v-237q0 -6 -3.5 -15t-19.5 -9h-149q-14 0 -19 7t-5 17v617q0 10 5 17t19 7h149q16 0 19.5 -9t3.5 -15v-218h149v218z" />
    <glyph glyph-name="I" unicode="I" horiz-adv-x="326" 
d="M65 641q0 10 5 17t19 7h149q16 0 19.5 -9t3.5 -15v-617q0 -6 -3.5 -15t-19.5 -9h-149q-14 0 -19 7t-5 17v617z" />
    <glyph glyph-name="J" unicode="J" horiz-adv-x="498" 
d="M227 641q0 10 5 17t19 7h149q16 0 19.5 -9t3.5 -15v-119.5v-85.5v-64v-55t-0.5 -58t-0.5 -74q0 -92 -57 -143t-175 -51q-11 0 -28 1t-36.5 3.5t-39.5 6t-36 9.5q-16 5 -25.5 9.5t-14 10t-5 13.5t2.5 20l19 82q5 19 9.5 21.5t20.5 0.5q27 -4 50.5 -5.5t45.5 -1.5
q24 0 39 5t23 14t10.5 21t2.5 26z" />
    <glyph glyph-name="K" unicode="K" horiz-adv-x="650" 
d="M256 457l68 91l75 94q10 11 22.5 17t32.5 6h160q20 0 23.5 -9.5t-8.5 -23.5l-205 -247l215 -348q13 -21 5.5 -29t-19.5 -8h-159q-23 0 -34.5 9t-19.5 22l-116 200l-43 -52v-155q0 -6 -3.5 -15t-19.5 -9h-149q-14 0 -19 7t-5 17v617q0 10 5 17t19 7h149q16 0 19.5 -9
t3.5 -15v-184h3z" />
    <glyph glyph-name="L" unicode="L" horiz-adv-x="544" 
d="M261 161h255q8 0 13 -4t5 -13v-122q0 -9 -5 -15.5t-19 -6.5h-421q-14 0 -19 7t-5 17v617q0 10 5 17t19 7h148q14 0 19 -6.5t5 -17.5v-480z" />
    <glyph glyph-name="M" unicode="M" horiz-adv-x="799" 
d="M405 330l87 179l66 128q8 14 17.5 21t34.5 7h101q16 0 19.5 -9t3.5 -15v-617q0 -6 -3.5 -15t-19.5 -9h-143q-14 0 -19 7t-5 17v229l-3 1l-35 -78l-25 -51q-8 -14 -18.5 -23.5t-33.5 -9.5h-59q-21 0 -31.5 8.5t-18.5 22.5l-26 52l-37 81l-2 -1v-231q0 -6 -3.5 -15
t-19.5 -9h-143q-14 0 -19 7t-5 17v617q0 10 5 17t19 7h105q26 0 36 -6t18 -21l65 -129l86 -179h6z" />
    <glyph glyph-name="N" unicode="N" horiz-adv-x="688" 
d="M348 169l-90 134h-3v-279q0 -6 -3.5 -15t-19.5 -9h-143q-14 0 -19 7t-5 17v617q0 10 5 17t19 7h102q23 0 31.5 -6t16.5 -18l109 -162l81 -122l4 1v283q0 6 3.5 15t19.5 9h143q14 0 19 -7t5 -17v-617q0 -10 -5 -17t-19 -7h-101q-20 0 -31.5 7.5t-20.5 20.5z" />
    <glyph glyph-name="O" unicode="O" horiz-adv-x="712" 
d="M657 341q0 -37 -3.5 -77.5t-15 -79t-32 -74t-54.5 -62t-82.5 -42t-116.5 -15.5t-116.5 15.5t-81.5 42.5t-53 62t-30.5 74t-13.5 79t-3 77q0 29 3.5 64.5t14.5 72.5t31 72t53.5 62.5t81 44t114.5 16.5q98 0 157.5 -30t92 -77.5t43.5 -106.5t11 -118zM454 330q0 48 -5 81.5
t-16.5 54.5t-30.5 30t-47 9q-51 0 -71.5 -40t-20.5 -135q0 -92 20 -131.5t72 -39.5q54 0 76.5 40t22.5 131z" />
    <glyph glyph-name="P" unicode="P" horiz-adv-x="590" 
d="M261 24q0 -6 -3.5 -15t-19.5 -9h-149q-14 0 -19 7t-5 17v617q0 10 5 17t19 7h250q48 0 91 -13t75.5 -39.5t51 -66.5t18.5 -94q0 -35 -9.5 -73.5t-35 -70.5t-72 -53.5t-119.5 -21.5h-78v-209zM373 447q0 29 -17.5 43t-46.5 14h-48v-115h48q11 0 22.5 2.5t20.5 9t15 17.5
t6 29z" />
    <glyph glyph-name="Q" unicode="Q" horiz-adv-x="715" 
d="M657 341q0 -33 -3 -68t-11 -69.5t-22.5 -66.5t-38.5 -59l89 -27q20 -6 22.5 -14t-5.5 -26l-43 -107q-12 -31 -49 -15l-231 103q-3 0 -6 -0.5t-6 -0.5q-68 0 -116.5 15.5t-81.5 42.5t-53 62t-30.5 74t-13.5 79t-3 77q0 29 3.5 64.5t14.5 72.5t31 72t53.5 62.5t81 44
t114.5 16.5q98 0 157.5 -30t92 -77.5t43.5 -106.5t11 -118zM454 330q0 48 -5 81.5t-16.5 54.5t-30.5 30t-47 9q-51 0 -71.5 -40t-20.5 -135q0 -92 20 -131.5t72 -39.5q54 0 76.5 40t22.5 131z" />
    <glyph glyph-name="R" unicode="R" horiz-adv-x="634" 
d="M600 29q7 -14 2.5 -21.5t-17.5 -7.5h-153q-18 0 -29 5.5t-18 20.5l-89 215h-35v-217q0 -6 -3.5 -15t-19.5 -9h-149q-14 0 -19 7t-5 17v617q0 10 5 17t19 7h265q42 0 83 -12t73.5 -37.5t53 -65t20.5 -94.5q0 -24 -5 -49t-16.5 -49t-31 -45t-47.5 -36zM382 452q0 26 -16 39
t-43 13h-62v-107h60q10 0 20.5 2t19.5 8t15 17t6 28z" />
    <glyph glyph-name="S" unicode="S" horiz-adv-x="607" 
d="M284 -9q-14 0 -37 1t-50 4.5t-56.5 9.5t-56.5 17q-15 6 -23 11.5t-11 11.5t-3 13t2 16l15 72q3 12 6 18.5t8 8.5t13 1.5t21 -2.5q34 -5 80.5 -9.5t93.5 -4.5q40 0 56.5 10t16.5 33q0 22 -18 29.5t-53 16.5q-43 10 -86 24t-78 37t-57 59.5t-22 93.5q0 51 18.5 90t51.5 66
t80 40.5t104 13.5q14 0 36.5 -1t49.5 -4t55.5 -9t55.5 -16q15 -6 23 -11.5t11 -11.5t2.5 -13t-1.5 -16l-17 -73q-3 -13 -7 -19t-10 -7.5t-15 0t-22 2.5q-17 2 -32.5 4t-32.5 3.5t-36 2t-42 0.5q-28 0 -46.5 -7t-18.5 -30q0 -20 13.5 -27.5t50.5 -16.5q42 -10 86 -22.5
t79.5 -35.5t58 -60.5t22.5 -97.5q0 -62 -24 -103t-63 -66t-89 -35.5t-102 -10.5z" />
    <glyph glyph-name="T" unicode="T" horiz-adv-x="539" 
d="M529 526q0 -9 -5 -15.5t-19 -6.5h-138v-480q0 -6 -3.5 -15t-19.5 -9h-149q-14 0 -19 7t-5 17v480h-137q-16 0 -20 6.5t-4 15.5v115q0 11 4 17.5t20 6.5h471q11 0 17.5 -6.5t6.5 -17.5v-115v0z" />
    <glyph glyph-name="U" unicode="U" horiz-adv-x="678" 
d="M338 158q80 0 80 99l-1 384q0 10 5 17t19 7h148q16 0 19.5 -9t3.5 -15v-390q0 -29 -3.5 -58.5t-16.5 -61.5q-16 -38 -43 -64.5t-61 -43.5t-72.5 -25t-77.5 -8q-72 0 -124 21t-85 57q-32 35 -47.5 81.5t-15.5 101.5v390q0 10 5 17t19 7h148q16 0 19.5 -9t3.5 -15v-384
q0 -51 19.5 -75t57.5 -24z" />
    <glyph glyph-name="V" unicode="V" horiz-adv-x="673" 
d="M276 431l59 -207h6l56 209l53 194q5 20 16 29.5t31 9.5h147q19 0 18.5 -9.5t-3.5 -19.5l-201 -601q-5 -15 -14.5 -25.5t-38.5 -10.5h-140q-26 0 -37.5 9t-16.5 26l-198 601q-5 14 -2 22t22 8h132q26 0 36.5 -7t15.5 -26z" />
    <glyph glyph-name="W" unicode="W" horiz-adv-x="906" 
d="M453 209l-33 -100l-26 -73q-5 -15 -14.5 -25.5t-38.5 -10.5h-110q-26 0 -37.5 9t-16.5 26l-164 601q-5 14 -1 22t21 8h142q20 0 30 -7t15 -26l42 -196l39 -178h6l32 114l31 106l-51 158q-3 10 0 19.5t15 9.5h130q20 0 31 -6.5t16 -26.5l55 -224l35 -150h6l31 169l40 205
q4 19 15.5 26t33.5 7h135q17 0 21 -8t-1 -22l-151 -601q-5 -17 -16.5 -26t-37.5 -9h-110q-29 0 -38.5 10.5t-14.5 25.5l-23 72l-32 101h-6z" />
    <glyph glyph-name="X" unicode="X" horiz-adv-x="620" 
d="M414 339l178 -307q3 -5 4.5 -10.5t0.5 -10t-5.5 -8t-14.5 -3.5h-156q-14 0 -23.5 4.5t-17.5 20.5l-31 68l-44 94l-44 -98l-27 -61q-8 -16 -18 -22t-27 -6h-157q-17 0 -18.5 10t6.5 24l177 305l-167 293q-8 13 -4.5 23t20.5 10h154q18 0 24.5 -4.5t14.5 -20.5l31 -68
l36 -79l38 85l27 60q8 15 15 21t22 6h160q13 0 18.5 -3t7 -7.5t0 -10t-4.5 -9.5z" />
    <glyph glyph-name="Y" unicode="Y" horiz-adv-x="685" 
d="M234 220l-222 416q-7 12 -4 21t17 9h147q20 0 29 -5.5t18 -23.5l55 -111l61 -127h6l62 127l51 101q10 18 18.5 28.5t28.5 10.5h152q14 0 16.5 -8t-2.5 -17l-237 -421v-196q0 -6 -3.5 -15t-19.5 -9h-149q-14 0 -19 7t-5 17v196z" />
    <glyph glyph-name="Z" unicode="Z" horiz-adv-x="579" 
d="M260 161h250q16 0 20 -6.5t4 -15.5v-115q0 -11 -4 -17.5t-20 -6.5h-441q-11 0 -17.5 6.5t-6.5 17.5v101q0 9 2.5 20.5t12.5 24.5l253 334h-224q-16 0 -20 6.5t-4 15.5v115q0 11 4 17.5t20 6.5h420q11 0 17.5 -6.5t6.5 -17.5l-1 -87q0 -20 -4 -33t-13 -25z" />
    <glyph glyph-name="bracketleft" unicode="[" horiz-adv-x="313" 
d="M207 53h51q11 0 17.5 -6.5t6.5 -17.5v-100q0 -9 -5 -15.5t-19 -6.5h-201q-14 0 -19 7t-5 17v740q0 10 5 17t19 7h200q11 0 17.5 -6.5t6.5 -17.5v-101q0 -9 -5 -15.5t-19 -6.5h-50v-495z" />
    <glyph glyph-name="backslash" unicode="\" horiz-adv-x="348" 
d="M8 665q-1 12 3.5 20t16.5 8h121q11 0 16.5 -5.5t7.5 -12.5q42 -176 85 -356t85 -356q5 -25 -20 -25h-123q-8 0 -15 5.5t-9 13.5z" />
    <glyph glyph-name="bracketright" unicode="]" horiz-adv-x="313" 
d="M109 548h-50q-14 0 -19 6.5t-5 15.5v101q0 11 6.5 17.5t17.5 6.5h200q14 0 19 -7t5 -17v-740q0 -10 -5 -17t-19 -7h-201q-14 0 -19 6.5t-5 15.5v100q0 11 6.5 17.5t17.5 6.5h51v495z" />
    <glyph glyph-name="asciicircum" unicode="^" horiz-adv-x="616" 
d="M307 520l-187 -205q-11 -10 -18 -10.5t-18 8.5l-46 36q-11 9 -11 15t10 19l181 261q9 11 17 16t30 5l100 -2q12 0 19 -1t11.5 -3.5t7 -6t6.5 -8.5l169 -261q10 -13 10 -19t-11 -15l-48 -36q-11 -9 -18 -8.5t-18 10.5z" />
    <glyph glyph-name="underscore" unicode="_" horiz-adv-x="500" 
d="M499 -31q15 0 19 -6t4 -17v-68q0 -13 -4 -19t-19 -6h-497q-24 0 -24 25v67q0 24 24 24h497z" />
    <glyph glyph-name="grave" unicode="`" horiz-adv-x="554" 
d="M234 795q6 5 15.5 5t19.5 -12l129 -167q9 -11 6.5 -17.5t-9.5 -11.5l-54 -48q-8 -8 -16 -5t-15 10l-157 141q-20 20 1 37z" />
    <glyph glyph-name="a" unicode="a" horiz-adv-x="600" 
d="M332 195h-65q-19 0 -30 -9t-11 -32q0 -15 6.5 -21t23.5 -6t38.5 7.5t37.5 16.5v44zM354 63q-20 -22 -44.5 -36t-49 -21.5t-46 -10.5t-35.5 -3q-47 0 -75 13.5t-43 35.5t-20 49t-5 53q-1 48 14 80t41 51t62 27t78 8h105v8q0 10 -2.5 17.5t-10 13t-22.5 8t-40 2.5
q-9 0 -24.5 -1t-33.5 -2t-36 -3t-32 -3q-13 -2 -21 -2.5t-13 1.5t-7.5 7t-4.5 14l-14 64q-3 15 3.5 25.5t35.5 21.5q18 7 41.5 12t47.5 8t47 4.5t40 1.5q75 0 120 -13t69.5 -37.5t32.5 -61t8 -83.5v-128q0 -32 7.5 -39.5t30.5 -10.5q14 -2 18 -5.5t4 -14.5v-82q0 -13 -9 -19
t-24 -10q-18 -5 -36 -6.5t-38 -1.5q-19 0 -37.5 2.5t-34 10t-27.5 20.5t-18 35z" />
    <glyph glyph-name="b" unicode="b" horiz-adv-x="570" 
d="M231 495q46 11 82 11q70 0 112.5 -19t66 -53t31 -79.5t7.5 -99.5q0 -58 -9 -106.5t-35.5 -83.5t-73.5 -54.5t-123 -19.5q-25 0 -54 2t-57.5 6t-55 10t-46.5 15t-26 21.5t-6 32.5v605q0 10 5 17t19 7h141q16 0 19.5 -9t3.5 -15zM337 247q0 31 -4 51t-12 30.5t-19.5 14.5
t-26.5 4q-9 0 -18 -1t-26 -5v-186q12 -2 21.5 -2.5t16.5 -0.5q13 0 25.5 3t22 13t15 28.5t5.5 50.5z" />
    <glyph glyph-name="c" unicode="c" horiz-adv-x="502" 
d="M469 70q5 -23 0.5 -34t-33.5 -22q-15 -5 -34.5 -9.5t-40 -7.5t-41 -4.5t-38.5 -1.5q-79 0 -127 22.5t-73.5 59t-33.5 83t-8 94.5q0 45 9 90.5t35 82t73.5 60t124.5 23.5q45 0 86 -6t73 -20q16 -7 23 -16.5t3 -28.5l-14 -77q-2 -10 -4 -15t-6.5 -6.5t-12 -1t-20.5 1.5
q-30 3 -52 4.5t-44 1.5q-43 0 -63.5 -23t-20.5 -67q0 -56 17.5 -78t62.5 -22q20 0 50 2t63 6q19 2 24 0t9 -21z" />
    <glyph glyph-name="d" unicode="d" horiz-adv-x="572" 
d="M527 24q0 -6 -3.5 -15t-19.5 -9h-142q-14 0 -18 6.5t-4 16.5v20l-2 1q-38 -29 -70 -40.5t-60 -11.5q-53 0 -86 20t-51 54t-24.5 79t-6.5 96q0 58 7 107.5t28.5 85t62 55.5t107.5 20q17 0 45 -3t50 -8v185q0 10 5 17t19 7h140q16 0 19.5 -9t3.5 -15v-659zM230 250
q0 -27 2.5 -44.5t8.5 -27t14.5 -13t20.5 -3.5q17 0 33.5 6t30.5 12v163q-20 5 -30 5.5t-19 0.5q-16 0 -27.5 -3.5t-19 -14.5t-11 -30.5t-3.5 -50.5z" />
    <glyph glyph-name="e" unicode="e" horiz-adv-x="553" 
d="M231 207q2 -21 10 -33.5t21 -19t30 -8t37 -1.5t47.5 2t60.5 7q24 3 29.5 -0.5t9.5 -25.5l10 -59q5 -23 0.5 -34t-33.5 -22q-15 -5 -35.5 -9t-42.5 -7t-43.5 -4.5t-39.5 -1.5q-79 0 -128 20.5t-76.5 55t-37.5 80.5t-10 96q0 36 6.5 81.5t31 86t72.5 68t131 27.5
q75 0 121.5 -21t72 -54.5t34.5 -74.5t9 -81q0 -34 -13 -51t-47 -17h-227zM281 367q-19 0 -32 -14t-15 -43h91q0 29 -12 43t-32 14z" />
    <glyph glyph-name="f" unicode="f" horiz-adv-x="460" 
d="M280 24q0 -6 -3.5 -15t-19.5 -9h-140q-14 0 -19 7t-5 17l1 328h-40q-24 0 -24 25v96q0 24 24 24h40v43q0 84 51 133t158 49q17 0 37 -1.5t40.5 -4.5t40 -8t35.5 -12q21 -9 22 -20.5t-1 -23.5l-16 -81q-3 -14 -9 -15t-27 1q-29 3 -55 4t-34 1q-31 0 -42.5 -14.5
t-11.5 -39.5v-11h102q15 0 19 -6t4 -17v-97q0 -13 -4 -19t-19 -6h-104v-328z" />
    <glyph glyph-name="g" unicode="g" horiz-adv-x="570" 
d="M292 507q51 0 106 -7.5t95 -24.5q20 -9 26 -21.5t6 -32.5v-395q0 -51 -6.5 -95.5t-32.5 -78t-77 -52.5t-139 -19q-44 0 -86 6.5t-71 17.5t-35.5 22t-3.5 26l15 71q5 20 11.5 22.5t26.5 -1.5q38 -6 72.5 -8.5t60.5 -2.5q25 0 40.5 4t24 12t11.5 20t3 28v17
q-46 -11 -82 -11q-66 0 -108 18.5t-66.5 51.5t-33.5 77.5t-9 96.5q0 54 11 101.5t39 82.5t77 55t125 20zM233 257q0 -30 4 -48.5t12 -28t19.5 -13t26.5 -3.5q9 0 18 1t26 5v173q-12 2 -21.5 2.5t-16.5 0.5q-14 0 -26 -2.5t-21.5 -12t-15 -27t-5.5 -47.5z" />
    <glyph glyph-name="h" unicode="h" horiz-adv-x="580" 
d="M538 24q0 -6 -3.5 -15t-19.5 -9h-141q-14 0 -19 7t-5 17v254q0 39 -15 49.5t-36 10.5q-17 0 -34.5 -5.5t-31.5 -10.5v-298q0 -6 -3.5 -15t-19.5 -9h-141q-14 0 -19 7t-5 17v659q0 10 5 17t19 7h142q16 0 19.5 -9t3.5 -15v-213q33 18 68.5 27t66.5 9q60 0 93.5 -19.5
t50.5 -49.5t21 -65.5t4 -68.5v-279z" />
    <glyph glyph-name="i" unicode="i" horiz-adv-x="302" 
d="M247 627q0 -17 -3.5 -32.5t-14 -28.5t-29.5 -20.5t-49 -7.5q-32 0 -50.5 8t-29 20.5t-13.5 28.5t-3 32q0 18 4.5 34t15 28t29 19t47.5 7q30 0 48.5 -6.5t29 -18.5t14.5 -28t4 -35zM243 24q0 -6 -3.5 -15t-19.5 -9h-141q-14 0 -19 7t-5 17v449q0 10 5 17t19 7h141
q16 0 19.5 -9t3.5 -15v-449z" />
    <glyph glyph-name="j" unicode="j" horiz-adv-x="316" 
d="M258 44q0 -82 -23 -134t-62.5 -80.5t-94 -38t-117.5 -7.5q-7 0 -17 4.5t-12 20.5l-9 102q-2 18 1 21.5t20 7.5q36 8 60 14.5t39 16.5t21 25.5t6 42.5v434q0 10 5 17t19 7h141q16 0 19.5 -9t3.5 -15v-429zM261 627q0 -17 -3.5 -32.5t-14 -28.5t-29.5 -20.5t-49 -7.5
q-32 0 -50.5 8t-29 20.5t-13.5 28.5t-3 32q0 18 4.5 34t15 28t29 19t47.5 7q30 0 48.5 -6.5t29 -18.5t14.5 -28t4 -35z" />
    <glyph glyph-name="k" unicode="k" horiz-adv-x="569" 
d="M235 365l50 62l37 44q11 12 21.5 19t36.5 7h144q21 0 23.5 -9t-10.5 -22l-146 -166l170 -268q10 -15 4.5 -23.5t-23.5 -8.5h-136q-29 0 -41 8t-19 20l-79 132l-35 -42v-94q0 -6 -3.5 -15t-19.5 -9h-140q-14 0 -19 7t-5 17v659q0 10 5 17t19 7h140q16 0 19.5 -9t3.5 -15
v-317z" />
    <glyph glyph-name="l" unicode="l" horiz-adv-x="329" 
d="M243 176q0 -19 9.5 -23t29.5 -6q18 -2 21 -4.5t5 -15.5l5 -93q1 -17 -18 -25q-11 -5 -24 -7.5t-26 -4t-24 -2t-18 -0.5q-72 0 -110 33t-38 117v538q0 10 5 17t19 7h141q16 0 19.5 -9t3.5 -15v-507z" />
    <glyph glyph-name="m" unicode="m" horiz-adv-x="858" 
d="M233 454l2 -1q35 32 74 42.5t67 10.5q55 0 83.5 -19.5t43.5 -47.5q33 30 76.5 48.5t85.5 18.5q56 0 86.5 -19.5t44.5 -49.5t16.5 -66t2.5 -69v-278q0 -6 -3.5 -15t-19.5 -9h-141q-14 0 -19 7t-5 17v246q0 39 -12.5 49.5t-32.5 10.5q-11 0 -26.5 -4t-31.5 -12v-290
q0 -6 -3.5 -15t-19.5 -9h-141q-14 0 -19 7t-5 17v246q0 39 -12.5 49.5t-32.5 10.5q-11 0 -26.5 -4t-31.5 -12v-290q0 -6 -3.5 -15t-19.5 -9h-141q-14 0 -19 7t-5 17v449q0 10 5 17t19 7h141q16 0 19.5 -9t3.5 -15v-19z" />
    <glyph glyph-name="n" unicode="n" horiz-adv-x="583" 
d="M233 454l2 -1q38 29 79.5 40.5t69.5 11.5q55 0 86 -19.5t46 -49.5t18.5 -65.5t3.5 -68.5v-278q0 -6 -3.5 -15t-19.5 -9h-141q-14 0 -19 7t-5 17v246q0 39 -14 49.5t-37 10.5q-17 0 -34.5 -5.5t-31.5 -10.5v-290q0 -6 -3.5 -15t-19.5 -9h-141q-14 0 -19 7t-5 17v449
q0 10 5 17t19 7h141q16 0 19.5 -9t3.5 -15v-19z" />
    <glyph glyph-name="o" unicode="o" horiz-adv-x="571" 
d="M531 255q0 -40 -6.5 -86t-31.5 -85.5t-74.5 -65.5t-136.5 -26q-85 0 -133.5 26t-72.5 65.5t-30 85.5t-6 86q0 33 7.5 76.5t32.5 82t73 65.5t129 27t130 -23t75.5 -59.5t35 -81t8.5 -87.5zM340 249q0 50 -10 74t-46 24q-31 0 -42.5 -25.5t-11.5 -72.5q0 -53 10.5 -76
t41.5 -23q35 0 46.5 24.5t11.5 74.5z" />
    <glyph glyph-name="p" unicode="p" horiz-adv-x="573" 
d="M233 -181q0 -6 -3.5 -15t-19.5 -9h-141q-14 0 -19 7t-5 17v654q0 10 5 17t19 7h141q16 0 19.5 -9t3.5 -15v-19l2 -1q38 29 69.5 40.5t59.5 11.5q54 0 87.5 -21t51.5 -56.5t24.5 -82t6.5 -97.5q0 -59 -8.5 -106.5t-31.5 -82t-63 -53t-104 -18.5q-17 0 -44.5 3.5t-49.5 8.5
v-181zM342 245q0 51 -11.5 69t-35.5 18q-17 0 -33 -5.5t-30 -11.5v-161q17 -4 28 -5t20 -1q16 0 28 3.5t19.5 13.5t11 29t3.5 51z" />
    <glyph glyph-name="q" unicode="q" horiz-adv-x="570" 
d="M525 -181q0 -6 -3.5 -15t-19.5 -9h-141q-14 0 -19 7t-5 17v183q-22 -6 -42.5 -8.5t-37.5 -2.5q-66 0 -108 19t-66.5 53t-33.5 79.5t-9 99.5q0 56 11 104.5t39 84t77 56t125 20.5q51 0 106 -7.5t95 -24.5q20 -9 26 -21.5t6 -32.5v-602zM233 251q0 -32 4 -51.5t12 -30
t19.5 -14.5t26.5 -4q9 0 18 1t26 5v186q-12 2 -21.5 2.5t-16.5 0.5q-14 0 -26 -3t-21.5 -13t-15 -29t-5.5 -50z" />
    <glyph glyph-name="r" unicode="r" horiz-adv-x="449" 
d="M244 422l2 -2q15 16 34 30.5t38.5 25t37.5 17.5t32 9q21 3 29.5 -0.5t11.5 -26.5l15 -124q1 -8 1 -13.5t-3 -9t-10.5 -6t-21.5 -5.5q-47 -9 -84.5 -18t-81.5 -24v-251q0 -6 -3.5 -15t-19.5 -9h-141q-14 0 -19 7t-5 17v449q0 10 5 17t19 7h141q16 0 19.5 -9t3.5 -15v-51z
" />
    <glyph glyph-name="s" unicode="s" horiz-adv-x="512" 
d="M477 164q0 -49 -20 -82t-53 -53.5t-75.5 -29t-88.5 -8.5q-18 0 -39 1.5t-42.5 4.5t-41.5 7t-36 9q-33 11 -41.5 22.5t-2.5 37.5l14 59q4 17 10 20.5t26 -0.5q37 -7 77.5 -10.5t66.5 -3.5q31 0 43 5t12 16t-9 15t-29 6q-44 6 -81.5 14t-65.5 24.5t-44 44.5t-16 75
q0 42 17 73.5t46 52.5t69 31.5t86 10.5q18 0 38.5 -1.5t41.5 -4.5t40.5 -7t35.5 -9q26 -9 39 -17.5t7 -33.5l-15 -63q-4 -17 -8 -20t-24 -1q-18 2 -39.5 4.5t-42 4t-38 3t-26.5 1.5q-30 1 -35 -5t-5 -12q0 -10 16 -13t28 -5q41 -5 78.5 -13t65.5 -25t44.5 -47t16.5 -78z" />
    <glyph glyph-name="t" unicode="t" horiz-adv-x="449" 
d="M437 55q2 -16 -5 -24.5t-18 -12.5q-22 -9 -46 -14t-46.5 -7.5t-42 -3.5t-32.5 -1q-88 0 -124.5 41.5t-36.5 117.5v201h-38q-24 0 -24 25v96q0 24 24 24h40v94q0 13 6.5 19t17.5 9l129 34q13 3 21 -2t8 -19v-135h98q15 0 19 -6t4 -17v-97q0 -13 -4 -19t-19 -6h-100v-118
q0 -32 5.5 -48.5t20 -23t39 -5.5t63.5 4q16 1 21 -1t7 -17z" />
    <glyph glyph-name="u" unicode="u" horiz-adv-x="574" 
d="M341 43l-2 1q-38 -29 -79 -40.5t-69 -11.5q-55 0 -85 17.5t-44.5 46t-17 64t-2.5 72.5v281q0 6 3.5 15t19.5 9h141q14 0 19 -7t5 -17v-246q0 -39 14 -49.5t37 -10.5q17 0 31.5 5.5t28.5 10.5v290q0 6 3.5 15t19.5 9h141q14 0 19 -7t5 -17v-449q0 -10 -5 -17t-19 -7h-141
q-16 0 -19.5 9t-3.5 15v19z" />
    <glyph glyph-name="v" unicode="v" horiz-adv-x="583" 
d="M295 203l41 145l40 125q4 11 11.5 17.5t30.5 6.5h125q21 0 24 -7t-2 -22l-161 -428q-8 -21 -19.5 -30.5t-36.5 -9.5h-114q-27 0 -37.5 9.5t-18.5 30.5l-159 427q-5 15 -1.5 22.5t20.5 7.5h135q16 0 25.5 -3t14.5 -23l36 -129l40 -139h6z" />
    <glyph glyph-name="w" unicode="w" horiz-adv-x="792" 
d="M499 357l35 -127h6l33 153l19 86q4 17 10 22.5t19 5.5h138q19 0 20 -8.5t-1 -16.5l-128 -432q-7 -22 -19 -31t-31 -9h-106q-17 0 -27 9.5t-18 30.5l-18 50l-23 66h-4l-25 -66q-5 -13 -10 -25.5t-10 -24.5q-8 -20 -20 -30t-32 -10h-97q-21 0 -31 9t-18 31l-144 432
q-3 9 0.5 17t18.5 8h139q15 0 22.5 -4t12.5 -21l26 -105l37 -151h6l27 82l11.5 34.5t11.5 33.5l-37 105q-5 12 0 19t17 7h122q17 0 23.5 -4t12.5 -25z" />
    <glyph glyph-name="x" unicode="x" horiz-adv-x="568" 
d="M407 253l150 -222q8 -11 5 -21t-20 -10h-155q-13 0 -21 3.5t-16 15.5l-66 121l-63 -119q-8 -12 -17 -16.5t-24 -4.5h-155q-14 0 -18.5 7.5t6.5 23.5l150 222l-139 214q-7 10 -5 20t19 10h153q17 0 22.5 -3.5t13.5 -15.5l58 -110l58 109q7 11 12.5 15.5t19.5 4.5h162
q23 0 23.5 -9.5t-7.5 -20.5z" />
    <glyph glyph-name="y" unicode="y" horiz-adv-x="548" 
d="M275 233l40 130l34 110q4 11 11.5 17.5t30.5 6.5h120q21 0 24 -7.5t-3 -22.5l-242 -644q-7 -17 -15 -22t-28 -5h-119q-17 0 -22.5 6t2.5 23l73 194l-171 449q-12 29 19 29h132q16 0 25.5 -3t14.5 -23l33 -112l35 -126h6z" />
    <glyph glyph-name="z" unicode="z" horiz-adv-x="488" 
d="M436 145q24 0 24 -25v-96q0 -24 -24 -24h-388q-15 0 -19 6t-4 17v79q0 8 2 18.5t16 25.5l184 205h-164q-24 0 -24 25v97q0 24 24 24h367q15 0 19 -6t4 -17v-80q0 -9 -2.5 -19.5t-15.5 -25.5l-183 -204h184z" />
    <glyph glyph-name="braceleft" unicode="{" horiz-adv-x="380" 
d="M260 67q0 -23 8 -34t30 -13l25 -2q10 -1 15 -5t5 -16v-81q0 -20 -18 -22q-28 -4 -54.5 -4.5t-47.5 -0.5q-38 0 -63.5 11.5t-41.5 29.5t-23 40.5t-7 45.5v155q0 32 -4.5 49.5t-33.5 26.5q-8 2 -13.5 7.5t-5.5 14.5v67q0 9 5 13t12 6q15 4 23.5 11t12 16t4 21.5t0.5 29.5
v140q0 25 9 48t26.5 41t44 29t61.5 11q21 0 42.5 -0.5t53.5 -4.5q18 -2 18 -22v-85q0 -20 -20 -20l-26 -2q-21 -2 -29 -14t-8 -35v-105q0 -12 -2.5 -29t-10 -34t-21.5 -31t-36 -21v-3q25 -8 39.5 -20.5t21 -27.5t8 -31t1.5 -32v-118z" />
    <glyph glyph-name="bar" unicode="|" horiz-adv-x="325" 
d="M80 673q0 10 5 17t19 7h118q16 0 19.5 -9t3.5 -15v-758q0 -6 -3.5 -15t-19.5 -9h-118q-14 0 -19 7t-5 17v758z" />
    <glyph glyph-name="braceright" unicode="}" horiz-adv-x="380" 
d="M112 185q0 16 1.5 32t8 31t20.5 27.5t40 20.5v3q-23 7 -36.5 21t-21 31t-10 34t-2.5 29v105q0 23 -8 35t-29 14l-26 2q-20 0 -20 20v85q0 20 18 22q32 4 53.5 4.5t42.5 0.5q35 0 61.5 -11t44 -29t26.5 -41t9 -48v-140q0 -17 0.5 -29.5t4 -21.5t12 -16t23.5 -11
q7 -2 12 -6t5 -13v-67q0 -9 -5.5 -14.5t-13.5 -7.5q-29 -9 -33.5 -26.5t-4.5 -49.5v-155q0 -23 -7 -45.5t-23 -40.5t-42 -29.5t-63 -11.5q-21 0 -47.5 0.5t-54.5 4.5q-18 2 -18 22v81q0 12 5 16t15 5l25 2q22 2 30 13t8 34v118z" />
    <glyph glyph-name="asciitilde" unicode="~" horiz-adv-x="616" 
d="M407 213q-19 0 -44.5 7.5t-52 17t-51.5 17t-43 7.5q-16 0 -31 -9t-34 -32q-8 -9 -12 -12t-19 5l-51 27q-3 2 -10 8t-2 17q15 35 34 59t40 39t43.5 21.5t44.5 6.5q26 0 54 -7t55 -16t51 -16t42 -7q14 0 26 9.5t25 28.5q7 10 12 11.5t18 -6.5l52 -31q10 -6 14 -10.5
t-1 -15.5q-16 -37 -34.5 -60.5t-38.5 -36.5t-42 -17.5t-45 -4.5z" />
    <glyph glyph-name="exclamdown" unicode="&#xa1;" horiz-adv-x="324" 
d="M252 -146q0 -13 -5 -17.5t-17 -4.5h-133q-12 0 -17 4.5t-4 17.5l15 413q0 12 4.5 17t16.5 5h104q12 0 16.5 -5.5t5.5 -16.5zM254 420q0 -18 -3.5 -34t-14 -27t-28.5 -17.5t-46 -6.5q-27 0 -45 6.5t-28.5 18t-14.5 27t-4 33.5q0 15 3 30t12.5 27.5t28 20t48.5 7.5
q29 0 47 -7.5t28 -19.5t13.5 -27t3.5 -31z" />
    <glyph glyph-name="cent" unicode="&#xa2;" horiz-adv-x="616" 
d="M526 70q5 -23 0.5 -34t-33.5 -22q-20 -7 -46 -12t-52 -8v-117q0 -6 -3.5 -15t-19.5 -9h-81q-14 0 -19 7t-5 17v120q-55 10 -88.5 35t-51.5 59.5t-24 75.5t-6 83q0 39 6.5 78.5t25 74t52 60t86.5 36.5v119q0 10 5 17t19 7h81q16 0 19.5 -9t3.5 -15v-115q59 -5 103 -23
q16 -7 23 -16.5t3 -28.5l-14 -77q-2 -10 -5.5 -14.5t-8.5 -6.5t-12.5 -1.5t-16.5 1.5q-30 3 -52 4.5t-44 1.5q-43 0 -63.5 -23t-20.5 -67q0 -56 17.5 -78t62.5 -22q20 0 50 1.5t63 6.5q17 2 23.5 -1t9.5 -20z" />
    <glyph glyph-name="sterling" unicode="&#xa3;" horiz-adv-x="616" 
d="M315 275q-1 -37 -6.5 -69.5t-19.5 -55.5h238q14 0 18 -4.5t4 -16.5l1 -107q0 -13 -4 -17.5t-18 -4.5h-447q-23 0 -23 23l-2 92q0 9 5.5 19.5t20.5 22.5q29 23 38.5 52t10.5 66h-51q-13 0 -18.5 4t-5.5 17v89q0 12 5.5 16t18.5 4h46q-3 52 0.5 100t24.5 84.5t66 58
t126 21.5q14 0 37.5 -1t50.5 -4t55 -8.5t51 -14.5q17 -7 19.5 -13.5t0.5 -17.5l-13 -88q-2 -14 -7.5 -19t-16.5 -4q-32 5 -63 7.5t-62 2.5q-30 0 -47.5 -8.5t-26 -22.5t-10.5 -33t-1 -40h120q13 0 18 -4t5 -16v-89q0 -13 -5 -17t-18 -4h-115z" />
    <glyph glyph-name="currency" unicode="&#xa4;" horiz-adv-x="554" 
d="M195 290q0 -41 21 -62.5t59 -21.5q42 0 64 23.5t22 60.5q0 39 -22 61t-64 22q-38 0 -59 -22t-21 -61zM64 286q0 17 4 43t18 55l-49 50q-13 14 -13 20.5t14 18.5l47 44q17 16 24 15t21 -15l42 -43q43 20 100 22q32 0 58 -5t49 -19l53 51q16 15 22 14t17 -12l53 -52
q11 -11 10.5 -17.5t-12.5 -18.5l-56 -56q11 -22 15.5 -47t4.5 -44q0 -21 -5 -49.5t-18 -55.5l56 -56q11 -11 13.5 -18.5t-10.5 -20.5l-44 -45q-16 -17 -23 -17t-19 11l-61 58q-23 -11 -49 -17.5t-54 -5.5q-27 0 -49 5t-42 14l-52 -47q-13 -12 -20.5 -14.5t-19.5 9.5l-51 54
q-9 9 -9.5 15t13.5 20l47 45q-12 28 -18.5 59.5t-6.5 51.5z" />
    <glyph glyph-name="yen" unicode="&#xa5;" horiz-adv-x="616" 
d="M524 220q15 0 19 -4.5t4 -15.5v-48q0 -13 -4 -17.5t-19 -4.5h-125v-106q0 -6 -3.5 -15t-18.5 -9h-141q-14 0 -18.5 7t-4.5 17v106h-125q-13 0 -18.5 4.5t-5.5 17.5v47q0 12 5.5 16.5t18.5 4.5h436zM88 254q-13 0 -18.5 4.5t-5.5 17.5v47q0 12 5.5 16.5t18.5 4.5h69
l-132 291q-6 12 -1 21t18 9h135q20 0 28 -5.5t17 -23.5l87 -238h6l80 228q9 18 17 28.5t28 10.5h141q11 0 15 -10t-1 -19l-138 -292h67q15 0 19 -4.5t4 -15.5v-48q0 -13 -4 -17.5t-19 -4.5h-436z" />
    <glyph glyph-name="brokenbar" unicode="&#xa6;" horiz-adv-x="325" 
d="M80 262q0 10 5 17t19 7h118q16 0 19.5 -9t3.5 -15v-347q0 -6 -3.5 -15t-19.5 -9h-118q-14 0 -19 7t-5 17v347zM80 673q0 10 5 17t19 7h118q16 0 19.5 -9t3.5 -15v-296q0 -6 -3.5 -15t-19.5 -9h-118q-14 0 -19 7t-5 17v296z" />
    <glyph glyph-name="section" unicode="&#xa7;" horiz-adv-x="470" 
d="M441 275q0 -35 -14 -70t-49 -70q27 -24 45 -56t18 -77q0 -47 -19 -80.5t-49.5 -54.5t-67.5 -30.5t-73 -9.5q-54 0 -99.5 9.5t-68.5 22.5q-12 7 -19.5 13.5t-1.5 23.5l21 67q4 13 8.5 18.5t10.5 6t15 -1.5t23 -4q20 -3 46 -6.5t46 -3.5q28 0 45.5 6t17.5 22
q0 10 -8.5 18.5t-20.5 16t-25 13.5t-22 10q-28 13 -57.5 27t-54 33.5t-40 46.5t-15.5 66q0 34 14.5 70t47.5 70q-27 23 -45.5 55.5t-18.5 77.5q0 47 19.5 80.5t50 54.5t68 30.5t73.5 9.5q54 0 99.5 -9.5t68.5 -22.5q12 -7 19.5 -13.5t1.5 -23.5l-21 -67q-5 -13 -9 -18.5
t-10 -6t-15 1.5t-23 4q-20 3 -46 6.5t-46 3.5q-28 0 -45.5 -6t-17.5 -22q0 -10 8.5 -18.5t20.5 -16t25 -13.5t22 -10q28 -14 57.5 -27.5t54 -33t40 -46.5t15.5 -66zM277 255q0 12 -18 23.5t-44 23.5q-10 -17 -14 -30t-4 -21q0 -13 18 -24t44 -23q14 17 16 30t2 21z" />
    <glyph glyph-name="dieresis" unicode="&#xa8;" horiz-adv-x="554" 
d="M176 537q-30 0 -47.5 7t-26.5 18.5t-11.5 26.5t-2.5 31q0 17 3.5 32t13.5 25.5t27 16.5t44 6q28 0 45 -5.5t27 -16t13.5 -25.5t3.5 -33q0 -17 -3 -32t-13 -26.5t-27.5 -18t-45.5 -6.5zM397 537q-29 0 -46.5 7t-26.5 18.5t-12 26.5t-3 31q0 17 4 32t13.5 25.5t26.5 16.5
t44 6q28 0 45.5 -5.5t27 -16t13 -25.5t3.5 -33q0 -17 -3 -32t-12.5 -26.5t-27 -18t-46.5 -6.5z" />
    <glyph glyph-name="copyright" unicode="&#xa9;" horiz-adv-x="841" 
d="M420 -14q-74 0 -138.5 27.5t-112.5 74.5t-76 111t-28 137t28 137t76 111t112.5 74.5t138.5 27.5q75 0 140 -27.5t113 -74.5t75.5 -111t27.5 -137t-28 -137t-76 -111t-113 -74.5t-139 -27.5zM420 590q-53 0 -99.5 -20t-81.5 -54.5t-55 -80.5t-20 -99t20 -99t55 -81
t81.5 -55t99.5 -20t100 20t81.5 55t54.5 81t20 99t-20 99t-54.5 80.5t-81.5 54.5t-100 20zM242 333q0 35 7 70.5t26.5 64t54 46.5t90.5 18q32 0 60 -4.5t51 -15.5q11 -5 17 -10.5t3 -20.5l-8 -42q-3 -11 -9 -13t-16 0q-21 3 -45.5 4t-40.5 1q-40 0 -54.5 -27.5t-14.5 -68.5
q0 -54 14 -77.5t55 -23.5h20.5t19.5 1t21.5 1.5t26.5 2.5q10 1 15 -1t9 -13l10 -38q4 -14 -2 -21t-17 -12q-23 -11 -53 -16t-62 -5q-55 0 -90 17.5t-54.5 46t-26.5 64.5t-7 72z" />
    <glyph glyph-name="ordfeminine" unicode="&#xaa;" horiz-adv-x="414" 
d="M239 274q-13 -13 -29 -21.5t-32 -13.5t-29.5 -7t-22.5 -2q-35 0 -55.5 9.5t-31.5 24.5t-14.5 33.5t-3.5 36.5q-1 33 10 53t29.5 31t44.5 15t55 4h64v6q0 9 -10.5 16t-47.5 7q-12 0 -30.5 -1t-38.5 -3t-28 -2.5t-11 15.5l-8 39q-2 11 1 23t29 20q32 10 64.5 14t55.5 4
q53 0 85 -9t49.5 -26.5t23.5 -42.5t6 -57v-81q0 -15 3.5 -18.5t14.5 -5.5q14 -2 18 -5.5t4 -15.5v-52q0 -12 -7.5 -17t-21.5 -9q-11 -3 -24.5 -4t-27.5 -1q-24 0 -47 8t-34 35h-3zM221 363h-32q-24 0 -24 -22q0 -5 2.5 -9.5t10.5 -4.5q9 0 21 3.5t22 8.5v24z" />
    <glyph glyph-name="guillemotleft" unicode="&#xab;" horiz-adv-x="616" 
d="M153 367q5 6 13.5 13t19.5 7h146q11 0 14 -5.5t-2 -10.5l-134 -164l127 -161q3 -4 3 -12t-9 -8h-147q-11 0 -18.5 7.5t-12.5 13.5l-111 140q-11 14 -10 23t10 20zM389 367q5 6 13.5 13t19.5 7h146q11 0 14 -5.5t-2 -10.5l-134 -164l127 -161q3 -4 3 -12t-9 -8h-147
q-11 0 -18.5 7.5t-12.5 13.5l-111 140q-11 14 -10 23t10 20z" />
    <glyph glyph-name="logicalnot" unicode="&#xac;" horiz-adv-x="616" 
d="M527 398q15 0 19 -6t4 -17v-264q0 -15 -6 -19t-17 -4h-115q-13 0 -19 4t-6 19v152h-296q-24 0 -24 25v86q0 24 24 24h436z" />
    <glyph glyph-name="sfthyphen" unicode="&#xad;" horiz-adv-x="430" 
d="M384 391q15 0 19 -6t4 -17v-98q0 -13 -4 -19t-19 -6h-331q-24 0 -24 25v97q0 24 24 24h331z" />
    <glyph glyph-name="registered" unicode="&#xae;" horiz-adv-x="545" 
d="M384 395q5 -11 -9 -11h-57q-14 0 -19 11l-32 77h-8v-77q0 -2 -0.5 -6.5t-8.5 -4.5h-59q-8 0 -9 3.5t-1 7.5v226q0 5 1.5 8.5t9.5 3.5h99q15 0 30.5 -4.5t28 -14t20.5 -25t8 -36.5q0 -17 -7.5 -35.5t-27.5 -29.5zM298 552q0 16 -19 16h-20v-33h20q6 0 12.5 3t6.5 14z
M279 273q-48 0 -91 18t-74.5 49t-50 73.5t-18.5 90.5t18.5 90t50 73t74.5 49t91 18q49 0 92 -18t74.5 -49t49.5 -73t18 -90t-18.5 -90.5t-50 -73.5t-74 -49t-91.5 -18zM279 671q-35 0 -65.5 -13t-53.5 -36t-36.5 -53.5t-13.5 -64.5q0 -35 13.5 -65.5t36.5 -53.5t53.5 -36
t65.5 -13t65.5 13t53.5 36t36 53.5t13 65.5q0 34 -13 64.5t-36 53.5t-53.5 36t-65.5 13z" />
    <glyph glyph-name="macron" unicode="&#xaf;" horiz-adv-x="554" 
d="M113 560q-24 0 -24 25v86q0 24 24 24h328q15 0 19 -6t4 -17v-87q0 -13 -4 -19t-19 -6h-328z" />
    <glyph glyph-name="degree" unicode="&#xb0;" horiz-adv-x="413" 
d="M208 344q-42 0 -75 13t-56 35.5t-35 52.5t-12 65q0 33 14 63t38 52.5t56.5 36t69.5 13.5t69 -13.5t55.5 -36t37 -52.5t13.5 -63q0 -35 -13.5 -65t-37 -52.5t-55.5 -35.5t-69 -13zM206 566q-24 0 -42 -17t-18 -41t17 -41t43 -17q24 0 41.5 17t17.5 41t-17.5 41t-41.5 17z
" />
    <glyph glyph-name="plusminus" unicode="&#xb1;" horiz-adv-x="616" 
d="M388 452h139q15 0 19 -6t4 -17v-87q0 -13 -4 -19t-19 -6h-139v-132q0 -15 -6 -19t-17 -4h-114q-13 0 -19 4t-6 19v132h-135q-24 0 -24 25v86q0 24 24 24h135v119q0 24 25 24h113q24 0 24 -24v-119zM91 2q-24 0 -24 25v79q0 24 24 24h436q15 0 19 -6t4 -17v-80
q0 -13 -4 -19t-19 -6h-436z" />
    <glyph glyph-name="twosuperior" unicode="&#xb2;" horiz-adv-x="425" 
d="M251 447h122q17 0 17 -17v-88q0 -7 -3.5 -12t-13.5 -5h-334q-11 0 -14 4.5t-3 12.5v62q0 8 2.5 17t13.5 20l161 142q16 14 21 24.5t5 17.5q0 9 -7.5 14t-28.5 5q-29 0 -61 -2.5t-54 -4.5q-12 -1 -19 -2t-11 0.5t-6 6t-4 15.5l-8 48q-1 6 -1.5 12.5t2 12t10 11t21.5 10.5
q15 6 34 9.5t38.5 6t36.5 3.5t26 1q101 0 145.5 -36t44.5 -101q0 -44 -19.5 -74.5t-53.5 -61.5z" />
    <glyph glyph-name="threesuperior" unicode="&#xb3;" horiz-adv-x="425" 
d="M168 645h-117q-18 0 -18 16v88q0 17 18 17h316q12 0 14.5 -4.5t2.5 -12.5v-60q0 -9 -2 -19t-16 -21l-55 -39q40 -12 63 -40.5t23 -75.5q0 -51 -15 -85t-42 -54t-65.5 -28t-84.5 -8q-9 0 -25 1t-35 3.5t-38 6t-34 9.5q-27 9 -34 20t-2 28l12 50q2 9 4 13.5t6 6t10.5 0.5
t18.5 -2q29 -3 57 -6t48 -3q29 0 46.5 5t17.5 32q0 11 -19 15l-86 17q-20 4 -26.5 11t-6.5 27v28q0 10 1.5 17.5t11.5 13.5l52 31z" />
    <glyph glyph-name="acute" unicode="&#xb4;" horiz-adv-x="554" 
d="M431 745q11 -6 13 -15.5t-7 -21.5l-131 -160q-6 -8 -13 -12t-17 2l-63 36q-8 5 -11.5 10.5t3.5 17.5l103 185q8 14 17 15t16 -3z" />
    <glyph glyph-name="mu" unicode="&#xb5;" horiz-adv-x="574" 
d="M230 227q0 -39 14 -49.5t37 -10.5q17 0 31.5 5.5t28.5 10.5v290q0 6 3.5 15t19.5 9h141q14 0 19 -7t5 -17v-449q0 -10 -5 -17t-19 -7h-141q-16 0 -19.5 9t-3.5 15v19l-2 1q-27 -20 -52.5 -30t-56.5 -12v-183q0 -6 -3.5 -15t-19.5 -9h-141q-14 0 -19 7t-5 17v654
q0 10 5 17t19 7h141q16 0 19.5 -9t3.5 -15v-246z" />
    <glyph glyph-name="mu" unicode="&#x3bc;" horiz-adv-x="574" 
d="M230 227q0 -39 14 -49.5t37 -10.5q17 0 31.5 5.5t28.5 10.5v290q0 6 3.5 15t19.5 9h141q14 0 19 -7t5 -17v-449q0 -10 -5 -17t-19 -7h-141q-16 0 -19.5 9t-3.5 15v19l-2 1q-27 -20 -52.5 -30t-56.5 -12v-183q0 -6 -3.5 -15t-19.5 -9h-141q-14 0 -19 7t-5 17v654
q0 10 5 17t19 7h141q16 0 19.5 -9t3.5 -15v-246z" />
    <glyph glyph-name="paragraph" unicode="&#xb6;" horiz-adv-x="609" 
d="M545 665q16 0 21.5 -6.5t5.5 -19.5v-96q0 -12 -5.5 -19t-21.5 -7h-14v-603q0 -16 -6.5 -21.5t-19.5 -5.5h-84q-12 0 -19 5.5t-7 21.5v604h-79v-604q0 -16 -7 -21.5t-20 -5.5h-82q-14 0 -21 5.5t-7 21.5v358q-37 3 -65.5 18.5t-47.5 40.5t-29 57t-10 67q0 53 15.5 92.5
t43 65.5t64 39t78.5 13h317z" />
    <glyph glyph-name="periodcentered" unicode="&#xb7;" horiz-adv-x="252" 
d="M222 276q0 -17 -3.5 -32.5t-14 -28.5t-29.5 -20.5t-49 -7.5q-32 0 -50.5 8t-29 20.5t-13.5 28.5t-3 32q0 18 4.5 34t15 28t29 19t47.5 7q30 0 48.5 -6.5t29 -18.5t14.5 -28t4 -35z" />
    <glyph glyph-name="cedilla" unicode="&#xb8;" horiz-adv-x="425" 
d="M268 -134q0 11 -5 16t-14.5 7.5t-24.5 3t-34 1.5q-24 3 -15 26l31 89q0 1 2.5 4t7.5 3h61q5 0 5.5 -3t-0.5 -5l-22 -57q36 -2 57.5 -10t33 -20t15.5 -27.5t4 -30.5q0 -23 -8.5 -44t-27.5 -37t-48 -25.5t-69 -9.5q-8 0 -19.5 0.5t-25 2t-26 4t-21.5 5.5q-5 2 -8 5t-1 8
l10 51q1 7 13 6q16 -2 34.5 -4t32.5 -2q12 0 23.5 1.5t20 6t13.5 13t5 22.5z" />
    <glyph glyph-name="onesuperior" unicode="&#xb9;" horiz-adv-x="425" 
d="M78 325q-10 0 -14 3t-4 14v88q0 16 18 16h65v186h-59q-13 0 -16 4.5t-3 12.5v51q0 12 3 17.5t15 10.5l61 29q14 6 21 7.5t23 1.5h86q19 0 19 -17v-303h70q9 0 13 -3t4 -13v-88q0 -8 -3 -12.5t-14 -4.5h-285z" />
    <glyph glyph-name="ordmasculine" unicode="&#xba;" horiz-adv-x="394" 
d="M370 405q0 -26 -4.5 -57t-22 -57t-52.5 -43.5t-96 -17.5q-60 0 -94 17.5t-51 43.5t-21.5 57t-4.5 57q0 22 5.5 51t23 54.5t51.5 43.5t91 18t91.5 -15.5t53 -39.5t24.5 -54t6 -58zM226 401q0 28 -5.5 41.5t-24.5 13.5q-16 0 -22 -14.5t-6 -40.5q0 -29 5 -42t22 -13
q19 0 25 13.5t6 41.5z" />
    <glyph glyph-name="guillemotright" unicode="&#xbb;" horiz-adv-x="616" 
d="M572 230q9 -11 10 -20t-10 -23l-111 -140q-5 -6 -12.5 -13.5t-18.5 -7.5h-147q-9 0 -9 8t3 12l127 161l-134 164q-5 5 -2 10.5t14 5.5h146q11 0 19.5 -7t13.5 -13zM336 230q9 -11 10 -20t-10 -23l-111 -140q-5 -6 -12.5 -13.5t-18.5 -7.5h-147q-9 0 -9 8t3 12l127 161
l-134 164q-5 5 -2 10.5t14 5.5h146q11 0 19.5 -7t13.5 -13z" />
    <glyph glyph-name="onequarter" unicode="&#xbc;" horiz-adv-x="1020" 
d="M73 235q-10 0 -14 3t-4 14v88q0 16 18 16h65v186h-59q-13 0 -16 4.5t-3 12.5v51q0 12 3 17.5t15 10.5l61 29q14 6 21 7.5t23 1.5h86q19 0 19 -17v-303h70q9 0 13 -3t4 -13v-88q0 -8 -3 -12.5t-14 -4.5h-285zM433 -11q-5 -12 -15 -12h-114q-15 0 -10 15l276 695q3 7 6 10
t10 3h114q13 0 8 -15zM896 17q0 -8 -2.5 -12.5t-14.5 -4.5h-115q-10 0 -13.5 3t-3.5 14v68h-187q-9 0 -13.5 3t-4.5 14v67q0 6 2 13.5t9 15.5l168 221q11 14 18.5 17.5t19.5 3.5h120q11 0 14 -4.5t3 -12.5v-221h38q9 0 13 -3t4 -13v-84q0 -8 -3 -12.5t-14 -4.5h-38v-68z
M747 281l-64 -82h66v82h-2z" />
    <glyph glyph-name="onehalf" unicode="&#xbd;" horiz-adv-x="1020" 
d="M827 122h122q17 0 17 -17v-88q0 -7 -3.5 -12t-13.5 -5h-334q-11 0 -14 4.5t-3 12.5v62q0 8 2.5 17t13.5 20l161 142q16 14 21 24.5t5 17.5q0 9 -7.5 14t-28.5 5q-29 0 -61 -2.5t-54 -4.5q-12 -1 -19 -2t-11 0.5t-6 6t-4 15.5l-8 48q-1 6 -1.5 12.5t2 12t10 11t21.5 10.5
q15 6 34 9.5t38.5 6t36.5 3.5t26 1q101 0 145.5 -36t44.5 -101q0 -44 -19.5 -74.5t-53.5 -61.5zM417 -11q-5 -12 -15 -12h-114q-15 0 -10 15l276 695q3 7 6 10t10 3h114q13 0 8 -15zM61 235q-10 0 -14 3t-4 14v88q0 16 18 16h65v186h-59q-13 0 -16 4.5t-3 12.5v51
q0 12 3 17.5t15 10.5l61 29q14 6 21 7.5t23 1.5h86q19 0 19 -17v-303h70q9 0 13 -3t4 -13v-88q0 -8 -3 -12.5t-14 -4.5h-285z" />
    <glyph glyph-name="threequarters" unicode="&#xbe;" horiz-adv-x="1020" 
d="M184 555h-117q-18 0 -18 16v88q0 17 18 17h316q12 0 14.5 -4.5t2.5 -12.5v-60q0 -9 -2 -19t-16 -21l-55 -39q40 -12 63 -40.5t23 -75.5q0 -51 -15 -85t-42 -54t-65.5 -28t-84.5 -8q-9 0 -25 1t-35 3.5t-38 6t-34 9.5q-27 9 -34 20t-2 28l12 50q2 9 4 13.5t6 6t10.5 0.5
t18.5 -2q29 -3 57 -6t48 -3q29 0 46.5 5t17.5 32q0 11 -19 15l-86 17q-20 4 -26.5 11t-6.5 27v28q0 10 1.5 17.5t11.5 13.5l52 31zM446 -11q-5 -12 -15 -12h-114q-15 0 -10 15l276 695q3 7 6 10t10 3h114q13 0 8 -15zM917 17q0 -8 -2.5 -12.5t-14.5 -4.5h-115q-10 0 -13.5 3
t-3.5 14v68h-187q-9 0 -13.5 3t-4.5 14v67q0 6 2 13.5t9 15.5l168 221q11 14 18.5 17.5t19.5 3.5h120q11 0 14 -4.5t3 -12.5v-221h38q9 0 13 -3t4 -13v-84q0 -8 -3 -12.5t-14 -4.5h-38v-68zM768 281l-64 -82h66v82h-2z" />
    <glyph glyph-name="questiondown" unicode="&#xbf;" horiz-adv-x="475" 
d="M37 -11q0 28 8.5 50t22 38.5t29 29.5t29.5 23q19 14 32 26.5t21.5 26t12.5 29t4 36.5v29q0 10 3.5 17.5t15.5 7.5h127q11 0 17 -4.5t8 -18.5t2 -22.5v-19.5q0 -39 -6.5 -66.5t-19 -49t-32 -40.5t-45.5 -41q-25 -19 -25 -39q0 -17 14.5 -23.5t48.5 -6.5q21 0 45.5 1.5
t45.5 4.5q23 3 28 0t7 -19l6 -72q2 -18 -1 -24t-20 -14q-20 -9 -41 -14t-40.5 -7.5t-36.5 -3.5t-27 -1q-112 0 -172.5 42.5t-60.5 124.5zM192 419q0 16 3.5 31t13.5 27t28 19.5t47 7.5q30 0 48.5 -7.5t28 -20t12.5 -27.5t3 -30q0 -18 -4 -33.5t-14.5 -27t-28.5 -18t-45 -6.5
q-29 0 -46.5 6.5t-28 17.5t-14 27t-3.5 34z" />
    <glyph glyph-name="Agrave" unicode="&#xc0;" horiz-adv-x="650" 
d="M204 33q-5 -19 -15 -26t-27 -7h-138q-14 0 -18.5 5t1.5 25l186 601q5 17 14 26t35 9h157q26 0 34 -9t14 -27l197 -602q9 -28 -13 -28h-153q-20 0 -28 9.5t-13 29.5l-27 98h-178zM186 911q5 6 14 8.5t21 -7.5l163 -135q11 -9 9 -15.5t-7 -13.5l-45 -57q-8 -9 -16 -7.5
t-16 6.5l-180 102q-13 8 -14.5 17.5t6.5 18.5zM349 367l-25 104h-6l-47 -188h99z" />
    <glyph glyph-name="Aacute" unicode="&#xc1;" horiz-adv-x="650" 
d="M204 33q-5 -19 -15 -26t-27 -7h-138q-14 0 -18.5 5t1.5 25l186 601q5 17 14 26t35 9h157q26 0 34 -9t14 -27l197 -602q9 -28 -13 -28h-153q-20 0 -28 9.5t-13 29.5l-27 98h-178zM517 810q7 -10 4.5 -19.5t-16.5 -14.5l-192 -78q-9 -4 -17 -4.5t-15 9.5l-37 63
q-5 7 -5.5 13.5t11.5 14.5l179 113q14 8 22.5 4.5t12.5 -10.5zM349 367l-25 104h-6l-47 -188h99z" />
    <glyph glyph-name="Acircumflex" unicode="&#xc2;" horiz-adv-x="650" 
d="M204 33q-5 -19 -15 -26t-27 -7h-138q-14 0 -18.5 5t1.5 25l186 601q5 17 14 26t35 9h157q26 0 34 -9t14 -27l197 -602q9 -28 -13 -28h-153q-20 0 -28 9.5t-13 29.5l-27 98h-178zM174 690q-11 -8 -18 -10t-16 8l-39 42q-9 9 -10.5 15t9.5 17l132 120q10 9 17 15t28 6h72
q21 0 27.5 -4.5t16.5 -13.5l134 -122q11 -11 9.5 -17t-10.5 -15l-40 -43q-9 -10 -15.5 -8t-18.5 10l-142 89zM349 367l-25 104h-6l-47 -188h99z" />
    <glyph glyph-name="Atilde" unicode="&#xc3;" horiz-adv-x="650" 
d="M204 33q-5 -19 -15 -26t-27 -7h-138q-14 0 -18.5 5t1.5 25l186 601q5 17 14 26t35 9h157q26 0 34 -9t14 -27l197 -602q9 -28 -13 -28h-153q-20 0 -28 9.5t-13 29.5l-27 98h-178zM403 702q-17 0 -39 7t-44.5 16t-44 16t-37.5 7q-14 0 -29.5 -7t-32.5 -30q-7 -9 -11 -11
t-18 5l-46 22q-1 0 -3.5 2t-4.5 5t-3 7.5t1 10.5q28 71 66.5 99.5t77.5 28.5q23 0 46 -7.5t44.5 -16t41 -16t35.5 -7.5q17 0 31.5 8.5t27.5 29.5q6 10 13 9t18 -7l45 -25q9 -5 12.5 -10t-1.5 -16q-16 -36 -33 -59.5t-35 -37t-37.5 -18.5t-39.5 -5zM349 367l-25 104h-6
l-47 -188h99z" />
    <glyph glyph-name="Adieresis" unicode="&#xc4;" horiz-adv-x="650" 
d="M204 33q-5 -19 -15 -26t-27 -7h-138q-14 0 -18.5 5t1.5 25l186 601q5 17 14 26t35 9h157q26 0 34 -9t14 -27l197 -602q9 -28 -13 -28h-153q-20 0 -28 9.5t-13 29.5l-27 98h-178zM207 685q-30 0 -47.5 7t-26.5 18.5t-11.5 26.5t-2.5 31q0 17 3.5 32t13.5 25.5t27 16.5
t44 6q28 0 45 -5.5t27 -16t13.5 -25.5t3.5 -33q0 -17 -3 -32t-13 -26.5t-27.5 -18t-45.5 -6.5zM428 685q-29 0 -46.5 7t-26.5 18.5t-12 26.5t-3 31q0 17 4 32t13.5 25.5t26.5 16.5t44 6q28 0 45.5 -5.5t27 -16t13 -25.5t3.5 -33q0 -17 -3 -32t-12.5 -26.5t-27 -18
t-46.5 -6.5zM349 367l-25 104h-6l-47 -188h99z" />
    <glyph glyph-name="Aring" unicode="&#xc5;" horiz-adv-x="650" 
d="M204 33q-5 -19 -15 -26t-27 -7h-138q-14 0 -18.5 5t1.5 25l186 601q5 17 14 26t35 9h157q26 0 34 -9t14 -27l197 -602q9 -28 -13 -28h-153q-20 0 -28 9.5t-13 29.5l-27 98h-178zM323 671q-27 0 -52.5 10t-45 27.5t-31 42t-11.5 54.5q0 29 11.5 53.5t31 42t45 27.5
t52.5 10q28 0 53 -11t43.5 -29.5t29 -42.5t10.5 -50q0 -27 -10.5 -51.5t-29 -43t-43.5 -29t-53 -10.5zM349 367l-25 104h-6l-47 -188h99zM323 850q-18 0 -31 -13t-13 -32q0 -21 12.5 -33.5t31.5 -12.5q17 0 30 13t13 33q0 19 -13 32t-30 13z" />
    <glyph glyph-name="AE" unicode="&#xc6;" horiz-adv-x="953" 
d="M436 137h-178l-53 -111q-8 -14 -18.5 -20t-27.5 -6h-139q-26 0 -10 30l301 606q9 17 18.5 23t37.5 6h513q11 0 17.5 -6.5t6.5 -17.5v-115q0 -9 -5 -15.5t-19 -6.5h-247v-80h213q11 0 17.5 -6.5t6.5 -17.5v-115q0 -9 -5 -15.5t-19 -6.5h-213v-102h251q11 0 17.5 -6.5
t6.5 -17.5v-115q0 -9 -5 -15.5t-19 -6.5h-424q-14 0 -19 7t-5 17v113zM434 502l-102 -219h104v219h-2z" />
    <glyph glyph-name="Ccedilla" unicode="&#xc7;" horiz-adv-x="619" 
d="M55 332q0 59 12 120t45.5 110t93.5 80t155 31q55 0 104 -8.5t88 -25.5q17 -8 27.5 -18.5t5.5 -35.5l-15 -71q-4 -19 -11.5 -22.5t-30.5 -1.5q-45 4 -82.5 6.5t-63.5 2.5q-35 0 -58 -12.5t-36.5 -34t-19 -51.5t-5.5 -65q0 -46 5.5 -79t19 -54t36 -31t57.5 -10
q19 0 35.5 0.5t33 1.5t36 2.5t45.5 4.5q23 2 30 -1t12 -23l17 -65q7 -24 -4 -36t-28 -20q-39 -17 -90.5 -26.5t-106.5 -9.5h-4l-15 -39q36 -2 57.5 -10t33 -20t15.5 -27.5t4 -30.5q0 -23 -8.5 -44t-27.5 -37t-48 -25.5t-69 -9.5q-8 0 -19.5 0.5t-25 2t-26 4t-21.5 5.5
q-5 2 -8 5t-1 8l10 51q1 7 13 6q16 -2 34.5 -4t32.5 -2q12 0 23.5 1.5t20 6t13.5 13t5 22.5q0 11 -5 16t-14.5 7.5t-24.5 3t-34 1.5q-24 3 -15 26l26 77q-70 12 -114.5 45.5t-70 79.5t-35 100.5t-9.5 109.5z" />
    <glyph glyph-name="Egrave" unicode="&#xc8;" horiz-adv-x="582" 
d="M65 641q0 10 5 17t19 7h420q11 0 17.5 -6.5t6.5 -17.5v-115q0 -9 -5 -15.5t-19 -6.5h-248v-80h214q11 0 17.5 -6.5t6.5 -17.5v-115q0 -9 -5 -15.5t-19 -6.5h-214v-102h252q11 0 17.5 -6.5t6.5 -17.5v-115q0 -9 -5 -15.5t-19 -6.5h-424q-14 0 -19 7t-5 17v617zM184 911
q5 6 14 8.5t21 -7.5l163 -135q11 -9 9 -15.5t-7 -13.5l-45 -57q-8 -9 -16 -7.5t-16 6.5l-180 102q-13 8 -14.5 17.5t6.5 18.5z" />
    <glyph glyph-name="Eacute" unicode="&#xc9;" horiz-adv-x="582" 
d="M65 641q0 10 5 17t19 7h420q11 0 17.5 -6.5t6.5 -17.5v-115q0 -9 -5 -15.5t-19 -6.5h-248v-80h214q11 0 17.5 -6.5t6.5 -17.5v-115q0 -9 -5 -15.5t-19 -6.5h-214v-102h252q11 0 17.5 -6.5t6.5 -17.5v-115q0 -9 -5 -15.5t-19 -6.5h-424q-14 0 -19 7t-5 17v617zM457 810
q7 -10 4.5 -19.5t-16.5 -14.5l-192 -78q-9 -4 -17 -4.5t-15 9.5l-37 63q-5 7 -5.5 13.5t11.5 14.5l179 113q14 8 22.5 4.5t12.5 -10.5z" />
    <glyph glyph-name="Ecircumflex" unicode="&#xca;" horiz-adv-x="582" 
d="M65 641q0 10 5 17t19 7h420q11 0 17.5 -6.5t6.5 -17.5v-115q0 -9 -5 -15.5t-19 -6.5h-248v-80h214q11 0 17.5 -6.5t6.5 -17.5v-115q0 -9 -5 -15.5t-19 -6.5h-214v-102h252q11 0 17.5 -6.5t6.5 -17.5v-115q0 -9 -5 -15.5t-19 -6.5h-424q-14 0 -19 7t-5 17v617zM160 690
q-11 -8 -18 -10t-16 8l-39 42q-9 9 -10.5 15t9.5 17l132 120q10 9 17 15t28 6h72q21 0 27.5 -4.5t16.5 -13.5l134 -122q11 -11 9.5 -17t-10.5 -15l-40 -43q-9 -10 -15.5 -8t-18.5 10l-142 89z" />
    <glyph glyph-name="Edieresis" unicode="&#xcb;" horiz-adv-x="582" 
d="M65 641q0 10 5 17t19 7h420q11 0 17.5 -6.5t6.5 -17.5v-115q0 -9 -5 -15.5t-19 -6.5h-248v-80h214q11 0 17.5 -6.5t6.5 -17.5v-115q0 -9 -5 -15.5t-19 -6.5h-214v-102h252q11 0 17.5 -6.5t6.5 -17.5v-115q0 -9 -5 -15.5t-19 -6.5h-424q-14 0 -19 7t-5 17v617zM188 685
q-30 0 -47.5 7t-26.5 18.5t-11.5 26.5t-2.5 31q0 17 3.5 32t13.5 25.5t27 16.5t44 6q28 0 45 -5.5t27 -16t13.5 -25.5t3.5 -33q0 -17 -3 -32t-13 -26.5t-27.5 -18t-45.5 -6.5zM409 685q-29 0 -46.5 7t-26.5 18.5t-12 26.5t-3 31q0 17 4 32t13.5 25.5t26.5 16.5t44 6
q28 0 45.5 -5.5t27 -16t13 -25.5t3.5 -33q0 -17 -3 -32t-12.5 -26.5t-27 -18t-46.5 -6.5z" />
    <glyph glyph-name="Igrave" unicode="&#xcc;" horiz-adv-x="326" 
d="M65 641q0 10 5 17t19 7h149q16 0 19.5 -9t3.5 -15v-617q0 -6 -3.5 -15t-19.5 -9h-149q-14 0 -19 7t-5 17v617zM24 911q5 6 14 8.5t21 -7.5l163 -135q11 -9 9 -15.5t-7 -13.5l-45 -57q-8 -9 -16 -7.5t-16 6.5l-180 102q-13 8 -14.5 17.5t6.5 18.5z" />
    <glyph glyph-name="Iacute" unicode="&#xcd;" horiz-adv-x="326" 
d="M65 641q0 10 5 17t19 7h149q16 0 19.5 -9t3.5 -15v-617q0 -6 -3.5 -15t-19.5 -9h-149q-14 0 -19 7t-5 17v617zM361 810q7 -10 4.5 -19.5t-16.5 -14.5l-192 -78q-9 -4 -17 -4.5t-15 9.5l-37 63q-5 7 -5.5 13.5t11.5 14.5l179 113q14 8 22.5 4.5t12.5 -10.5z" />
    <glyph glyph-name="Icircumflex" unicode="&#xce;" horiz-adv-x="326" 
d="M65 641q0 10 5 17t19 7h149q16 0 19.5 -9t3.5 -15v-617q0 -6 -3.5 -15t-19.5 -9h-149q-14 0 -19 7t-5 17v617zM30 690q-11 -8 -18 -10t-16 8l-39 42q-9 9 -10.5 15t9.5 17l132 120q10 9 17 15t28 6h72q21 0 27.5 -4.5t16.5 -13.5l134 -122q11 -11 9.5 -17t-10.5 -15
l-40 -43q-9 -10 -15.5 -8t-18.5 10l-142 89z" />
    <glyph glyph-name="Idieresis" unicode="&#xcf;" horiz-adv-x="326" 
d="M65 641q0 10 5 17t19 7h149q16 0 19.5 -9t3.5 -15v-617q0 -6 -3.5 -15t-19.5 -9h-149q-14 0 -19 7t-5 17v617zM56 685q-30 0 -47.5 7t-26.5 18.5t-11.5 26.5t-2.5 31q0 17 3.5 32t13.5 25.5t27 16.5t44 6q28 0 45 -5.5t27 -16t13.5 -25.5t3.5 -33q0 -17 -3 -32t-13 -26.5
t-27.5 -18t-45.5 -6.5zM277 685q-29 0 -46.5 7t-26.5 18.5t-12 26.5t-3 31q0 17 4 32t13.5 25.5t26.5 16.5t44 6q28 0 45.5 -5.5t27 -16t13 -25.5t3.5 -33q0 -17 -3 -32t-12.5 -26.5t-27 -18t-46.5 -6.5z" />
    <glyph glyph-name="Eth" unicode="&#xd0;" horiz-adv-x="680" 
d="M89 0q-14 0 -19 7t-5 17v257h-53q-23 0 -23 20v72q0 20 23 20h53v248q0 10 5 17t19 7h230q90 0 149.5 -27.5t94 -73t48.5 -105.5t14 -125t-13.5 -125.5t-48 -107t-94 -74t-150.5 -27.5h-230zM260 281v-120h37q67 0 96 43.5t29 122.5q0 39 -5 71.5t-18.5 56t-36 36.5
t-58.5 13h-44v-111h72q15 0 19 -5t4 -14v-73q0 -11 -4 -15.5t-19 -4.5h-72z" />
    <glyph glyph-name="Ntilde" unicode="&#xd1;" horiz-adv-x="688" 
d="M348 169l-90 134h-3v-279q0 -6 -3.5 -15t-19.5 -9h-143q-14 0 -19 7t-5 17v617q0 10 5 17t19 7h102q23 0 31.5 -6t16.5 -18l109 -162l81 -122l4 1v283q0 6 3.5 15t19.5 9h143q14 0 19 -7t5 -17v-617q0 -10 -5 -17t-19 -7h-101q-20 0 -31.5 7.5t-20.5 20.5zM425 690
q-17 0 -39 7t-44.5 16t-44 16t-37.5 7q-14 0 -29.5 -7t-32.5 -30q-7 -9 -11 -11t-18 5l-46 22q-1 0 -3.5 2t-4.5 5t-3 7.5t1 10.5q28 71 66.5 99.5t77.5 28.5q23 0 46 -7.5t44.5 -16t41 -16t35.5 -7.5q17 0 31.5 8.5t27.5 29.5q6 10 13 9t18 -7l45 -25q9 -5 12.5 -10
t-1.5 -16q-16 -36 -33 -59.5t-35 -37t-37.5 -18.5t-39.5 -5z" />
    <glyph glyph-name="Ograve" unicode="&#xd2;" horiz-adv-x="712" 
d="M657 341q0 -37 -3.5 -77.5t-15 -79t-32 -74t-54.5 -62t-82.5 -42t-116.5 -15.5t-116.5 15.5t-81.5 42.5t-53 62t-30.5 74t-13.5 79t-3 77q0 29 3.5 64.5t14.5 72.5t31 72t53.5 62.5t81 44t114.5 16.5q98 0 157.5 -30t92 -77.5t43.5 -106.5t11 -118zM454 330q0 48 -5 81.5
t-16.5 54.5t-30.5 30t-47 9q-51 0 -71.5 -40t-20.5 -135q0 -92 20 -131.5t72 -39.5q54 0 76.5 40t22.5 131zM266 911q5 6 14 8.5t21 -7.5l163 -135q11 -9 9 -15.5t-7 -13.5l-45 -57q-8 -9 -16 -7.5t-16 6.5l-180 102q-13 8 -14.5 17.5t6.5 18.5z" />
    <glyph glyph-name="Oacute" unicode="&#xd3;" horiz-adv-x="712" 
d="M657 341q0 -37 -3.5 -77.5t-15 -79t-32 -74t-54.5 -62t-82.5 -42t-116.5 -15.5t-116.5 15.5t-81.5 42.5t-53 62t-30.5 74t-13.5 79t-3 77q0 29 3.5 64.5t14.5 72.5t31 72t53.5 62.5t81 44t114.5 16.5q98 0 157.5 -30t92 -77.5t43.5 -106.5t11 -118zM454 330q0 48 -5 81.5
t-16.5 54.5t-30.5 30t-47 9q-51 0 -71.5 -40t-20.5 -135q0 -92 20 -131.5t72 -39.5q54 0 76.5 40t22.5 131zM562 810q7 -10 4.5 -19.5t-16.5 -14.5l-192 -78q-9 -4 -17 -4.5t-15 9.5l-37 63q-5 7 -5.5 13.5t11.5 14.5l179 113q14 8 22.5 4.5t12.5 -10.5z" />
    <glyph glyph-name="Ocircumflex" unicode="&#xd4;" horiz-adv-x="712" 
d="M657 341q0 -37 -3.5 -77.5t-15 -79t-32 -74t-54.5 -62t-82.5 -42t-116.5 -15.5t-116.5 15.5t-81.5 42.5t-53 62t-30.5 74t-13.5 79t-3 77q0 29 3.5 64.5t14.5 72.5t31 72t53.5 62.5t81 44t114.5 16.5q98 0 157.5 -30t92 -77.5t43.5 -106.5t11 -118zM454 330q0 48 -5 81.5
t-16.5 54.5t-30.5 30t-47 9q-51 0 -71.5 -40t-20.5 -135q0 -92 20 -131.5t72 -39.5q54 0 76.5 40t22.5 131zM224 690q-11 -8 -18 -10t-16 8l-39 42q-9 9 -10.5 15t9.5 17l132 120q10 9 17 15t28 6h72q21 0 27.5 -4.5t16.5 -13.5l134 -122q11 -11 9.5 -17t-10.5 -15l-40 -43
q-9 -10 -15.5 -8t-18.5 10l-142 89z" />
    <glyph glyph-name="Otilde" unicode="&#xd5;" horiz-adv-x="712" 
d="M657 341q0 -37 -3.5 -77.5t-15 -79t-32 -74t-54.5 -62t-82.5 -42t-116.5 -15.5t-116.5 15.5t-81.5 42.5t-53 62t-30.5 74t-13.5 79t-3 77q0 29 3.5 64.5t14.5 72.5t31 72t53.5 62.5t81 44t114.5 16.5q98 0 157.5 -30t92 -77.5t43.5 -106.5t11 -118zM454 330q0 48 -5 81.5
t-16.5 54.5t-30.5 30t-47 9q-51 0 -71.5 -40t-20.5 -135q0 -92 20 -131.5t72 -39.5q54 0 76.5 40t22.5 131zM445 691q-17 0 -39 7t-44.5 16t-44 16t-37.5 7q-14 0 -29.5 -7t-32.5 -30q-7 -9 -11 -11t-18 5l-46 22q-1 0 -3.5 2t-4.5 5t-3 7.5t1 10.5q28 71 66.5 99.5
t77.5 28.5q23 0 46 -7.5t44.5 -16t41 -16t35.5 -7.5q17 0 31.5 8.5t27.5 29.5q6 10 13 9t18 -7l45 -25q9 -5 12.5 -10t-1.5 -16q-16 -36 -33 -59.5t-35 -37t-37.5 -18.5t-39.5 -5z" />
    <glyph glyph-name="Odieresis" unicode="&#xd6;" horiz-adv-x="712" 
d="M657 341q0 -37 -3.5 -77.5t-15 -79t-32 -74t-54.5 -62t-82.5 -42t-116.5 -15.5t-116.5 15.5t-81.5 42.5t-53 62t-30.5 74t-13.5 79t-3 77q0 29 3.5 64.5t14.5 72.5t31 72t53.5 62.5t81 44t114.5 16.5q98 0 157.5 -30t92 -77.5t43.5 -106.5t11 -118zM454 330q0 48 -5 81.5
t-16.5 54.5t-30.5 30t-47 9q-51 0 -71.5 -40t-20.5 -135q0 -92 20 -131.5t72 -39.5q54 0 76.5 40t22.5 131zM246 685q-30 0 -47.5 7t-26.5 18.5t-11.5 26.5t-2.5 31q0 17 3.5 32t13.5 25.5t27 16.5t44 6q28 0 45 -5.5t27 -16t13.5 -25.5t3.5 -33q0 -17 -3 -32t-13 -26.5
t-27.5 -18t-45.5 -6.5zM467 685q-29 0 -46.5 7t-26.5 18.5t-12 26.5t-3 31q0 17 4 32t13.5 25.5t26.5 16.5t44 6q28 0 45.5 -5.5t27 -16t13 -25.5t3.5 -33q0 -17 -3 -32t-12.5 -26.5t-27 -18t-46.5 -6.5z" />
    <glyph glyph-name="multiply" unicode="&#xd7;" horiz-adv-x="616" 
d="M312 428l103 104q17 17 35 -1l73 -73q17 -17 0 -34l-104 -103l104 -103q17 -17 -1 -35l-73 -73q-17 -17 -34 0l-103 104l-105 -105q-11 -11 -17.5 -9.5t-14.5 9.5l-74 73q-9 9 -10.5 16t9.5 18l105 105l-105 105q-11 11 -9.5 17.5t9.5 14.5l73 74q9 9 16 10.5t18 -9.5z
" />
    <glyph glyph-name="Oslash" unicode="&#xd8;" horiz-adv-x="712" 
d="M657 341q0 -37 -3.5 -77.5t-15 -79t-32 -74t-54.5 -62t-82.5 -42t-116.5 -15.5q-57 0 -99 10.5t-74 29.5l-23 -30q-8 -10 -14 -12t-17 6l-27 22q-9 8 -8.5 14t8.5 16l25 32q-23 27 -36.5 59.5t-20.5 67t-9.5 69t-2.5 66.5q0 29 3.5 64.5t14.5 72.5t31 72t53.5 62.5t81 44
t114.5 16.5q63 0 109.5 -13t79.5 -35l19 24q10 12 15 13.5t14 -6.5l28 -22q10 -8 10 -13.5t-9 -17.5l-22 -29q36 -49 48 -110t12 -123zM263 330q0 -38 3 -66l161 210q-23 31 -72 31q-51 0 -71.5 -40t-20.5 -135zM454 330q0 15 -0.5 29t-1.5 26l-157 -204q21 -22 60 -22
q54 0 76.5 40t22.5 131z" />
    <glyph glyph-name="Ugrave" unicode="&#xd9;" horiz-adv-x="678" 
d="M338 158q80 0 80 99l-1 384q0 10 5 17t19 7h148q16 0 19.5 -9t3.5 -15v-390q0 -29 -3.5 -58.5t-16.5 -61.5q-16 -38 -43 -64.5t-61 -43.5t-72.5 -25t-77.5 -8q-72 0 -124 21t-85 57q-32 35 -47.5 81.5t-15.5 101.5v390q0 10 5 17t19 7h148q16 0 19.5 -9t3.5 -15v-384
q0 -51 19.5 -75t57.5 -24zM228 911q5 6 14 8.5t21 -7.5l163 -135q11 -9 9 -15.5t-7 -13.5l-45 -57q-8 -9 -16 -7.5t-16 6.5l-180 102q-13 8 -14.5 17.5t6.5 18.5z" />
    <glyph glyph-name="Uacute" unicode="&#xda;" horiz-adv-x="678" 
d="M338 158q80 0 80 99l-1 384q0 10 5 17t19 7h148q16 0 19.5 -9t3.5 -15v-390q0 -29 -3.5 -58.5t-16.5 -61.5q-16 -38 -43 -64.5t-61 -43.5t-72.5 -25t-77.5 -8q-72 0 -124 21t-85 57q-32 35 -47.5 81.5t-15.5 101.5v390q0 10 5 17t19 7h148q16 0 19.5 -9t3.5 -15v-384
q0 -51 19.5 -75t57.5 -24zM549 810q7 -10 4.5 -19.5t-16.5 -14.5l-192 -78q-9 -4 -17 -4.5t-15 9.5l-37 63q-5 7 -5.5 13.5t11.5 14.5l179 113q14 8 22.5 4.5t12.5 -10.5z" />
    <glyph glyph-name="Ucircumflex" unicode="&#xdb;" horiz-adv-x="678" 
d="M338 158q80 0 80 99l-1 384q0 10 5 17t19 7h148q16 0 19.5 -9t3.5 -15v-390q0 -29 -3.5 -58.5t-16.5 -61.5q-16 -38 -43 -64.5t-61 -43.5t-72.5 -25t-77.5 -8q-72 0 -124 21t-85 57q-32 35 -47.5 81.5t-15.5 101.5v390q0 10 5 17t19 7h148q16 0 19.5 -9t3.5 -15v-384
q0 -51 19.5 -75t57.5 -24zM203 690q-11 -8 -18 -10t-16 8l-39 42q-9 9 -10.5 15t9.5 17l132 120q10 9 17 15t28 6h72q21 0 27.5 -4.5t16.5 -13.5l134 -122q11 -11 9.5 -17t-10.5 -15l-40 -43q-9 -10 -15.5 -8t-18.5 10l-142 89z" />
    <glyph glyph-name="Udieresis" unicode="&#xdc;" horiz-adv-x="678" 
d="M338 158q80 0 80 99l-1 384q0 10 5 17t19 7h148q16 0 19.5 -9t3.5 -15v-390q0 -29 -3.5 -58.5t-16.5 -61.5q-16 -38 -43 -64.5t-61 -43.5t-72.5 -25t-77.5 -8q-72 0 -124 21t-85 57q-32 35 -47.5 81.5t-15.5 101.5v390q0 10 5 17t19 7h148q16 0 19.5 -9t3.5 -15v-384
q0 -51 19.5 -75t57.5 -24zM226 685q-30 0 -47.5 7t-26.5 18.5t-11.5 26.5t-2.5 31q0 17 3.5 32t13.5 25.5t27 16.5t44 6q28 0 45 -5.5t27 -16t13.5 -25.5t3.5 -33q0 -17 -3 -32t-13 -26.5t-27.5 -18t-45.5 -6.5zM447 685q-29 0 -46.5 7t-26.5 18.5t-12 26.5t-3 31q0 17 4 32
t13.5 25.5t26.5 16.5t44 6q28 0 45.5 -5.5t27 -16t13 -25.5t3.5 -33q0 -17 -3 -32t-12.5 -26.5t-27 -18t-46.5 -6.5z" />
    <glyph glyph-name="Yacute" unicode="&#xdd;" horiz-adv-x="685" 
d="M234 220l-222 416q-7 12 -4 21t17 9h147q20 0 29 -5.5t18 -23.5l55 -111l61 -127h6l62 127l51 101q10 18 18.5 28.5t28.5 10.5h152q14 0 16.5 -8t-2.5 -17l-237 -421v-196q0 -6 -3.5 -15t-19.5 -9h-149q-14 0 -19 7t-5 17v196zM536 810q7 -10 4.5 -19.5t-16.5 -14.5
l-192 -78q-9 -4 -17 -4.5t-15 9.5l-37 63q-5 7 -5.5 13.5t11.5 14.5l179 113q14 8 22.5 4.5t12.5 -10.5z" />
    <glyph glyph-name="Thorn" unicode="&#xde;" horiz-adv-x="600" 
d="M261 24q0 -6 -3.5 -15t-19.5 -9h-149q-14 0 -19 7t-5 17v617q0 10 5 17t19 7h149q16 0 19.5 -9t3.5 -15v-81h78q48 0 91 -13t75.5 -39.5t51 -66.5t18.5 -94q0 -35 -9.5 -73.5t-35 -70.5t-72 -53.5t-119.5 -21.5h-78v-104zM373 342q0 29 -17.5 43t-46.5 14h-48v-115h48
q11 0 22.5 2.5t20.5 9t15 17.5t6 29z" />
    <glyph glyph-name="germandbls" unicode="&#xdf;" horiz-adv-x="574" 
d="M232 24q0 -6 -3.5 -15t-19.5 -9h-141q-14 0 -19 7t-5 17v463q0 58 20 101.5t52.5 71.5t73.5 42t84 14q47 0 87 -12t69 -35.5t45.5 -58.5t16.5 -82q0 -10 -2 -25t-7 -32.5t-14.5 -34.5t-24.5 -30q29 -12 47 -32t28.5 -44.5t14.5 -52t4 -55.5q0 -133 -59 -190.5t-172 -44.5
q-8 1 -20 7t-11 26l5 92q1 13 4 14.5t14 6.5q25 10 36.5 30.5t11.5 70.5q0 36 -12.5 57.5t-53.5 28.5q-13 2 -16.5 6t-3.5 12v63q0 14 5 19t13 8q29 13 35.5 32.5t6.5 45.5q0 20 -9 38t-37 18q-17 0 -30 -14t-13 -45v-479z" />
    <glyph glyph-name="agrave" unicode="&#xe0;" horiz-adv-x="600" 
d="M332 195h-65q-19 0 -30 -9t-11 -32q0 -15 6.5 -21t23.5 -6t38.5 7.5t37.5 16.5v44zM354 63q-20 -22 -44.5 -36t-49 -21.5t-46 -10.5t-35.5 -3q-47 0 -75 13.5t-43 35.5t-20 49t-5 53q-1 48 14 80t41 51t62 27t78 8h105v8q0 10 -2.5 17.5t-10 13t-22.5 8t-40 2.5
q-9 0 -24.5 -1t-33.5 -2t-36 -3t-32 -3q-13 -2 -21 -2.5t-13 1.5t-7.5 7t-4.5 14l-14 64q-3 15 3.5 25.5t35.5 21.5q18 7 41.5 12t47.5 8t47 4.5t40 1.5q75 0 120 -13t69.5 -37.5t32.5 -61t8 -83.5v-128q0 -32 7.5 -39.5t30.5 -10.5q14 -2 18 -5.5t4 -14.5v-82q0 -13 -9 -19
t-24 -10q-18 -5 -36 -6.5t-38 -1.5q-19 0 -37.5 2.5t-34 10t-27.5 20.5t-18 35zM235 795q6 5 15.5 5t19.5 -12l129 -167q9 -11 6.5 -17.5t-9.5 -11.5l-54 -48q-8 -8 -16 -5t-15 10l-157 141q-20 20 1 37z" />
    <glyph glyph-name="aacute" unicode="&#xe1;" horiz-adv-x="600" 
d="M332 195h-65q-19 0 -30 -9t-11 -32q0 -15 6.5 -21t23.5 -6t38.5 7.5t37.5 16.5v44zM354 63q-20 -22 -44.5 -36t-49 -21.5t-46 -10.5t-35.5 -3q-47 0 -75 13.5t-43 35.5t-20 49t-5 53q-1 48 14 80t41 51t62 27t78 8h105v8q0 10 -2.5 17.5t-10 13t-22.5 8t-40 2.5
q-9 0 -24.5 -1t-33.5 -2t-36 -3t-32 -3q-13 -2 -21 -2.5t-13 1.5t-7.5 7t-4.5 14l-14 64q-3 15 3.5 25.5t35.5 21.5q18 7 41.5 12t47.5 8t47 4.5t40 1.5q75 0 120 -13t69.5 -37.5t32.5 -61t8 -83.5v-128q0 -32 7.5 -39.5t30.5 -10.5q14 -2 18 -5.5t4 -14.5v-82q0 -13 -9 -19
t-24 -10q-18 -5 -36 -6.5t-38 -1.5q-19 0 -37.5 2.5t-34 10t-27.5 20.5t-18 35zM451 745q11 -6 13 -15.5t-7 -21.5l-131 -160q-6 -8 -13 -12t-17 2l-63 36q-8 5 -11.5 10.5t3.5 17.5l103 185q8 14 17 15t16 -3z" />
    <glyph glyph-name="acircumflex" unicode="&#xe2;" horiz-adv-x="600" 
d="M332 195h-65q-19 0 -30 -9t-11 -32q0 -15 6.5 -21t23.5 -6t38.5 7.5t37.5 16.5v44zM354 63q-20 -22 -44.5 -36t-49 -21.5t-46 -10.5t-35.5 -3q-47 0 -75 13.5t-43 35.5t-20 49t-5 53q-1 48 14 80t41 51t62 27t78 8h105v8q0 10 -2.5 17.5t-10 13t-22.5 8t-40 2.5
q-9 0 -24.5 -1t-33.5 -2t-36 -3t-32 -3q-13 -2 -21 -2.5t-13 1.5t-7.5 7t-4.5 14l-14 64q-3 15 3.5 25.5t35.5 21.5q18 7 41.5 12t47.5 8t47 4.5t40 1.5q75 0 120 -13t69.5 -37.5t32.5 -61t8 -83.5v-128q0 -32 7.5 -39.5t30.5 -10.5q14 -2 18 -5.5t4 -14.5v-82q0 -13 -9 -19
t-24 -10q-18 -5 -36 -6.5t-38 -1.5q-19 0 -37.5 2.5t-34 10t-27.5 20.5t-18 35zM146 525q-11 -8 -18 -10t-16 8l-41 41q-9 9 -10.5 15t9.5 17l134 140q9 10 16.5 15.5t28.5 5.5h72q21 0 28 -4t16 -14l136 -144q11 -11 9.5 -17t-10.5 -15l-42 -40q-10 -9 -16.5 -7.5
t-17.5 9.5l-142 99z" />
    <glyph glyph-name="atilde" unicode="&#xe3;" horiz-adv-x="600" 
d="M332 195h-65q-19 0 -30 -9t-11 -32q0 -15 6.5 -21t23.5 -6t38.5 7.5t37.5 16.5v44zM354 63q-20 -22 -44.5 -36t-49 -21.5t-46 -10.5t-35.5 -3q-47 0 -75 13.5t-43 35.5t-20 49t-5 53q-1 48 14 80t41 51t62 27t78 8h105v8q0 10 -2.5 17.5t-10 13t-22.5 8t-40 2.5
q-9 0 -24.5 -1t-33.5 -2t-36 -3t-32 -3q-13 -2 -21 -2.5t-13 1.5t-7.5 7t-4.5 14l-14 64q-3 15 3.5 25.5t35.5 21.5q18 7 41.5 12t47.5 8t47 4.5t40 1.5q75 0 120 -13t69.5 -37.5t32.5 -61t8 -83.5v-128q0 -32 7.5 -39.5t30.5 -10.5q14 -2 18 -5.5t4 -14.5v-82q0 -13 -9 -19
t-24 -10q-18 -5 -36 -6.5t-38 -1.5q-19 0 -37.5 2.5t-34 10t-27.5 20.5t-18 35zM388 541q-17 0 -39 7t-44.5 16t-44 16t-37.5 7q-14 0 -29.5 -7t-32.5 -30q-7 -9 -11 -11t-18 5l-46 22q-1 0 -3.5 2t-4.5 5t-3 7.5t1 10.5q28 71 66.5 99.5t77.5 28.5q23 0 46 -7.5t44.5 -16
t41 -16t35.5 -7.5q17 0 31.5 8.5t27.5 29.5q6 10 13 9t18 -7l45 -25q9 -5 12.5 -10t-1.5 -16q-16 -36 -33 -59.5t-35 -37t-37.5 -18.5t-39.5 -5z" />
    <glyph glyph-name="adieresis" unicode="&#xe4;" horiz-adv-x="600" 
d="M332 195h-65q-19 0 -30 -9t-11 -32q0 -15 6.5 -21t23.5 -6t38.5 7.5t37.5 16.5v44zM354 63q-20 -22 -44.5 -36t-49 -21.5t-46 -10.5t-35.5 -3q-47 0 -75 13.5t-43 35.5t-20 49t-5 53q-1 48 14 80t41 51t62 27t78 8h105v8q0 10 -2.5 17.5t-10 13t-22.5 8t-40 2.5
q-9 0 -24.5 -1t-33.5 -2t-36 -3t-32 -3q-13 -2 -21 -2.5t-13 1.5t-7.5 7t-4.5 14l-14 64q-3 15 3.5 25.5t35.5 21.5q18 7 41.5 12t47.5 8t47 4.5t40 1.5q75 0 120 -13t69.5 -37.5t32.5 -61t8 -83.5v-128q0 -32 7.5 -39.5t30.5 -10.5q14 -2 18 -5.5t4 -14.5v-82q0 -13 -9 -19
t-24 -10q-18 -5 -36 -6.5t-38 -1.5q-19 0 -37.5 2.5t-34 10t-27.5 20.5t-18 35zM186 537q-30 0 -47.5 7t-26.5 18.5t-11.5 26.5t-2.5 31q0 17 3.5 32t13.5 25.5t27 16.5t44 6q28 0 45 -5.5t27 -16t13.5 -25.5t3.5 -33q0 -17 -3 -32t-13 -26.5t-27.5 -18t-45.5 -6.5zM407 537
q-29 0 -46.5 7t-26.5 18.5t-12 26.5t-3 31q0 17 4 32t13.5 25.5t26.5 16.5t44 6q28 0 45.5 -5.5t27 -16t13 -25.5t3.5 -33q0 -17 -3 -32t-12.5 -26.5t-27 -18t-46.5 -6.5z" />
    <glyph glyph-name="aring" unicode="&#xe5;" horiz-adv-x="600" 
d="M332 195h-65q-19 0 -30 -9t-11 -32q0 -15 6.5 -21t23.5 -6t38.5 7.5t37.5 16.5v44zM354 63q-20 -22 -44.5 -36t-49 -21.5t-46 -10.5t-35.5 -3q-47 0 -75 13.5t-43 35.5t-20 49t-5 53q-1 48 14 80t41 51t62 27t78 8h105v8q0 10 -2.5 17.5t-10 13t-22.5 8t-40 2.5
q-9 0 -24.5 -1t-33.5 -2t-36 -3t-32 -3q-13 -2 -21 -2.5t-13 1.5t-7.5 7t-4.5 14l-14 64q-3 15 3.5 25.5t35.5 21.5q18 7 41.5 12t47.5 8t47 4.5t40 1.5q75 0 120 -13t69.5 -37.5t32.5 -61t8 -83.5v-128q0 -32 7.5 -39.5t30.5 -10.5q14 -2 18 -5.5t4 -14.5v-82q0 -13 -9 -19
t-24 -10q-18 -5 -36 -6.5t-38 -1.5q-19 0 -37.5 2.5t-34 10t-27.5 20.5t-18 35zM305 534q-27 0 -52.5 10t-45 27.5t-31 42t-11.5 54.5q0 29 11.5 53.5t31 42t45 27.5t52.5 10q28 0 53 -11t43.5 -29.5t29 -42.5t10.5 -50q0 -27 -10.5 -51.5t-29 -43t-43.5 -29t-53 -10.5z
M305 713q-18 0 -31 -13t-13 -32q0 -21 12.5 -33.5t31.5 -12.5q17 0 30 13t13 33q0 19 -13 32t-30 13z" />
    <glyph glyph-name="ae" unicode="&#xe6;" horiz-adv-x="859" 
d="M533 202q2 -21 10 -33t21 -17t30 -6t37 -1t47.5 2t60.5 7q23 3 29 -1t10 -25l10 -59q5 -23 0.5 -34t-33.5 -22q-15 -5 -35.5 -9t-42.5 -7t-43.5 -4.5t-39.5 -1.5q-75 0 -122.5 18t-75.5 50q-46 -38 -96.5 -52.5t-102.5 -14.5t-82.5 13.5t-46 35.5t-20 49t-4.5 53
q-1 48 14 80t41 51t62 27t78 8h105v8q0 10 -2.5 17.5t-10 13t-22.5 8t-40 2.5q-9 0 -24.5 -1t-33.5 -2t-36 -3t-32 -3q-13 -2 -21 -2.5t-13 1.5t-7.5 7t-4.5 14l-14 64q-3 15 3.5 25.5t35.5 21.5q18 7 41.5 12t47.5 8t47 4.5t40 1.5q54 0 91.5 -9t64.5 -33q24 20 56 31
t73 11q75 0 121.5 -21t72 -54.5t34.5 -74.5t9 -81q0 -34 -13 -53.5t-47 -19.5h-227zM351 149q-3 13 -4.5 26t-3.5 27h-57q-31 0 -41.5 -12.5t-10.5 -35.5q0 -15 6.5 -21t23.5 -6q16 0 43 7t44 15zM584 363q-19 0 -31.5 -15.5t-14.5 -39.5h87q0 20 -10.5 37.5t-30.5 17.5z
" />
    <glyph glyph-name="ccedilla" unicode="&#xe7;" horiz-adv-x="502" 
d="M283 -134q0 11 -5 16t-14.5 7.5t-24.5 3t-34 1.5q-24 3 -15 26l26 76q-57 9 -91.5 34t-53.5 59.5t-25 76t-6 84.5q0 45 9 90.5t35 82t73.5 60t124.5 23.5q45 0 86 -6t73 -20q16 -7 23 -16.5t3 -28.5l-14 -77q-2 -10 -4 -15t-6.5 -6.5t-12 -1t-20.5 1.5q-30 3 -52 4.5
t-44 1.5q-43 0 -63.5 -23t-20.5 -67q0 -56 17.5 -78t62.5 -22q20 0 50 2t63 6q19 2 24 0t9 -21l13 -70q5 -23 0.5 -34t-33.5 -22q-15 -5 -33 -9t-37.5 -7t-39 -5t-36.5 -2l-15 -40q36 -2 57.5 -10t33 -20t15.5 -27.5t4 -30.5q0 -23 -8.5 -44t-27.5 -37t-48 -25.5t-69 -9.5
q-8 0 -19.5 0.5t-25 2t-26 4t-21.5 5.5q-5 2 -8 5t-1 8l10 51q1 7 13 6q16 -2 34.5 -4t32.5 -2q12 0 23.5 1.5t20 6t13.5 13t5 22.5z" />
    <glyph glyph-name="egrave" unicode="&#xe8;" horiz-adv-x="553" 
d="M231 207q2 -21 10 -33.5t21 -19t30 -8t37 -1.5t47.5 2t60.5 7q24 3 29.5 -0.5t9.5 -25.5l10 -59q5 -23 0.5 -34t-33.5 -22q-15 -5 -35.5 -9t-42.5 -7t-43.5 -4.5t-39.5 -1.5q-79 0 -128 20.5t-76.5 55t-37.5 80.5t-10 96q0 36 6.5 81.5t31 86t72.5 68t131 27.5
q75 0 121.5 -21t72 -54.5t34.5 -74.5t9 -81q0 -34 -13 -51t-47 -17h-227zM281 367q-19 0 -32 -14t-15 -43h91q0 29 -12 43t-32 14zM216 795q6 5 15.5 5t19.5 -12l129 -167q9 -11 6.5 -17.5t-9.5 -11.5l-54 -48q-8 -8 -16 -5t-15 10l-157 141q-20 20 1 37z" />
    <glyph glyph-name="eacute" unicode="&#xe9;" horiz-adv-x="553" 
d="M231 207q2 -21 10 -33.5t21 -19t30 -8t37 -1.5t47.5 2t60.5 7q24 3 29.5 -0.5t9.5 -25.5l10 -59q5 -23 0.5 -34t-33.5 -22q-15 -5 -35.5 -9t-42.5 -7t-43.5 -4.5t-39.5 -1.5q-79 0 -128 20.5t-76.5 55t-37.5 80.5t-10 96q0 36 6.5 81.5t31 86t72.5 68t131 27.5
q75 0 121.5 -21t72 -54.5t34.5 -74.5t9 -81q0 -34 -13 -51t-47 -17h-227zM281 367q-19 0 -32 -14t-15 -43h91q0 29 -12 43t-32 14zM436 745q11 -6 13 -15.5t-7 -21.5l-131 -160q-6 -8 -13 -12t-17 2l-63 36q-8 5 -11.5 10.5t3.5 17.5l103 185q8 14 17 15t16 -3z" />
    <glyph glyph-name="ecircumflex" unicode="&#xea;" horiz-adv-x="553" 
d="M231 207q2 -21 10 -33.5t21 -19t30 -8t37 -1.5t47.5 2t60.5 7q24 3 29.5 -0.5t9.5 -25.5l10 -59q5 -23 0.5 -34t-33.5 -22q-15 -5 -35.5 -9t-42.5 -7t-43.5 -4.5t-39.5 -1.5q-79 0 -128 20.5t-76.5 55t-37.5 80.5t-10 96q0 36 6.5 81.5t31 86t72.5 68t131 27.5
q75 0 121.5 -21t72 -54.5t34.5 -74.5t9 -81q0 -34 -13 -51t-47 -17h-227zM281 367q-19 0 -32 -14t-15 -43h91q0 29 -12 43t-32 14zM143 525q-11 -8 -18 -10t-16 8l-41 41q-9 9 -10.5 15t9.5 17l134 140q9 10 16.5 15.5t28.5 5.5h72q21 0 28 -4t16 -14l136 -144
q11 -11 9.5 -17t-10.5 -15l-42 -40q-10 -9 -16.5 -7.5t-17.5 9.5l-142 99z" />
    <glyph glyph-name="edieresis" unicode="&#xeb;" horiz-adv-x="553" 
d="M231 207q2 -21 10 -33.5t21 -19t30 -8t37 -1.5t47.5 2t60.5 7q24 3 29.5 -0.5t9.5 -25.5l10 -59q5 -23 0.5 -34t-33.5 -22q-15 -5 -35.5 -9t-42.5 -7t-43.5 -4.5t-39.5 -1.5q-79 0 -128 20.5t-76.5 55t-37.5 80.5t-10 96q0 36 6.5 81.5t31 86t72.5 68t131 27.5
q75 0 121.5 -21t72 -54.5t34.5 -74.5t9 -81q0 -34 -13 -51t-47 -17h-227zM281 367q-19 0 -32 -14t-15 -43h91q0 29 -12 43t-32 14zM172 537q-30 0 -47.5 7t-26.5 18.5t-11.5 26.5t-2.5 31q0 17 3.5 32t13.5 25.5t27 16.5t44 6q28 0 45 -5.5t27 -16t13.5 -25.5t3.5 -33
q0 -17 -3 -32t-13 -26.5t-27.5 -18t-45.5 -6.5zM393 537q-29 0 -46.5 7t-26.5 18.5t-12 26.5t-3 31q0 17 4 32t13.5 25.5t26.5 16.5t44 6q28 0 45.5 -5.5t27 -16t13 -25.5t3.5 -33q0 -17 -3 -32t-12.5 -26.5t-27 -18t-46.5 -6.5z" />
    <glyph glyph-name="igrave" unicode="&#xec;" horiz-adv-x="288" 
d="M238 24q0 -6 -3.5 -15t-19.5 -9h-141q-14 0 -19 7t-5 17v449q0 10 5 17t19 7h141q16 0 19.5 -9t3.5 -15v-449zM57 795q6 5 15.5 5t19.5 -12l129 -167q9 -11 6.5 -17.5t-9.5 -11.5l-54 -48q-8 -8 -16 -5t-15 10l-157 141q-20 20 1 37z" />
    <glyph glyph-name="iacute" unicode="&#xed;" horiz-adv-x="323" 
d="M238 24q0 -6 -3.5 -15t-19.5 -9h-141q-14 0 -19 7t-5 17v449q0 10 5 17t19 7h141q16 0 19.5 -9t3.5 -15v-449zM325 745q11 -6 13 -15.5t-7 -21.5l-131 -160q-6 -8 -13 -12t-17 2l-63 36q-8 5 -11.5 10.5t3.5 17.5l103 185q8 14 17 15t16 -3z" />
    <glyph glyph-name="icircumflex" unicode="&#xee;" horiz-adv-x="431" 
d="M306 24q0 -6 -3.5 -15t-19.5 -9h-141q-14 0 -19 7t-5 17v449q0 10 5 17t19 7h141q16 0 19.5 -9t3.5 -15v-449zM76 525q-11 -8 -18 -10t-16 8l-41 41q-9 9 -10.5 15t9.5 17l134 140q9 10 16.5 15.5t28.5 5.5h72q21 0 28 -4t16 -14l136 -144q11 -11 9.5 -17t-10.5 -15
l-42 -40q-10 -9 -16.5 -7.5t-17.5 9.5l-142 99z" />
    <glyph glyph-name="idieresis" unicode="&#xef;" horiz-adv-x="378" 
d="M283 24q0 -6 -3.5 -15t-19.5 -9h-141q-14 0 -19 7t-5 17v449q0 10 5 17t19 7h141q16 0 19.5 -9t3.5 -15v-449zM78 537q-30 0 -47.5 7t-26.5 18.5t-11.5 26.5t-2.5 31q0 17 3.5 32t13.5 25.5t27 16.5t44 6q28 0 45 -5.5t27 -16t13.5 -25.5t3.5 -33q0 -17 -3 -32t-13 -26.5
t-27.5 -18t-45.5 -6.5zM299 537q-29 0 -46.5 7t-26.5 18.5t-12 26.5t-3 31q0 17 4 32t13.5 25.5t26.5 16.5t44 6q28 0 45.5 -5.5t27 -16t13 -25.5t3.5 -33q0 -17 -3 -32t-12.5 -26.5t-27 -18t-46.5 -6.5z" />
    <glyph glyph-name="eth" unicode="&#xf0;" horiz-adv-x="565" 
d="M453 646q19 -20 33 -50.5t23.5 -68t14.5 -80t5 -86.5q0 -69 -6.5 -135.5t-32 -119t-76.5 -84.5t-140 -32q-79 0 -125 24t-69.5 60t-30 78t-6.5 78q1 20 4.5 44.5t13 50.5t26 50.5t43 44t63.5 31t87 11.5q17 0 40.5 -3t38.5 -13q0 8 -1.5 20t-3.5 24.5t-5.5 24.5t-7.5 19
l-36 -35q-8 -8 -13.5 -9t-13.5 7l-28 28q-7 6 -5.5 10.5t5.5 9.5l34 34q-24 8 -53 8q-18 0 -33 -0.5t-32 -2.5q-9 -1 -13.5 0.5t-6.5 10.5l-11 84q-2 12 2.5 18.5t15.5 10.5q15 6 32.5 10t36.5 6t37.5 2t33.5 -1q63 -5 104 -31l46 46q8 9 13 9.5t13 -7.5l28 -26q10 -8 9 -12
t-8 -12zM330 227q1 39 -9.5 58.5t-39.5 19.5q-50 0 -52 -80q-1 -43 11 -59t36 -16q29 0 41.5 22.5t12.5 54.5z" />
    <glyph glyph-name="ntilde" unicode="&#xf1;" horiz-adv-x="580" 
d="M243 454l2 -1q38 29 79.5 40.5t69.5 11.5q55 0 86 -19.5t46 -49.5t18.5 -65.5t3.5 -68.5v-278q0 -6 -3.5 -15t-19.5 -9h-141q-14 0 -19 7t-5 17v246q0 39 -14 49.5t-37 10.5q-17 0 -34.5 -5.5t-31.5 -10.5v-290q0 -6 -3.5 -15t-19.5 -9h-141q-14 0 -19 7t-5 17v449
q0 10 5 17t19 7h141q16 0 19.5 -9t3.5 -15v-19zM368 541q-17 0 -39 7t-44.5 16t-44 16t-37.5 7q-14 0 -29.5 -7t-32.5 -30q-7 -9 -11 -11t-18 5l-46 22q-1 0 -3.5 2t-4.5 5t-3 7.5t1 10.5q28 71 66.5 99.5t77.5 28.5q23 0 46 -7.5t44.5 -16t41 -16t35.5 -7.5q17 0 31.5 8.5
t27.5 29.5q6 10 13 9t18 -7l45 -25q9 -5 12.5 -10t-1.5 -16q-16 -36 -33 -59.5t-35 -37t-37.5 -18.5t-39.5 -5z" />
    <glyph glyph-name="ograve" unicode="&#xf2;" horiz-adv-x="571" 
d="M531 255q0 -40 -6.5 -86t-31.5 -85.5t-74.5 -65.5t-136.5 -26q-85 0 -133.5 26t-72.5 65.5t-30 85.5t-6 86q0 33 7.5 76.5t32.5 82t73 65.5t129 27t130 -23t75.5 -59.5t35 -81t8.5 -87.5zM340 249q0 50 -10 74t-46 24q-31 0 -42.5 -25.5t-11.5 -72.5q0 -53 10.5 -76
t41.5 -23q35 0 46.5 24.5t11.5 74.5zM209 795q6 5 15.5 5t19.5 -12l129 -167q9 -11 6.5 -17.5t-9.5 -11.5l-54 -48q-8 -8 -16 -5t-15 10l-157 141q-20 20 1 37z" />
    <glyph glyph-name="oacute" unicode="&#xf3;" horiz-adv-x="571" 
d="M531 255q0 -40 -6.5 -86t-31.5 -85.5t-74.5 -65.5t-136.5 -26q-85 0 -133.5 26t-72.5 65.5t-30 85.5t-6 86q0 33 7.5 76.5t32.5 82t73 65.5t129 27t130 -23t75.5 -59.5t35 -81t8.5 -87.5zM340 249q0 50 -10 74t-46 24q-31 0 -42.5 -25.5t-11.5 -72.5q0 -53 10.5 -76
t41.5 -23q35 0 46.5 24.5t11.5 74.5zM448 745q11 -6 13 -15.5t-7 -21.5l-131 -160q-6 -8 -13 -12t-17 2l-63 36q-8 5 -11.5 10.5t3.5 17.5l103 185q8 14 17 15t16 -3z" />
    <glyph glyph-name="ocircumflex" unicode="&#xf4;" horiz-adv-x="571" 
d="M531 255q0 -40 -6.5 -86t-31.5 -85.5t-74.5 -65.5t-136.5 -26q-85 0 -133.5 26t-72.5 65.5t-30 85.5t-6 86q0 33 7.5 76.5t32.5 82t73 65.5t129 27t130 -23t75.5 -59.5t35 -81t8.5 -87.5zM340 249q0 50 -10 74t-46 24q-31 0 -42.5 -25.5t-11.5 -72.5q0 -53 10.5 -76
t41.5 -23q35 0 46.5 24.5t11.5 74.5zM148 525q-11 -8 -18 -10t-16 8l-41 41q-9 9 -10.5 15t9.5 17l134 140q9 10 16.5 15.5t28.5 5.5h72q21 0 28 -4t16 -14l136 -144q11 -11 9.5 -17t-10.5 -15l-42 -40q-10 -9 -16.5 -7.5t-17.5 9.5l-142 99z" />
    <glyph glyph-name="otilde" unicode="&#xf5;" horiz-adv-x="571" 
d="M531 255q0 -40 -6.5 -86t-31.5 -85.5t-74.5 -65.5t-136.5 -26q-85 0 -133.5 26t-72.5 65.5t-30 85.5t-6 86q0 33 7.5 76.5t32.5 82t73 65.5t129 27t130 -23t75.5 -59.5t35 -81t8.5 -87.5zM340 249q0 50 -10 74t-46 24q-31 0 -42.5 -25.5t-11.5 -72.5q0 -53 10.5 -76
t41.5 -23q35 0 46.5 24.5t11.5 74.5zM369 541q-17 0 -39 7t-44.5 16t-44 16t-37.5 7q-14 0 -29.5 -7t-32.5 -30q-7 -9 -11 -11t-18 5l-46 22q-1 0 -3.5 2t-4.5 5t-3 7.5t1 10.5q28 71 66.5 99.5t77.5 28.5q23 0 46 -7.5t44.5 -16t41 -16t35.5 -7.5q17 0 31.5 8.5t27.5 29.5
q6 10 13 9t18 -7l45 -25q9 -5 12.5 -10t-1.5 -16q-16 -36 -33 -59.5t-35 -37t-37.5 -18.5t-39.5 -5z" />
    <glyph glyph-name="odieresis" unicode="&#xf6;" horiz-adv-x="571" 
d="M531 255q0 -40 -6.5 -86t-31.5 -85.5t-74.5 -65.5t-136.5 -26q-85 0 -133.5 26t-72.5 65.5t-30 85.5t-6 86q0 33 7.5 76.5t32.5 82t73 65.5t129 27t130 -23t75.5 -59.5t35 -81t8.5 -87.5zM340 249q0 50 -10 74t-46 24q-31 0 -42.5 -25.5t-11.5 -72.5q0 -53 10.5 -76
t41.5 -23q35 0 46.5 24.5t11.5 74.5zM178 537q-30 0 -47.5 7t-26.5 18.5t-11.5 26.5t-2.5 31q0 17 3.5 32t13.5 25.5t27 16.5t44 6q28 0 45 -5.5t27 -16t13.5 -25.5t3.5 -33q0 -17 -3 -32t-13 -26.5t-27.5 -18t-45.5 -6.5zM399 537q-29 0 -46.5 7t-26.5 18.5t-12 26.5t-3 31
q0 17 4 32t13.5 25.5t26.5 16.5t44 6q28 0 45.5 -5.5t27 -16t13 -25.5t3.5 -33q0 -17 -3 -32t-12.5 -26.5t-27 -18t-46.5 -6.5z" />
    <glyph glyph-name="divide" unicode="&#xf7;" horiz-adv-x="616" 
d="M91 256q-24 0 -24 25v86q0 24 24 24h436q15 0 19 -6t4 -17v-87q0 -13 -4 -19t-19 -6h-436zM306 423q-32 0 -50.5 7.5t-28 19.5t-12.5 28t-3 33q0 18 4 34t14.5 27t28.5 17.5t47 6.5t47.5 -6t29 -17t14 -27t3.5 -35q0 -18 -3.5 -34t-13.5 -28t-28.5 -19t-48.5 -7zM306 45
q-32 0 -50.5 7.5t-28 19.5t-12.5 28t-3 33q0 18 4 34t14.5 27t28.5 17.5t47 6.5t47.5 -6t29 -17t14 -27t3.5 -35q0 -18 -3.5 -34t-13.5 -28t-28.5 -19t-48.5 -7z" />
    <glyph glyph-name="oslash" unicode="&#xf8;" horiz-adv-x="571" 
d="M531 255q0 -40 -6.5 -86t-31.5 -85.5t-74.5 -65.5t-136.5 -26q-49 0 -85 9t-62 25l-28 -33q-8 -10 -14 -12t-17 6l-17 14q-9 8 -8.5 14t8.5 16l30 35q-33 42 -41 93t-8 96q0 33 7.5 76.5t32.5 82t73 65.5t129 27q50 0 87 -9t64 -25l41 48q10 12 15 13.5t14 -6.5l18 -14
q10 -8 10 -13.5t-9 -17.5l-42 -50q31 -37 41 -84.5t10 -92.5zM340 267l-91 -107q11 -10 33 -10q35 0 46.5 24.5t11.5 74.5v18zM230 232l89 105q-13 10 -35 10q-31 0 -42.5 -25.5t-11.5 -72.5v-17z" />
    <glyph glyph-name="ugrave" unicode="&#xf9;" horiz-adv-x="574" 
d="M341 43l-2 1q-38 -29 -79 -40.5t-69 -11.5q-55 0 -85 17.5t-44.5 46t-17 64t-2.5 72.5v281q0 6 3.5 15t19.5 9h141q14 0 19 -7t5 -17v-246q0 -39 14 -49.5t37 -10.5q17 0 31.5 5.5t28.5 10.5v290q0 6 3.5 15t19.5 9h141q14 0 19 -7t5 -17v-449q0 -10 -5 -17t-19 -7h-141
q-16 0 -19.5 9t-3.5 15v19zM198 795q6 5 15.5 5t19.5 -12l129 -167q9 -11 6.5 -17.5t-9.5 -11.5l-54 -48q-8 -8 -16 -5t-15 10l-157 141q-20 20 1 37z" />
    <glyph glyph-name="uacute" unicode="&#xfa;" horiz-adv-x="574" 
d="M341 43l-2 1q-38 -29 -79 -40.5t-69 -11.5q-55 0 -85 17.5t-44.5 46t-17 64t-2.5 72.5v281q0 6 3.5 15t19.5 9h141q14 0 19 -7t5 -17v-246q0 -39 14 -49.5t37 -10.5q17 0 31.5 5.5t28.5 10.5v290q0 6 3.5 15t19.5 9h141q14 0 19 -7t5 -17v-449q0 -10 -5 -17t-19 -7h-141
q-16 0 -19.5 9t-3.5 15v19zM433 745q11 -6 13 -15.5t-7 -21.5l-131 -160q-6 -8 -13 -12t-17 2l-63 36q-8 5 -11.5 10.5t3.5 17.5l103 185q8 14 17 15t16 -3z" />
    <glyph glyph-name="ucircumflex" unicode="&#xfb;" horiz-adv-x="574" 
d="M341 43l-2 1q-38 -29 -79 -40.5t-69 -11.5q-55 0 -85 17.5t-44.5 46t-17 64t-2.5 72.5v281q0 6 3.5 15t19.5 9h141q14 0 19 -7t5 -17v-246q0 -39 14 -49.5t37 -10.5q17 0 31.5 5.5t28.5 10.5v290q0 6 3.5 15t19.5 9h141q14 0 19 -7t5 -17v-449q0 -10 -5 -17t-19 -7h-141
q-16 0 -19.5 9t-3.5 15v19zM146 525q-11 -8 -18 -10t-16 8l-41 41q-9 9 -10.5 15t9.5 17l134 140q9 10 16.5 15.5t28.5 5.5h72q21 0 28 -4t16 -14l136 -144q11 -11 9.5 -17t-10.5 -15l-42 -40q-10 -9 -16.5 -7.5t-17.5 9.5l-142 99z" />
    <glyph glyph-name="udieresis" unicode="&#xfc;" horiz-adv-x="574" 
d="M341 43l-2 1q-38 -29 -79 -40.5t-69 -11.5q-55 0 -85 17.5t-44.5 46t-17 64t-2.5 72.5v281q0 6 3.5 15t19.5 9h141q14 0 19 -7t5 -17v-246q0 -39 14 -49.5t37 -10.5q17 0 31.5 5.5t28.5 10.5v290q0 6 3.5 15t19.5 9h141q14 0 19 -7t5 -17v-449q0 -10 -5 -17t-19 -7h-141
q-16 0 -19.5 9t-3.5 15v19zM179 537q-30 0 -47.5 7t-26.5 18.5t-11.5 26.5t-2.5 31q0 17 3.5 32t13.5 25.5t27 16.5t44 6q28 0 45 -5.5t27 -16t13.5 -25.5t3.5 -33q0 -17 -3 -32t-13 -26.5t-27.5 -18t-45.5 -6.5zM400 537q-29 0 -46.5 7t-26.5 18.5t-12 26.5t-3 31
q0 17 4 32t13.5 25.5t26.5 16.5t44 6q28 0 45.5 -5.5t27 -16t13 -25.5t3.5 -33q0 -17 -3 -32t-12.5 -26.5t-27 -18t-46.5 -6.5z" />
    <glyph glyph-name="yacute" unicode="&#xfd;" horiz-adv-x="548" 
d="M275 233l40 130l34 110q4 11 11.5 17.5t30.5 6.5h120q21 0 24 -7.5t-3 -22.5l-242 -644q-7 -17 -15 -22t-28 -5h-119q-17 0 -22.5 6t2.5 23l73 194l-171 449q-12 29 19 29h132q16 0 25.5 -3t14.5 -23l33 -112l35 -126h6zM433 745q11 -6 13 -15.5t-7 -21.5l-131 -160
q-6 -8 -13 -12t-17 2l-63 36q-8 5 -11.5 10.5t3.5 17.5l103 185q8 14 17 15t16 -3z" />
    <glyph glyph-name="thorn" unicode="&#xfe;" horiz-adv-x="573" 
d="M233 -181q0 -6 -3.5 -15t-19.5 -9h-141q-14 0 -19 7t-5 17v822q0 10 5 17t19 7h141q16 0 19.5 -9t3.5 -15v-187l2 -1q38 29 69.5 40.5t59.5 11.5q54 0 87.5 -21t51.5 -56.5t24.5 -82t6.5 -97.5q0 -59 -8.5 -106.5t-31.5 -82t-63 -53t-104 -18.5q-17 0 -44.5 3.5
t-49.5 8.5v-181zM342 245q0 51 -11.5 69t-35.5 18q-17 0 -33 -5.5t-30 -11.5v-161q17 -4 28 -5t20 -1q16 0 28 3.5t19.5 13.5t11 29t3.5 51z" />
    <glyph glyph-name="ydieresis" unicode="&#xff;" horiz-adv-x="548" 
d="M275 233l40 130l34 110q4 11 11.5 17.5t30.5 6.5h120q21 0 24 -7.5t-3 -22.5l-242 -644q-7 -17 -15 -22t-28 -5h-119q-17 0 -22.5 6t2.5 23l73 194l-171 449q-12 29 19 29h132q16 0 25.5 -3t14.5 -23l33 -112l35 -126h6zM162 537q-30 0 -47.5 7t-26.5 18.5t-11.5 26.5
t-2.5 31q0 17 3.5 32t13.5 25.5t27 16.5t44 6q28 0 45 -5.5t27 -16t13.5 -25.5t3.5 -33q0 -17 -3 -32t-13 -26.5t-27.5 -18t-45.5 -6.5zM383 537q-29 0 -46.5 7t-26.5 18.5t-12 26.5t-3 31q0 17 4 32t13.5 25.5t26.5 16.5t44 6q28 0 45.5 -5.5t27 -16t13 -25.5t3.5 -33
q0 -17 -3 -32t-12.5 -26.5t-27 -18t-46.5 -6.5z" />
    <glyph glyph-name="Amacron" unicode="&#x100;" horiz-adv-x="650" 
d="M204 33q-5 -19 -15 -26t-27 -7h-138q-14 0 -18.5 5t1.5 25l186 601q5 17 14 26t35 9h157q26 0 34 -9t14 -27l197 -602q9 -28 -13 -28h-153q-20 0 -28 9.5t-13 29.5l-27 98h-178zM157 701q-24 0 -24 25v86q0 24 24 24h328q15 0 19 -6t4 -17v-87q0 -13 -4 -19t-19 -6h-328z
M349 367l-25 104h-6l-47 -188h99z" />
    <glyph glyph-name="amacron" unicode="&#x101;" horiz-adv-x="600" 
d="M332 195h-65q-19 0 -30 -9t-11 -32q0 -15 6.5 -21t23.5 -6t38.5 7.5t37.5 16.5v44zM354 63q-20 -22 -44.5 -36t-49 -21.5t-46 -10.5t-35.5 -3q-47 0 -75 13.5t-43 35.5t-20 49t-5 53q-1 48 14 80t41 51t62 27t78 8h105v8q0 10 -2.5 17.5t-10 13t-22.5 8t-40 2.5
q-9 0 -24.5 -1t-33.5 -2t-36 -3t-32 -3q-13 -2 -21 -2.5t-13 1.5t-7.5 7t-4.5 14l-14 64q-3 15 3.5 25.5t35.5 21.5q18 7 41.5 12t47.5 8t47 4.5t40 1.5q75 0 120 -13t69.5 -37.5t32.5 -61t8 -83.5v-128q0 -32 7.5 -39.5t30.5 -10.5q14 -2 18 -5.5t4 -14.5v-82q0 -13 -9 -19
t-24 -10q-18 -5 -36 -6.5t-38 -1.5q-19 0 -37.5 2.5t-34 10t-27.5 20.5t-18 35zM125 560q-24 0 -24 25v86q0 24 24 24h328q15 0 19 -6t4 -17v-87q0 -13 -4 -19t-19 -6h-328z" />
    <glyph glyph-name="Abreve" unicode="&#x102;" horiz-adv-x="650" 
d="M204 33q-5 -19 -15 -26t-27 -7h-138q-14 0 -18.5 5t1.5 25l186 601q5 17 14 26t35 9h157q26 0 34 -9t14 -27l197 -602q9 -28 -13 -28h-153q-20 0 -28 9.5t-13 29.5l-27 98h-178zM312 689q-32 0 -63.5 6.5t-60 20.5t-52.5 36t-39 52q-8 17 -10.5 28.5t11.5 22.5l43 34
q17 12 24.5 7.5t19.5 -18.5q27 -32 56.5 -47.5t67.5 -15.5q32 0 64 11.5t61 51.5q11 15 19.5 17.5t24.5 -7.5l42 -25q17 -11 14.5 -23t-13.5 -32q-35 -61 -88 -90t-121 -29zM349 367l-25 104h-6l-47 -188h99z" />
    <glyph glyph-name="abreve" unicode="&#x103;" horiz-adv-x="600" 
d="M332 195h-65q-19 0 -30 -9t-11 -32q0 -15 6.5 -21t23.5 -6t38.5 7.5t37.5 16.5v44zM354 63q-20 -22 -44.5 -36t-49 -21.5t-46 -10.5t-35.5 -3q-47 0 -75 13.5t-43 35.5t-20 49t-5 53q-1 48 14 80t41 51t62 27t78 8h105v8q0 10 -2.5 17.5t-10 13t-22.5 8t-40 2.5
q-9 0 -24.5 -1t-33.5 -2t-36 -3t-32 -3q-13 -2 -21 -2.5t-13 1.5t-7.5 7t-4.5 14l-14 64q-3 15 3.5 25.5t35.5 21.5q18 7 41.5 12t47.5 8t47 4.5t40 1.5q75 0 120 -13t69.5 -37.5t32.5 -61t8 -83.5v-128q0 -32 7.5 -39.5t30.5 -10.5q14 -2 18 -5.5t4 -14.5v-82q0 -13 -9 -19
t-24 -10q-18 -5 -36 -6.5t-38 -1.5q-19 0 -37.5 2.5t-34 10t-27.5 20.5t-18 35zM288 531q-32 0 -64 8.5t-61 25t-52.5 41t-37.5 56.5q-8 17 -10.5 28.5t11.5 22.5l43 34q17 12 24.5 7.5t19.5 -18.5q34 -40 61 -57t65 -17q32 0 61.5 15t61.5 59q11 15 19.5 17.5t24.5 -7.5
l42 -25q17 -11 14.5 -23t-13.5 -32q-34 -65 -87.5 -100t-121.5 -35z" />
    <glyph glyph-name="Aogonek" unicode="&#x104;" horiz-adv-x="650" 
d="M570 -72q0 -32 40 -32q14 0 26.5 1.5t27.5 6.5q12 4 16 2t6 -10l14 -44q4 -12 -0.5 -17.5t-12.5 -9.5q-20 -10 -48 -16.5t-60 -6.5q-62 0 -93.5 31.5t-31.5 82.5q0 19 6 40t21 44h-3q-20 0 -28 9.5t-13 29.5l-27 98h-178l-28 -104q-5 -19 -15 -26t-27 -7h-138
q-14 0 -18.5 5t1.5 25l186 601q5 17 14 26t35 9h157q26 0 34 -9t14 -27l197 -602q9 -28 -13 -28h-42q-12 -23 -15.5 -40.5t-3.5 -31.5zM349 367l-25 104h-6l-47 -188h99z" />
    <glyph glyph-name="aogonek" unicode="&#x105;" horiz-adv-x="600" 
d="M464 -72q0 -32 40 -32q14 0 26.5 1.5t27.5 6.5q12 4 16 2t6 -10l14 -44q4 -12 -0.5 -17.5t-12.5 -9.5q-20 -10 -48 -16.5t-60 -6.5q-62 0 -93.5 31.5t-31.5 82.5q0 22 8 47t29 52q-20 16 -29 47l-2 1q-20 -22 -44.5 -36t-49 -21.5t-46 -10.5t-35.5 -3q-47 0 -75 13.5
t-43 35.5t-20 49t-5 53q-1 48 14 80t41 51t62 27t78 8h105v8q0 10 -2.5 17.5t-10 13t-22.5 8t-40 2.5q-9 0 -24.5 -1t-33.5 -2t-36 -3t-32 -3q-13 -2 -21 -2.5t-13 1.5t-7.5 7t-4.5 14l-14 64q-3 15 3.5 25.5t35.5 21.5q18 7 41.5 12t47.5 8t47 4.5t40 1.5q75 0 120 -13
t69.5 -37.5t32.5 -61t8 -83.5v-128q0 -32 7.5 -39.5t30.5 -10.5q14 -2 18 -5.5t4 -14.5v-82q0 -13 -9 -19t-24 -10q-17 -4 -33.5 -5.5t-33.5 -2.5q-10 -20 -13 -36.5t-3 -29.5zM332 195h-65q-19 0 -30 -9t-11 -32q0 -15 6.5 -21t23.5 -6t38.5 7.5t37.5 16.5v44z" />
    <glyph glyph-name="Cacute" unicode="&#x106;" horiz-adv-x="619" 
d="M55 332q0 59 12 120t45.5 110t93.5 80t155 31q55 0 104 -8.5t88 -25.5q17 -8 27.5 -18.5t5.5 -35.5l-15 -71q-4 -19 -11.5 -22.5t-30.5 -1.5q-45 4 -82.5 6.5t-63.5 2.5q-35 0 -58 -12.5t-36.5 -34t-19 -51.5t-5.5 -65q0 -46 5.5 -79t19 -54t36 -31t57.5 -10
q19 0 35.5 0.5t33 1.5t36 2.5t45.5 4.5q23 2 30 -1t12 -23l17 -65q7 -24 -4 -36t-28 -20q-39 -17 -90.5 -26.5t-106.5 -9.5q-64 0 -111 14t-81.5 38.5t-56.5 57t-35 70.5t-18 79.5t-5 82.5zM549 810q7 -10 4.5 -19.5t-16.5 -14.5l-192 -78q-9 -4 -17 -4.5t-15 9.5l-37 63
q-5 7 -5.5 13.5t11.5 14.5l179 113q14 8 22.5 4.5t12.5 -10.5z" />
    <glyph glyph-name="cacute" unicode="&#x107;" horiz-adv-x="502" 
d="M469 70q5 -23 0.5 -34t-33.5 -22q-15 -5 -34.5 -9.5t-40 -7.5t-41 -4.5t-38.5 -1.5q-79 0 -127 22.5t-73.5 59t-33.5 83t-8 94.5q0 45 9 90.5t35 82t73.5 60t124.5 23.5q45 0 86 -6t73 -20q16 -7 23 -16.5t3 -28.5l-14 -77q-2 -10 -4 -15t-6.5 -6.5t-12 -1t-20.5 1.5
q-30 3 -52 4.5t-44 1.5q-43 0 -63.5 -23t-20.5 -67q0 -56 17.5 -78t62.5 -22q20 0 50 2t63 6q19 2 24 0t9 -21zM394 745q11 -6 13 -15.5t-7 -21.5l-131 -160q-6 -8 -13 -12t-17 2l-63 36q-8 5 -11.5 10.5t3.5 17.5l103 185q8 14 17 15t16 -3z" />
    <glyph glyph-name="Ccircumflex" unicode="&#x108;" horiz-adv-x="619" 
d="M55 332q0 59 12 120t45.5 110t93.5 80t155 31q55 0 104 -8.5t88 -25.5q17 -8 27.5 -18.5t5.5 -35.5l-15 -71q-4 -19 -11.5 -22.5t-30.5 -1.5q-45 4 -82.5 6.5t-63.5 2.5q-35 0 -58 -12.5t-36.5 -34t-19 -51.5t-5.5 -65q0 -46 5.5 -79t19 -54t36 -31t57.5 -10
q19 0 35.5 0.5t33 1.5t36 2.5t45.5 4.5q23 2 30 -1t12 -23l17 -65q7 -24 -4 -36t-28 -20q-39 -17 -90.5 -26.5t-106.5 -9.5q-64 0 -111 14t-81.5 38.5t-56.5 57t-35 70.5t-18 79.5t-5 82.5zM215 690q-11 -8 -18 -10t-16 8l-39 42q-9 9 -10.5 15t9.5 17l132 120q10 9 17 15
t28 6h72q21 0 27.5 -4.5t16.5 -13.5l134 -122q11 -11 9.5 -17t-10.5 -15l-40 -43q-9 -10 -15.5 -8t-18.5 10l-142 89z" />
    <glyph glyph-name="ccircumflex" unicode="&#x109;" horiz-adv-x="502" 
d="M469 70q5 -23 0.5 -34t-33.5 -22q-15 -5 -34.5 -9.5t-40 -7.5t-41 -4.5t-38.5 -1.5q-79 0 -127 22.5t-73.5 59t-33.5 83t-8 94.5q0 45 9 90.5t35 82t73.5 60t124.5 23.5q45 0 86 -6t73 -20q16 -7 23 -16.5t3 -28.5l-14 -77q-2 -10 -4 -15t-6.5 -6.5t-12 -1t-20.5 1.5
q-30 3 -52 4.5t-44 1.5q-43 0 -63.5 -23t-20.5 -67q0 -56 17.5 -78t62.5 -22q20 0 50 2t63 6q19 2 24 0t9 -21zM127 525q-11 -8 -18 -10t-16 8l-41 41q-9 9 -10.5 15t9.5 17l134 140q9 10 16.5 15.5t28.5 5.5h72q21 0 28 -4t16 -14l136 -144q11 -11 9.5 -17t-10.5 -15
l-42 -40q-10 -9 -16.5 -7.5t-17.5 9.5l-142 99z" />
    <glyph glyph-name="Cdotaccent" unicode="&#x10a;" horiz-adv-x="619" 
d="M55 332q0 59 12 120t45.5 110t93.5 80t155 31q55 0 104 -8.5t88 -25.5q17 -8 27.5 -18.5t5.5 -35.5l-15 -71q-4 -19 -11.5 -22.5t-30.5 -1.5q-45 4 -82.5 6.5t-63.5 2.5q-35 0 -58 -12.5t-36.5 -34t-19 -51.5t-5.5 -65q0 -46 5.5 -79t19 -54t36 -31t57.5 -10
q19 0 35.5 0.5t33 1.5t36 2.5t45.5 4.5q23 2 30 -1t12 -23l17 -65q7 -24 -4 -36t-28 -20q-39 -17 -90.5 -26.5t-106.5 -9.5q-64 0 -111 14t-81.5 38.5t-56.5 57t-35 70.5t-18 79.5t-5 82.5zM459 794q0 -17 -3.5 -32.5t-14 -28.5t-29.5 -20.5t-49 -7.5q-32 0 -50.5 8
t-29 20.5t-13.5 28.5t-3 32q0 18 4.5 34t15 28t29 19t47.5 7q30 0 48.5 -6.5t29 -18.5t14.5 -28t4 -35z" />
    <glyph glyph-name="cdotaccent" unicode="&#x10b;" horiz-adv-x="502" 
d="M469 70q5 -23 0.5 -34t-33.5 -22q-15 -5 -34.5 -9.5t-40 -7.5t-41 -4.5t-38.5 -1.5q-79 0 -127 22.5t-73.5 59t-33.5 83t-8 94.5q0 45 9 90.5t35 82t73.5 60t124.5 23.5q45 0 86 -6t73 -20q16 -7 23 -16.5t3 -28.5l-14 -77q-2 -10 -4 -15t-6.5 -6.5t-12 -1t-20.5 1.5
q-30 3 -52 4.5t-44 1.5q-43 0 -63.5 -23t-20.5 -67q0 -56 17.5 -78t62.5 -22q20 0 50 2t63 6q19 2 24 0t9 -21zM377 634q0 -17 -3.5 -32.5t-14 -28.5t-29.5 -20.5t-49 -7.5q-32 0 -50.5 8t-29 20.5t-13.5 28.5t-3 32q0 18 4.5 34t15 28t29 19t47.5 7q30 0 48.5 -6.5
t29 -18.5t14.5 -28t4 -35z" />
    <glyph glyph-name="Ccaron" unicode="&#x10c;" horiz-adv-x="619" 
d="M55 332q0 59 12 120t45.5 110t93.5 80t155 31q55 0 104 -8.5t88 -25.5q17 -8 27.5 -18.5t5.5 -35.5l-15 -71q-4 -19 -11.5 -22.5t-30.5 -1.5q-45 4 -82.5 6.5t-63.5 2.5q-35 0 -58 -12.5t-36.5 -34t-19 -51.5t-5.5 -65q0 -46 5.5 -79t19 -54t36 -31t57.5 -10
q19 0 35.5 0.5t33 1.5t36 2.5t45.5 4.5q23 2 30 -1t12 -23l17 -65q7 -24 -4 -36t-28 -20q-39 -17 -90.5 -26.5t-106.5 -9.5q-64 0 -111 14t-81.5 38.5t-56.5 57t-35 70.5t-18 79.5t-5 82.5zM346 824l142 79q11 8 17.5 9.5t16.5 -7.5l39 -42q9 -9 10.5 -15t-9.5 -17
l-133 -122q-9 -10 -16 -14t-28 -4h-72q-21 0 -28.5 5.5t-16.5 15.5l-130 119q-11 11 -9.5 17t10.5 15l37 42q9 10 16 8t18 -10z" />
    <glyph glyph-name="ccaron" unicode="&#x10d;" horiz-adv-x="502" 
d="M469 70q5 -23 0.5 -34t-33.5 -22q-15 -5 -34.5 -9.5t-40 -7.5t-41 -4.5t-38.5 -1.5q-79 0 -127 22.5t-73.5 59t-33.5 83t-8 94.5q0 45 9 90.5t35 82t73.5 60t124.5 23.5q45 0 86 -6t73 -20q16 -7 23 -16.5t3 -28.5l-14 -77q-2 -10 -4 -15t-6.5 -6.5t-12 -1t-20.5 1.5
q-30 3 -52 4.5t-44 1.5q-43 0 -63.5 -23t-20.5 -67q0 -56 17.5 -78t62.5 -22q20 0 50 2t63 6q19 2 24 0t9 -21zM262 660l142 99q11 8 17.5 9.5t16.5 -7.5l42 -40q9 -9 10.5 -15t-9.5 -17l-136 -144q-9 -10 -16 -14t-28 -4h-72q-21 0 -28.5 5.5t-16.5 15.5l-134 140
q-11 11 -9.5 17t10.5 15l41 41q9 10 16 8t18 -10z" />
    <glyph glyph-name="Dcaron" unicode="&#x10e;" horiz-adv-x="680" 
d="M89 0q-14 0 -19 7t-5 17v617q0 10 5 17t19 7h230q90 0 149.5 -27.5t94 -73t48.5 -105.5t14 -125t-13.5 -125.5t-48 -107t-94 -74t-150.5 -27.5h-230zM422 327q0 39 -5 71.5t-18.5 56t-36 36.5t-58.5 13h-44v-343h37q67 0 96 43.5t29 122.5zM289 824l142 79q11 8 17.5 9.5
t16.5 -7.5l39 -42q9 -9 10.5 -15t-9.5 -17l-133 -122q-9 -10 -16 -14t-28 -4h-72q-21 0 -28.5 5.5t-16.5 15.5l-130 119q-11 11 -9.5 17t10.5 15l37 42q9 10 16 8t18 -10z" />
    <glyph glyph-name="dcaron" unicode="&#x10f;" horiz-adv-x="787" 
d="M774 619q0 -69 -30.5 -120t-75.5 -77q-15 -8 -25.5 -5.5t-20.5 13.5l-32 33q-8 8 -11.5 13t-3 9.5t5 10.5t13.5 15q18 20 20.5 36t2.5 25q0 15 -8 28t-19 26q-17 18 -19 29.5t21 28.5l77 59q19 14 31 8.5t27 -19.5q23 -22 35 -54t12 -59zM527 24q0 -6 -3.5 -15t-19.5 -9
h-142q-14 0 -18 6.5t-4 16.5v20l-2 1q-38 -29 -70 -40.5t-60 -11.5q-53 0 -86 20t-51 54t-24.5 79t-6.5 96q0 58 7 107.5t28.5 85t62 55.5t107.5 20q17 0 45 -3t50 -8v185q0 10 5 17t19 7h140q16 0 19.5 -9t3.5 -15v-659zM230 250q0 -27 2.5 -44.5t8.5 -27t14.5 -13
t20.5 -3.5q17 0 33.5 6t30.5 12v163q-20 5 -30 5.5t-19 0.5q-16 0 -27.5 -3.5t-19 -14.5t-11 -30.5t-3.5 -50.5z" />
    <glyph glyph-name="Dcroat" unicode="&#x110;" horiz-adv-x="680" 
d="M89 0q-14 0 -19 7t-5 17v251h-42q-23 0 -23 20v72q0 20 23 20h42v254q0 10 5 17t19 7h230q90 0 149.5 -27.5t94 -73t48.5 -105.5t14 -125t-13.5 -125.5t-48 -107t-94 -74t-150.5 -27.5h-230zM260 275v-114h37q67 0 96 43.5t29 122.5q0 39 -5 71.5t-18.5 56t-36 36.5
t-58.5 13h-44v-117h83q15 0 19 -5t4 -14v-73q0 -11 -4 -15.5t-19 -4.5h-83z" />
    <glyph glyph-name="dcroat" unicode="&#x111;" horiz-adv-x="593" 
d="M527 519v-495q0 -6 -3.5 -15t-19.5 -9h-140q-14 0 -19 7t-5 17v19l-2 1q-38 -29 -70 -40.5t-60 -11.5q-53 0 -86 17t-51 47t-24.5 72t-6.5 93q0 58 7 104.5t28.5 78t62 48.5t107.5 17q17 0 45 -3t50 -8v61h-122q-11 0 -14.5 3.5t-3.5 14.5v61q0 12 3.5 14.5t14.5 2.5h122
v68q0 10 5 17t19 7h140q16 0 19.5 -9t3.5 -15v-68h37q11 0 13.5 -3.5t2.5 -14.5v-61q0 -9 -2 -13t-13 -4h-38zM230 230q0 -40 11 -54t35 -14q17 0 33.5 6t30.5 12v123q-20 5 -30 5.5t-19 0.5q-32 0 -46.5 -18t-14.5 -61z" />
    <glyph glyph-name="Emacron" unicode="&#x112;" horiz-adv-x="582" 
d="M65 641q0 10 5 17t19 7h420q11 0 17.5 -6.5t6.5 -17.5v-115q0 -9 -5 -15.5t-19 -6.5h-248v-80h214q11 0 17.5 -6.5t6.5 -17.5v-115q0 -9 -5 -15.5t-19 -6.5h-214v-102h252q11 0 17.5 -6.5t6.5 -17.5v-115q0 -9 -5 -15.5t-19 -6.5h-424q-14 0 -19 7t-5 17v617zM143 701
q-24 0 -24 25v86q0 24 24 24h328q15 0 19 -6t4 -17v-87q0 -13 -4 -19t-19 -6h-328z" />
    <glyph glyph-name="emacron" unicode="&#x113;" horiz-adv-x="553" 
d="M231 207q2 -21 10 -33.5t21 -19t30 -8t37 -1.5t47.5 2t60.5 7q24 3 29.5 -0.5t9.5 -25.5l10 -59q5 -23 0.5 -34t-33.5 -22q-15 -5 -35.5 -9t-42.5 -7t-43.5 -4.5t-39.5 -1.5q-79 0 -128 20.5t-76.5 55t-37.5 80.5t-10 96q0 36 6.5 81.5t31 86t72.5 68t131 27.5
q75 0 121.5 -21t72 -54.5t34.5 -74.5t9 -81q0 -34 -13 -51t-47 -17h-227zM281 367q-19 0 -32 -14t-15 -43h91q0 29 -12 43t-32 14zM113 560q-24 0 -24 25v86q0 24 24 24h328q15 0 19 -6t4 -17v-87q0 -13 -4 -19t-19 -6h-328z" />
    <glyph glyph-name="Ebreve" unicode="&#x114;" horiz-adv-x="582" 
d="M65 641q0 10 5 17t19 7h420q11 0 17.5 -6.5t6.5 -17.5v-115q0 -9 -5 -15.5t-19 -6.5h-248v-80h214q11 0 17.5 -6.5t6.5 -17.5v-115q0 -9 -5 -15.5t-19 -6.5h-214v-102h252q11 0 17.5 -6.5t6.5 -17.5v-115q0 -9 -5 -15.5t-19 -6.5h-424q-14 0 -19 7t-5 17v617zM294 689
q-32 0 -63.5 6.5t-60 20.5t-52.5 36t-39 52q-8 17 -10.5 28.5t11.5 22.5l43 34q17 12 24.5 7.5t19.5 -18.5q27 -32 56.5 -47.5t67.5 -15.5q32 0 64 11.5t61 51.5q11 15 19.5 17.5t24.5 -7.5l42 -25q17 -11 14.5 -23t-13.5 -32q-35 -61 -88 -90t-121 -29z" />
    <glyph glyph-name="ebreve" unicode="&#x115;" horiz-adv-x="553" 
d="M231 207q2 -21 10 -33.5t21 -19t30 -8t37 -1.5t47.5 2t60.5 7q24 3 29.5 -0.5t9.5 -25.5l10 -59q5 -23 0.5 -34t-33.5 -22q-15 -5 -35.5 -9t-42.5 -7t-43.5 -4.5t-39.5 -1.5q-79 0 -128 20.5t-76.5 55t-37.5 80.5t-10 96q0 36 6.5 81.5t31 86t72.5 68t131 27.5
q75 0 121.5 -21t72 -54.5t34.5 -74.5t9 -81q0 -34 -13 -51t-47 -17h-227zM281 367q-19 0 -32 -14t-15 -43h91q0 29 -12 43t-32 14zM277 531q-32 0 -64 8.5t-61 25t-52.5 41t-37.5 56.5q-8 17 -10.5 28.5t11.5 22.5l43 34q17 12 24.5 7.5t19.5 -18.5q34 -40 61 -57t65 -17
q32 0 61.5 15t61.5 59q11 15 19.5 17.5t24.5 -7.5l42 -25q17 -11 14.5 -23t-13.5 -32q-34 -65 -87.5 -100t-121.5 -35z" />
    <glyph glyph-name="Edotaccent" unicode="&#x116;" horiz-adv-x="582" 
d="M65 641q0 10 5 17t19 7h420q11 0 17.5 -6.5t6.5 -17.5v-115q0 -9 -5 -15.5t-19 -6.5h-248v-80h214q11 0 17.5 -6.5t6.5 -17.5v-115q0 -9 -5 -15.5t-19 -6.5h-214v-102h252q11 0 17.5 -6.5t6.5 -17.5v-115q0 -9 -5 -15.5t-19 -6.5h-424q-14 0 -19 7t-5 17v617zM405 784
q0 -17 -3.5 -32.5t-14 -28.5t-29.5 -20.5t-49 -7.5q-32 0 -50.5 8t-29 20.5t-13.5 28.5t-3 32q0 18 4.5 34t15 28t29 19t47.5 7q30 0 48.5 -6.5t29 -18.5t14.5 -28t4 -35z" />
    <glyph glyph-name="edotaccent" unicode="&#x117;" horiz-adv-x="553" 
d="M231 207q2 -21 10 -33.5t21 -19t30 -8t37 -1.5t47.5 2t60.5 7q24 3 29.5 -0.5t9.5 -25.5l10 -59q5 -23 0.5 -34t-33.5 -22q-15 -5 -35.5 -9t-42.5 -7t-43.5 -4.5t-39.5 -1.5q-79 0 -128 20.5t-76.5 55t-37.5 80.5t-10 96q0 36 6.5 81.5t31 86t72.5 68t131 27.5
q75 0 121.5 -21t72 -54.5t34.5 -74.5t9 -81q0 -34 -13 -51t-47 -17h-227zM281 367q-19 0 -32 -14t-15 -43h91q0 29 -12 43t-32 14zM386 634q0 -17 -3.5 -32.5t-14 -28.5t-29.5 -20.5t-49 -7.5q-32 0 -50.5 8t-29 20.5t-13.5 28.5t-3 32q0 18 4.5 34t15 28t29 19t47.5 7
q30 0 48.5 -6.5t29 -18.5t14.5 -28t4 -35z" />
    <glyph glyph-name="Eogonek" unicode="&#x118;" horiz-adv-x="582" 
d="M470 -72q0 -32 40 -32q14 0 26.5 1.5t27.5 6.5q12 4 16 2t6 -10l14 -44q4 -12 -0.5 -17.5t-12.5 -9.5q-20 -10 -48 -16.5t-60 -6.5q-62 0 -93.5 31.5t-31.5 82.5q0 19 6 40t21 44h-292q-14 0 -19 7t-5 17v617q0 10 5 17t19 7h420q11 0 17.5 -6.5t6.5 -17.5v-115
q0 -9 -5 -15.5t-19 -6.5h-248v-80h214q11 0 17.5 -6.5t6.5 -17.5v-115q0 -9 -5 -15.5t-19 -6.5h-214v-102h252q11 0 17.5 -6.5t6.5 -17.5v-115q0 -9 -5 -15.5t-19 -6.5h-24q-12 -23 -15.5 -40.5t-3.5 -31.5z" />
    <glyph glyph-name="eogonek" unicode="&#x119;" horiz-adv-x="553" 
d="M415 -72q0 -32 40 -32q14 0 26.5 1.5t27.5 6.5q12 4 16 2t6 -10l14 -44q4 -12 -0.5 -17.5t-12.5 -9.5q-20 -10 -48 -16.5t-60 -6.5q-62 0 -93.5 31.5t-31.5 82.5q0 17 4.5 36t16.5 40q-8 -1 -15 -1h-13q-79 0 -128 20.5t-76.5 55t-37.5 80.5t-10 96q0 36 6.5 81.5t31 86
t72.5 68t131 27.5q75 0 121.5 -21t72 -54.5t34.5 -74.5t9 -81q0 -34 -13 -51t-47 -17h-227q2 -21 10 -33.5t21 -19t30 -8t37 -1.5t47.5 2t60.5 7q24 3 29.5 -0.5t9.5 -25.5l10 -59q5 -23 0.5 -34t-33.5 -22l-15 -5q-14 -25 -18.5 -45t-4.5 -35zM281 367q-19 0 -32 -14
t-15 -43h91q0 29 -12 43t-32 14z" />
    <glyph glyph-name="Ecaron" unicode="&#x11a;" horiz-adv-x="582" 
d="M65 641q0 10 5 17t19 7h420q11 0 17.5 -6.5t6.5 -17.5v-115q0 -9 -5 -15.5t-19 -6.5h-248v-80h214q11 0 17.5 -6.5t6.5 -17.5v-115q0 -9 -5 -15.5t-19 -6.5h-214v-102h252q11 0 17.5 -6.5t6.5 -17.5v-115q0 -9 -5 -15.5t-19 -6.5h-424q-14 0 -19 7t-5 17v617zM299 824
l142 79q11 8 17.5 9.5t16.5 -7.5l39 -42q9 -9 10.5 -15t-9.5 -17l-133 -122q-9 -10 -16 -14t-28 -4h-72q-21 0 -28.5 5.5t-16.5 15.5l-130 119q-11 11 -9.5 17t10.5 15l37 42q9 10 16 8t18 -10z" />
    <glyph glyph-name="ecaron" unicode="&#x11b;" horiz-adv-x="553" 
d="M231 207q2 -21 10 -33.5t21 -19t30 -8t37 -1.5t47.5 2t60.5 7q24 3 29.5 -0.5t9.5 -25.5l10 -59q5 -23 0.5 -34t-33.5 -22q-15 -5 -35.5 -9t-42.5 -7t-43.5 -4.5t-39.5 -1.5q-79 0 -128 20.5t-76.5 55t-37.5 80.5t-10 96q0 36 6.5 81.5t31 86t72.5 68t131 27.5
q75 0 121.5 -21t72 -54.5t34.5 -74.5t9 -81q0 -34 -13 -51t-47 -17h-227zM281 367q-19 0 -32 -14t-15 -43h91q0 29 -12 43t-32 14zM283 660l142 99q11 8 17.5 9.5t16.5 -7.5l42 -40q9 -9 10.5 -15t-9.5 -17l-136 -144q-9 -10 -16 -14t-28 -4h-72q-21 0 -28.5 5.5t-16.5 15.5
l-134 140q-11 11 -9.5 17t10.5 15l41 41q9 10 16 8t18 -10z" />
    <glyph glyph-name="Gcircumflex" unicode="&#x11c;" horiz-adv-x="664" 
d="M264 336q0 -39 3.5 -71.5t15.5 -56t33.5 -36t57.5 -12.5q14 0 25 0.5t23 2.5v81h-58q-16 0 -20 6.5t-4 15.5v105q0 11 4 17.5t20 6.5h221q11 0 17.5 -6.5t6.5 -17.5v-46.5v-36.5v-34v-39.5t-0.5 -53t-0.5 -73.5q0 -18 -4.5 -35t-27.5 -27q-26 -10 -55.5 -17t-59.5 -11
t-58.5 -6t-51.5 -2q-93 0 -151 29.5t-90.5 77.5t-43.5 109.5t-11 125.5q0 59 12 120t45.5 110t93.5 80t155 31q55 0 104 -8.5t88 -25.5q17 -8 27.5 -18.5t5.5 -35.5l-16 -73q-4 -19 -11.5 -22t-29.5 0q-45 5 -80.5 7.5t-61.5 2.5q-36 0 -59.5 -12.5t-38 -34.5t-20 -52
t-5.5 -65zM215 690q-11 -8 -18 -10t-16 8l-39 42q-9 9 -10.5 15t9.5 17l132 120q10 9 17 15t28 6h72q21 0 27.5 -4.5t16.5 -13.5l134 -122q11 -11 9.5 -17t-10.5 -15l-40 -43q-9 -10 -15.5 -8t-18.5 10l-142 89z" />
    <glyph glyph-name="gcircumflex" unicode="&#x11d;" horiz-adv-x="570" 
d="M292 507q51 0 106 -7.5t95 -24.5q20 -9 26 -21.5t6 -32.5v-395q0 -51 -6.5 -95.5t-32.5 -78t-77 -52.5t-139 -19q-44 0 -86 6.5t-71 17.5t-35.5 22t-3.5 26l15 71q5 20 11.5 22.5t26.5 -1.5q38 -6 72.5 -8.5t60.5 -2.5q25 0 40.5 4t24 12t11.5 20t3 28v17
q-46 -11 -82 -11q-66 0 -108 18.5t-66.5 51.5t-33.5 77.5t-9 96.5q0 54 11 101.5t39 82.5t77 55t125 20zM233 257q0 -30 4 -48.5t12 -28t19.5 -13t26.5 -3.5q9 0 18 1t26 5v173q-12 2 -21.5 2.5t-16.5 0.5q-14 0 -26 -2.5t-21.5 -12t-15 -27t-5.5 -47.5zM170 525
q-11 -8 -18 -10t-16 8l-41 41q-9 9 -10.5 15t9.5 17l134 140q9 10 16.5 15.5t28.5 5.5h72q21 0 28 -4t16 -14l136 -144q11 -11 9.5 -17t-10.5 -15l-42 -40q-10 -9 -16.5 -7.5t-17.5 9.5l-142 99z" />
    <glyph glyph-name="Gbreve" unicode="&#x11e;" horiz-adv-x="664" 
d="M264 336q0 -39 3.5 -71.5t15.5 -56t33.5 -36t57.5 -12.5q14 0 25 0.5t23 2.5v81h-58q-16 0 -20 6.5t-4 15.5v105q0 11 4 17.5t20 6.5h221q11 0 17.5 -6.5t6.5 -17.5v-46.5v-36.5v-34v-39.5t-0.5 -53t-0.5 -73.5q0 -18 -4.5 -35t-27.5 -27q-26 -10 -55.5 -17t-59.5 -11
t-58.5 -6t-51.5 -2q-93 0 -151 29.5t-90.5 77.5t-43.5 109.5t-11 125.5q0 59 12 120t45.5 110t93.5 80t155 31q55 0 104 -8.5t88 -25.5q17 -8 27.5 -18.5t5.5 -35.5l-16 -73q-4 -19 -11.5 -22t-29.5 0q-45 5 -80.5 7.5t-61.5 2.5q-36 0 -59.5 -12.5t-38 -34.5t-20 -52
t-5.5 -65zM349 689q-32 0 -63.5 6.5t-60 20.5t-52.5 36t-39 52q-8 17 -10.5 28.5t11.5 22.5l43 34q17 12 24.5 7.5t19.5 -18.5q27 -32 56.5 -47.5t67.5 -15.5q32 0 64 11.5t61 51.5q11 15 19.5 17.5t24.5 -7.5l42 -25q17 -11 14.5 -23t-13.5 -32q-35 -61 -88 -90t-121 -29z
" />
    <glyph glyph-name="gbreve" unicode="&#x11f;" horiz-adv-x="570" 
d="M292 507q51 0 106 -7.5t95 -24.5q20 -9 26 -21.5t6 -32.5v-395q0 -51 -6.5 -95.5t-32.5 -78t-77 -52.5t-139 -19q-44 0 -86 6.5t-71 17.5t-35.5 22t-3.5 26l15 71q5 20 11.5 22.5t26.5 -1.5q38 -6 72.5 -8.5t60.5 -2.5q25 0 40.5 4t24 12t11.5 20t3 28v17
q-46 -11 -82 -11q-66 0 -108 18.5t-66.5 51.5t-33.5 77.5t-9 96.5q0 54 11 101.5t39 82.5t77 55t125 20zM233 257q0 -30 4 -48.5t12 -28t19.5 -13t26.5 -3.5q9 0 18 1t26 5v173q-12 2 -21.5 2.5t-16.5 0.5q-14 0 -26 -2.5t-21.5 -12t-15 -27t-5.5 -47.5zM288 531
q-32 0 -64 8.5t-61 25t-52.5 41t-37.5 56.5q-8 17 -10.5 28.5t11.5 22.5l43 34q17 12 24.5 7.5t19.5 -18.5q34 -40 61 -57t65 -17q32 0 61.5 15t61.5 59q11 15 19.5 17.5t24.5 -7.5l42 -25q17 -11 14.5 -23t-13.5 -32q-34 -65 -87.5 -100t-121.5 -35z" />
    <glyph glyph-name="Gdotaccent" unicode="&#x120;" horiz-adv-x="664" 
d="M264 336q0 -39 3.5 -71.5t15.5 -56t33.5 -36t57.5 -12.5q14 0 25 0.5t23 2.5v81h-58q-16 0 -20 6.5t-4 15.5v105q0 11 4 17.5t20 6.5h221q11 0 17.5 -6.5t6.5 -17.5v-46.5v-36.5v-34v-39.5t-0.5 -53t-0.5 -73.5q0 -18 -4.5 -35t-27.5 -27q-26 -10 -55.5 -17t-59.5 -11
t-58.5 -6t-51.5 -2q-93 0 -151 29.5t-90.5 77.5t-43.5 109.5t-11 125.5q0 59 12 120t45.5 110t93.5 80t155 31q55 0 104 -8.5t88 -25.5q17 -8 27.5 -18.5t5.5 -35.5l-16 -73q-4 -19 -11.5 -22t-29.5 0q-45 5 -80.5 7.5t-61.5 2.5q-36 0 -59.5 -12.5t-38 -34.5t-20 -52
t-5.5 -65zM467 784q0 -17 -3.5 -32.5t-14 -28.5t-29.5 -20.5t-49 -7.5q-32 0 -50.5 8t-29 20.5t-13.5 28.5t-3 32q0 18 4.5 34t15 28t29 19t47.5 7q30 0 48.5 -6.5t29 -18.5t14.5 -28t4 -35z" />
    <glyph glyph-name="gdotaccent" unicode="&#x121;" horiz-adv-x="570" 
d="M292 507q51 0 106 -7.5t95 -24.5q20 -9 26 -21.5t6 -32.5v-395q0 -51 -6.5 -95.5t-32.5 -78t-77 -52.5t-139 -19q-44 0 -86 6.5t-71 17.5t-35.5 22t-3.5 26l15 71q5 20 11.5 22.5t26.5 -1.5q38 -6 72.5 -8.5t60.5 -2.5q25 0 40.5 4t24 12t11.5 20t3 28v17
q-46 -11 -82 -11q-66 0 -108 18.5t-66.5 51.5t-33.5 77.5t-9 96.5q0 54 11 101.5t39 82.5t77 55t125 20zM233 257q0 -30 4 -48.5t12 -28t19.5 -13t26.5 -3.5q9 0 18 1t26 5v173q-12 2 -21.5 2.5t-16.5 0.5q-14 0 -26 -2.5t-21.5 -12t-15 -27t-5.5 -47.5zM401 634
q0 -17 -3.5 -32.5t-14 -28.5t-29.5 -20.5t-49 -7.5q-32 0 -50.5 8t-29 20.5t-13.5 28.5t-3 32q0 18 4.5 34t15 28t29 19t47.5 7q30 0 48.5 -6.5t29 -18.5t14.5 -28t4 -35z" />
    <glyph glyph-name="Gcommaaccent" unicode="&#x122;" horiz-adv-x="664" 
d="M264 336q0 -39 3.5 -71.5t15.5 -56t33.5 -36t57.5 -12.5q14 0 25 0.5t23 2.5v81h-58q-16 0 -20 6.5t-4 15.5v105q0 11 4 17.5t20 6.5h221q11 0 17.5 -6.5t6.5 -17.5v-46.5v-36.5v-34v-39.5t-0.5 -53t-0.5 -73.5q0 -18 -4.5 -35t-27.5 -27q-26 -10 -55.5 -17t-59.5 -11
t-58.5 -6t-51.5 -2q-93 0 -151 29.5t-90.5 77.5t-43.5 109.5t-11 125.5q0 59 12 120t45.5 110t93.5 80t155 31q55 0 104 -8.5t88 -25.5q17 -8 27.5 -18.5t5.5 -35.5l-16 -73q-4 -19 -11.5 -22t-29.5 0q-45 5 -80.5 7.5t-61.5 2.5q-36 0 -59.5 -12.5t-38 -34.5t-20 -52
t-5.5 -65zM459 -163q0 -69 -30.5 -120t-75.5 -77q-15 -8 -25.5 -5.5t-20.5 13.5l-32 33q-8 8 -11.5 13t-3 9.5t5 10.5t13.5 15q18 20 20.5 36t2.5 25q0 15 -8 28t-19 26q-17 18 -19 29.5t21 28.5l77 59q19 14 31 8.5t27 -19.5q23 -22 35 -54t12 -59z" />
    <glyph glyph-name="gcommaaccent" unicode="&#x123;" horiz-adv-x="570" 
d="M216 680q0 69 30.5 120t75.5 77q15 8 25.5 5.5t20.5 -13.5l32 -33q7 -8 11 -13t3.5 -9.5t-5 -10.5t-13.5 -15q-18 -20 -20.5 -36t-2.5 -25q0 -15 8 -28t19 -26q17 -18 19 -29.5t-21 -28.5l-77 -59q-19 -14 -31 -8.5t-27 19.5q-23 22 -35 54t-12 59zM292 531
q51 0 106 -7.5t95 -24.5q20 -9 26 -21.5t6 -32.5v-395q0 -51 -6.5 -95.5t-32.5 -78t-77 -52.5t-139 -19q-44 0 -86 6.5t-71 17.5t-35.5 22t-3.5 26l15 71q5 20 11.5 22.5t26.5 -1.5q38 -6 72.5 -8.5t60.5 -2.5q25 0 40.5 4t24 12t11.5 20t3 28v17q-46 -11 -82 -11
q-66 0 -108 18.5t-66.5 51.5t-33.5 77.5t-9 96.5q0 54 11 101.5t39 82.5t77 55t125 20zM233 281q0 -30 4 -48.5t12 -28t19.5 -13t26.5 -3.5q9 0 18 1t26 5v173q-12 2 -21.5 2.5t-16.5 0.5q-14 0 -26 -2.5t-21.5 -12t-15 -27t-5.5 -47.5z" />
    <glyph glyph-name="Hcircumflex" unicode="&#x124;" horiz-adv-x="671" 
d="M410 641q0 10 5 17t19 7h149q16 0 19.5 -9t3.5 -15v-617q0 -6 -3.5 -15t-19.5 -9h-149q-14 0 -19 7t-5 17v237h-149v-237q0 -6 -3.5 -15t-19.5 -9h-149q-14 0 -19 7t-5 17v617q0 10 5 17t19 7h149q16 0 19.5 -9t3.5 -15v-218h149v218zM199 690q-11 -8 -18 -10t-16 8
l-39 42q-9 9 -10.5 15t9.5 17l132 120q10 9 17 15t28 6h72q21 0 27.5 -4.5t16.5 -13.5l134 -122q11 -11 9.5 -17t-10.5 -15l-40 -43q-9 -10 -15.5 -8t-18.5 10l-142 89z" />
    <glyph glyph-name="hcircumflex" unicode="&#x125;" horiz-adv-x="580" 
d="M538 24q0 -6 -3.5 -15t-19.5 -9h-141q-14 0 -19 7t-5 17v254q0 39 -15 49.5t-36 10.5q-17 0 -34.5 -5.5t-31.5 -10.5v-298q0 -6 -3.5 -15t-19.5 -9h-141q-14 0 -19 7t-5 17v659q0 10 5 17t19 7h142q16 0 19.5 -9t3.5 -15v-213q33 18 68.5 27t66.5 9q60 0 93.5 -19.5
t50.5 -49.5t21 -65.5t4 -68.5v-279zM7 710q-11 -8 -18 -10t-16 8l-39 42q-9 9 -10.5 15t9.5 17l132 120q10 9 17 15t28 6h72q21 0 27.5 -4.5t16.5 -13.5l134 -122q11 -11 9.5 -17t-10.5 -15l-40 -43q-9 -10 -15.5 -8t-18.5 10l-142 89z" />
    <glyph glyph-name="Hbar" unicode="&#x126;" horiz-adv-x="671" 
d="M606 488v-464q0 -6 -3.5 -15t-19.5 -9h-149q-14 0 -19 7t-5 17v237h-149v-237q0 -6 -3.5 -15t-19.5 -9h-149q-14 0 -19 7t-5 17v464h-20q-24 0 -24 25v60q0 24 24 24h20v44q0 10 5 17t19 7h149q16 0 19.5 -9t3.5 -15v-44h149v44q0 10 5 17t19 7h149q16 0 19.5 -9t3.5 -15
v-44h22q15 0 19 -6t4 -17v-61q0 -13 -4 -19t-19 -6h-22zM410 488h-149v-65h149v65z" />
    <glyph glyph-name="hbar" unicode="&#x127;" horiz-adv-x="580" 
d="M234 519v-87q33 18 68.5 27t66.5 9q60 0 93.5 -19.5t50.5 -49.5t21 -65.5t4 -68.5v-241q0 -6 -3.5 -15t-19.5 -9h-141q-14 0 -19 7t-5 17v216q0 39 -15 49.5t-36 10.5q-17 0 -34.5 -5.5t-31.5 -10.5v-260q0 -6 -3.5 -15t-19.5 -9h-141q-14 0 -19 7t-5 17v495h-36
q-11 0 -14.5 3.5t-3.5 14.5v61q0 12 3.5 14.5t14.5 2.5h36v68q0 10 5 17t19 7h142q16 0 19.5 -9t3.5 -15v-68h159q11 0 13.5 -3.5t2.5 -14.5v-61q0 -9 -2 -13t-13 -4h-160z" />
    <glyph glyph-name="Itilde" unicode="&#x128;" horiz-adv-x="326" 
d="M65 641q0 10 5 17t19 7h149q16 0 19.5 -9t3.5 -15v-617q0 -6 -3.5 -15t-19.5 -9h-149q-14 0 -19 7t-5 17v617zM249 711q-17 0 -39 7t-44.5 16t-44 16t-37.5 7q-14 0 -29.5 -7t-32.5 -30q-7 -9 -11 -11t-18 5l-46 22q-1 0 -3.5 2t-4.5 5t-3 7.5t1 10.5q28 71 66.5 99.5
t77.5 28.5q23 0 46 -7.5t44.5 -16t41 -16t35.5 -7.5q17 0 31.5 8.5t27.5 29.5q6 10 13 9t18 -7l45 -25q9 -5 12.5 -10t-1.5 -16q-16 -36 -33 -59.5t-35 -37t-37.5 -18.5t-39.5 -5z" />
    <glyph glyph-name="itilde" unicode="&#x129;" horiz-adv-x="442" 
d="M315 24q0 -6 -3.5 -15t-19.5 -9h-141q-14 0 -19 7t-5 17v449q0 10 5 17t19 7h141q16 0 19.5 -9t3.5 -15v-449zM304 541q-17 0 -39 7t-44.5 16t-44 16t-37.5 7q-14 0 -29.5 -7t-32.5 -30q-7 -9 -11 -11t-18 5l-46 22q-1 0 -3.5 2t-4.5 5t-3 7.5t1 10.5q28 71 66.5 99.5
t77.5 28.5q23 0 46 -7.5t44.5 -16t41 -16t35.5 -7.5q17 0 31.5 8.5t27.5 29.5q6 10 13 9t18 -7l45 -25q9 -5 12.5 -10t-1.5 -16q-16 -36 -33 -59.5t-35 -37t-37.5 -18.5t-39.5 -5z" />
    <glyph glyph-name="Imacron" unicode="&#x12a;" horiz-adv-x="355" 
d="M82 641q0 10 5 17t19 7h149q16 0 19.5 -9t3.5 -15v-617q0 -6 -3.5 -15t-19.5 -9h-149q-14 0 -19 7t-5 17v617zM14 701q-24 0 -24 25v86q0 24 24 24h328q15 0 19 -6t4 -17v-87q0 -13 -4 -19t-19 -6h-328z" />
    <glyph glyph-name="imacron" unicode="&#x12b;" horiz-adv-x="355" 
d="M268 24q0 -6 -3.5 -15t-19.5 -9h-141q-14 0 -19 7t-5 17v449q0 10 5 17t19 7h141q16 0 19.5 -9t3.5 -15v-449zM14 560q-24 0 -24 25v86q0 24 24 24h328q15 0 19 -6t4 -17v-87q0 -13 -4 -19t-19 -6h-328z" />
    <glyph glyph-name="Ibreve" unicode="&#x12c;" horiz-adv-x="429" 
d="M216 689q-32 0 -63.5 6.5t-60 20.5t-52.5 36t-39 52q-8 17 -10.5 28.5t11.5 22.5l43 34q17 12 24.5 7.5t19.5 -18.5q27 -32 56.5 -47.5t67.5 -15.5q32 0 64 11.5t61 51.5q11 15 19.5 17.5t24.5 -7.5l42 -25q17 -11 14.5 -23t-13.5 -32q-35 -61 -88 -90t-121 -29zM114 641
q0 10 5 17t19 7h149q16 0 19.5 -9t3.5 -15v-617q0 -6 -3.5 -15t-19.5 -9h-149q-14 0 -19 7t-5 17v617z" />
    <glyph glyph-name="ibreve" unicode="&#x12d;" horiz-adv-x="429" 
d="M303 24q0 -6 -3.5 -15t-19.5 -9h-141q-14 0 -19 7t-5 17v449q0 10 5 17t19 7h141q16 0 19.5 -9t3.5 -15v-449zM216 537q-32 0 -64 8.5t-61 25t-52.5 41t-37.5 56.5q-8 17 -10.5 28.5t11.5 22.5l43 34q17 12 24.5 7.5t19.5 -18.5q34 -40 61 -57t65 -17q32 0 61.5 15
t61.5 59q11 15 19.5 17.5t24.5 -7.5l42 -25q17 -11 14.5 -23t-13.5 -32q-34 -65 -87.5 -100t-121.5 -35z" />
    <glyph glyph-name="Iogonek" unicode="&#x12e;" horiz-adv-x="326" 
d="M65 641q0 10 5 17t19 7h149q16 0 19.5 -9t3.5 -15v-617q0 -6 -3.5 -15t-19.5 -9h-33q-12 -23 -15.5 -40.5t-3.5 -31.5q0 -32 40 -32q14 0 26.5 1.5t27.5 6.5q12 4 16 2t6 -10l14 -44q4 -12 -0.5 -17.5t-12.5 -9.5q-20 -10 -45 -16t-42 -7q-72 -4 -109 28t-37 86
q0 19 6 40t21 44h-8q-14 0 -19 7t-5 17v617z" />
    <glyph glyph-name="iogonek" unicode="&#x12f;" horiz-adv-x="302" 
d="M173 -72q0 -32 40 -32q14 0 26.5 1.5t27.5 6.5q12 4 16 2t6 -10l14 -44q4 -12 -0.5 -17.5t-12.5 -9.5q-20 -10 -48 -16.5t-60 -6.5q-62 0 -93.5 31.5t-31.5 82.5q0 19 6 40t21 44h-5q-14 0 -19 7t-5 17v449q0 10 5 17t19 7h141q16 0 19.5 -9t3.5 -15v-449q0 -6 -3.5 -15
t-19.5 -9h-28q-12 -23 -15.5 -40.5t-3.5 -31.5zM247 627q0 -17 -3.5 -32.5t-14 -28.5t-29.5 -20.5t-49 -7.5q-32 0 -50.5 8t-29 20.5t-13.5 28.5t-3 32q0 18 4.5 34t15 28t29 19t47.5 7q30 0 48.5 -6.5t29 -18.5t14.5 -28t4 -35z" />
    <glyph glyph-name="Idotaccent" unicode="&#x130;" horiz-adv-x="326" 
d="M65 641q0 10 5 17t19 7h149q16 0 19.5 -9t3.5 -15v-617q0 -6 -3.5 -15t-19.5 -9h-149q-14 0 -19 7t-5 17v617zM261 804q0 -17 -3.5 -32.5t-14 -28.5t-29.5 -20.5t-49 -7.5q-32 0 -50.5 8t-29 20.5t-13.5 28.5t-3 32q0 18 4.5 34t15 28t29 19t47.5 7q30 0 48.5 -6.5
t29 -18.5t14.5 -28t4 -35z" />
    <glyph glyph-name="dotlessi" unicode="&#x131;" horiz-adv-x="288" 
d="M238 24q0 -6 -3.5 -15t-19.5 -9h-141q-14 0 -19 7t-5 17v449q0 10 5 17t19 7h141q16 0 19.5 -9t3.5 -15v-449z" />
    <glyph glyph-name="IJ" unicode="&#x132;" horiz-adv-x="799" 
d="M65 641q0 10 5 17t19 7h149q16 0 19.5 -9t3.5 -15v-617q0 -6 -3.5 -15t-19.5 -9h-149q-14 0 -19 7t-5 17v617zM528 641q0 10 5 17t19 7h149q16 0 19.5 -9t3.5 -15v-119.5v-85.5v-64v-55t-0.5 -58t-0.5 -74q0 -92 -57 -143t-175 -51q-11 0 -28 1t-36.5 3.5t-39.5 6
t-36 9.5q-16 5 -25.5 9.5t-14 10t-5 13.5t2.5 20l19 82q5 19 9.5 21.5t20.5 0.5q27 -4 50.5 -5.5t45.5 -1.5q24 0 39 5t23 14t10.5 21t2.5 26z" />
    <glyph glyph-name="ij" unicode="&#x133;" horiz-adv-x="573" 
d="M247 627q0 -17 -3.5 -32.5t-14 -28.5t-29.5 -20.5t-49 -7.5q-32 0 -50.5 8t-29 20.5t-13.5 28.5t-3 32q0 18 4.5 34t15 28t29 19t47.5 7q30 0 48.5 -6.5t29 -18.5t14.5 -28t4 -35zM243 24q0 -6 -3.5 -15t-19.5 -9h-141q-14 0 -19 7t-5 17v449q0 10 5 17t19 7h141
q16 0 19.5 -9t3.5 -15v-449zM515 44q0 -82 -23 -134t-62.5 -80.5t-94 -38t-117.5 -7.5q-7 0 -17 4.5t-12 20.5l-9 102q-2 18 1 21.5t20 7.5q36 8 60 14.5t39 16.5t21 25.5t6 42.5v434q0 10 5 17t19 7h141q16 0 19.5 -9t3.5 -15v-429zM518 627q0 -17 -3.5 -32.5t-14 -28.5
t-29.5 -20.5t-49 -7.5q-32 0 -50.5 8t-29 20.5t-13.5 28.5t-3 32q0 18 4.5 34t15 28t29 19t47.5 7q30 0 48.5 -6.5t29 -18.5t14.5 -28t4 -35z" />
    <glyph glyph-name="Jcircumflex" unicode="&#x134;" horiz-adv-x="532" 
d="M227 642q0 10 5 17t19 7h149q16 0 19.5 -9t3.5 -15v-119.5v-85.5v-64v-55t-0.5 -58t-0.5 -74q0 -92 -57 -143t-175 -51q-11 0 -28 1t-36.5 3.5t-39.5 6t-36 9.5q-16 5 -25.5 9.5t-14 10t-5 13.5t2.5 20l19 82q5 19 9.5 21.5t20.5 0.5q27 -4 50.5 -5.5t45.5 -1.5
q24 0 39 5t23 14t10.5 21t2.5 26zM184 692q-11 -8 -18 -10t-16 8l-39 42q-9 9 -10.5 15t9.5 17l132 120q10 9 17 15t28 6h72q21 0 27.5 -4.5t16.5 -13.5l134 -122q11 -11 9.5 -17t-10.5 -15l-40 -43q-9 -10 -15.5 -8t-18.5 10l-142 89z" />
    <glyph glyph-name="jcircumflex" unicode="&#x135;" horiz-adv-x="449" 
d="M326 44q0 -82 -23 -134t-62.5 -80.5t-94 -38t-117.5 -7.5q-7 0 -17 4.5t-12 20.5l-9 102q-2 14 2 19.5t19 9.5q36 7 60 13.5t39 16.5t21 26t6 43v434q0 10 5 17t19 7h141q16 0 19.5 -9t3.5 -15v-429zM94 549q-11 -8 -18 -10t-16 8l-41 41q-9 9 -10.5 15t9.5 17l134 140
q9 10 16.5 15.5t28.5 5.5h72q21 0 28 -4t16 -14l136 -144q11 -11 9.5 -17t-10.5 -15l-42 -40q-10 -9 -16.5 -7.5t-17.5 9.5l-142 99z" />
    <glyph glyph-name="Kcommaaccent" unicode="&#x136;" horiz-adv-x="650" 
d="M256 457l68 91l75 94q10 11 22.5 17t32.5 6h160q20 0 23.5 -9.5t-8.5 -23.5l-205 -247l215 -348q13 -21 5.5 -29t-19.5 -8h-159q-23 0 -34.5 9t-19.5 22l-116 200l-43 -52v-155q0 -6 -3.5 -15t-19.5 -9h-149q-14 0 -19 7t-5 17v617q0 10 5 17t19 7h149q16 0 19.5 -9
t3.5 -15v-184h3zM407 -143q0 -69 -30.5 -120t-75.5 -77q-15 -8 -25.5 -5.5t-20.5 13.5l-32 33q-8 8 -11.5 13t-3 9.5t5 10.5t13.5 15q18 20 20.5 36t2.5 25q0 15 -8 28t-19 26q-17 18 -19 29.5t21 28.5l77 59q19 14 31 8.5t27 -19.5q23 -22 35 -54t12 -59z" />
    <glyph glyph-name="kcommaaccent" unicode="&#x137;" horiz-adv-x="569" 
d="M235 365l50 62l37 44q11 12 21.5 19t36.5 7h144q21 0 23.5 -9t-10.5 -22l-146 -166l170 -268q10 -15 4.5 -23.5t-23.5 -8.5h-136q-29 0 -41 8t-19 20l-79 132l-35 -42v-94q0 -6 -3.5 -15t-19.5 -9h-140q-14 0 -19 7t-5 17v659q0 10 5 17t19 7h140q16 0 19.5 -9t3.5 -15
v-317zM367 -163q0 -69 -30.5 -120t-75.5 -77q-15 -8 -25.5 -5.5t-20.5 13.5l-32 33q-8 8 -11.5 13t-3 9.5t5 10.5t13.5 15q18 20 20.5 36t2.5 25q0 15 -8 28t-19 26q-17 18 -19 29.5t21 28.5l77 59q19 14 31 8.5t27 -19.5q23 -22 35 -54t12 -59z" />
    <glyph glyph-name="kgreenlandic" unicode="&#x138;" horiz-adv-x="569" 
d="M232 362l53 65l37 44q11 12 21.5 19t36.5 7h144q17 0 21.5 -9t-8.5 -22l-146 -166l170 -268q5 -9 2 -20.5t-21 -11.5h-136q-29 0 -41 8t-19 20l-79 132l-35 -42v-94q0 -6 -3.5 -15t-19.5 -9h-140q-14 0 -19 7t-5 17v449q0 10 5 17t19 7h140q16 0 19.5 -9t3.5 -15v-111z
" />
    <glyph glyph-name="Lacute" unicode="&#x139;" horiz-adv-x="544" 
d="M261 161h255q8 0 13 -4t5 -13v-122q0 -9 -5 -15.5t-19 -6.5h-421q-14 0 -19 7t-5 17v617q0 10 5 17t19 7h148q14 0 19 -6.5t5 -17.5v-480zM354 810q7 -10 4.5 -19.5t-16.5 -14.5l-192 -78q-9 -4 -17 -4.5t-15 9.5l-37 63q-5 7 -5.5 13.5t11.5 14.5l179 113q14 8 22.5 4.5
t12.5 -10.5z" />
    <glyph glyph-name="lacute" unicode="&#x13a;" horiz-adv-x="329" 
d="M243 176q0 -19 9.5 -23t29.5 -6q18 -2 21 -4.5t5 -15.5l5 -93q1 -17 -18 -25q-11 -5 -24 -7.5t-26 -4t-24 -2t-18 -0.5q-72 0 -110 33t-38 117v538q0 10 5 17t19 7h141q16 0 19.5 -9t3.5 -15v-507zM356 850q7 -10 4.5 -19.5t-16.5 -14.5l-192 -78q-9 -4 -17 -4.5t-15 9.5
l-37 63q-5 7 -5.5 13.5t11.5 14.5l179 113q14 8 22.5 4.5t12.5 -10.5z" />
    <glyph glyph-name="Lcommaaccent" unicode="&#x13b;" horiz-adv-x="544" 
d="M261 161h255q8 0 13 -4t5 -13v-122q0 -9 -5 -15.5t-19 -6.5h-421q-14 0 -19 7t-5 17v617q0 10 5 17t19 7h148q14 0 19 -6.5t5 -17.5v-480zM378 -163q0 -69 -30.5 -120t-75.5 -77q-15 -8 -25.5 -5.5t-20.5 13.5l-32 33q-8 8 -11.5 13t-3 9.5t5 10.5t13.5 15q18 20 20.5 36
t2.5 25q0 15 -8 28t-19 26q-17 18 -19 29.5t21 28.5l77 59q19 14 31 8.5t27 -19.5q23 -22 35 -54t12 -59z" />
    <glyph glyph-name="lcommaaccent" unicode="&#x13c;" horiz-adv-x="329" 
d="M243 176q0 -19 9.5 -23t29.5 -6q18 -2 21 -4.5t5 -15.5l5 -93q1 -17 -18 -25q-11 -5 -24 -7.5t-26 -4t-24 -2t-18 -0.5q-72 0 -110 33t-38 117v538q0 10 5 17t19 7h141q16 0 19.5 -9t3.5 -15v-507zM260 -163q0 -69 -30.5 -120t-75.5 -77q-15 -8 -25.5 -5.5t-20.5 13.5
l-32 33q-8 8 -11.5 13t-3 9.5t5 10.5t13.5 15q18 20 20.5 36t2.5 25q0 15 -8 28t-19 26q-17 18 -19 29.5t21 28.5l77 59q19 14 31 8.5t27 -19.5q23 -22 35 -54t12 -59z" />
    <glyph glyph-name="Lcaron" unicode="&#x13d;" horiz-adv-x="544" 
d="M261 161h255q8 0 13 -4t5 -13v-122q0 -9 -5 -15.5t-19 -6.5h-421q-14 0 -19 7t-5 17v617q0 10 5 17t19 7h148q14 0 19 -6.5t5 -17.5v-480zM541 550q0 -69 -30.5 -120t-75.5 -77q-15 -8 -25.5 -5.5t-20.5 13.5l-32 33q-8 8 -11.5 13t-3 9.5t5 10.5t13.5 15q18 20 20.5 36
t2.5 25q0 15 -8 28t-19 26q-17 18 -19 29.5t21 28.5l77 59q19 14 31 8.5t27 -19.5q23 -22 35 -54t12 -59z" />
    <glyph glyph-name="lcaron" unicode="&#x13e;" horiz-adv-x="476" 
d="M488 599q0 -69 -30.5 -120t-75.5 -77q-15 -8 -25.5 -5.5t-20.5 13.5l-32 33q-8 8 -11.5 13t-3 9.5t5 10.5t13.5 15q18 20 20.5 36t2.5 25q0 15 -8 28t-19 26q-17 18 -19 29.5t21 28.5l77 59q19 14 31 8.5t27 -19.5q23 -22 35 -54t12 -59zM243 176q0 -19 9.5 -23t29.5 -6
q18 -2 21 -4.5t5 -15.5l5 -93q1 -17 -18 -25q-11 -5 -24 -7.5t-26 -4t-24 -2t-18 -0.5q-72 0 -110 33t-38 117v538q0 10 5 17t19 7h141q16 0 19.5 -9t3.5 -15v-507z" />
    <glyph glyph-name="Ldot" unicode="&#x13f;" horiz-adv-x="544" 
d="M261 161h255q8 0 13 -4t5 -13v-122q0 -9 -5 -15.5t-19 -6.5h-421q-14 0 -19 7t-5 17v617q0 10 5 17t19 7h148q14 0 19 -6.5t5 -17.5v-480zM528 378q0 -17 -3.5 -32.5t-14 -28.5t-29.5 -20.5t-49 -7.5q-32 0 -50.5 8t-29 20.5t-13.5 28.5t-3 32q0 18 4.5 34t15 28t29 19
t47.5 7q30 0 48.5 -6.5t29 -18.5t14.5 -28t4 -35z" />
    <glyph glyph-name="ldot" unicode="&#x140;" horiz-adv-x="470" 
d="M470 405q0 -17 -3.5 -32.5t-14 -28.5t-29.5 -20.5t-49 -7.5q-32 0 -50.5 8t-29 20.5t-13.5 28.5t-3 32q0 18 4.5 34t15 28t29 19t47.5 7q30 0 48.5 -6.5t29 -18.5t14.5 -28t4 -35zM240 176q0 -19 9.5 -23t29.5 -6q18 -2 21 -4.5t5 -15.5l5 -93q1 -17 -18 -25
q-11 -5 -24 -7.5t-26 -4t-24 -2t-18 -0.5q-72 0 -110 33t-38 117v538q0 10 5 17t19 7h141q16 0 19.5 -9t3.5 -15v-507z" />
    <glyph glyph-name="Lslash" unicode="&#x141;" horiz-adv-x="563" 
d="M280 432l60 35q13 8 19.5 4.5t11.5 -13.5l32 -54q6 -11 6 -18t-14 -15l-115 -68v-142h255q8 0 13 -4t5 -13v-122q0 -9 -5 -15.5t-19 -6.5h-421q-14 0 -19 7t-5 17v165l-19 -11q-11 -7 -19 -4.5t-15 13.5l-31 54q-12 21 9 33l75 43v324q0 10 5 17t19 7h148q14 0 19 -6.5
t5 -17.5v-209z" />
    <glyph glyph-name="lslash" unicode="&#x142;" horiz-adv-x="372" 
d="M270 444l38 22q13 8 19.5 4.5t11.5 -13.5l32 -54q6 -11 6 -18t-14 -15l-93 -55v-139q0 -19 9.5 -23t29.5 -6q18 -2 21 -4.5t5 -15.5l5 -93q1 -17 -18 -25q-11 -5 -24 -7.5t-26 -4t-24 -2t-18 -0.5q-72 0 -110 33t-38 117v61l-17 -10q-11 -7 -19 -4.5t-15 13.5l-31 54
q-12 21 9 33l73 42v349q0 10 5 17t19 7h141q16 0 19.5 -9t3.5 -15v-239z" />
    <glyph glyph-name="Nacute" unicode="&#x143;" horiz-adv-x="688" 
d="M348 169l-90 134h-3v-279q0 -6 -3.5 -15t-19.5 -9h-143q-14 0 -19 7t-5 17v617q0 10 5 17t19 7h102q23 0 31.5 -6t16.5 -18l109 -162l81 -122l4 1v283q0 6 3.5 15t19.5 9h143q14 0 19 -7t5 -17v-617q0 -10 -5 -17t-19 -7h-101q-20 0 -31.5 7.5t-20.5 20.5zM526 810
q7 -10 4.5 -19.5t-16.5 -14.5l-192 -78q-9 -4 -17 -4.5t-15 9.5l-37 63q-5 7 -5.5 13.5t11.5 14.5l179 113q14 8 22.5 4.5t12.5 -10.5z" />
    <glyph glyph-name="nacute" unicode="&#x144;" horiz-adv-x="580" 
d="M243 454l2 -1q38 29 79.5 40.5t69.5 11.5q55 0 86 -19.5t46 -49.5t18.5 -65.5t3.5 -68.5v-278q0 -6 -3.5 -15t-19.5 -9h-141q-14 0 -19 7t-5 17v246q0 39 -14 49.5t-37 10.5q-17 0 -34.5 -5.5t-31.5 -10.5v-290q0 -6 -3.5 -15t-19.5 -9h-141q-14 0 -19 7t-5 17v449
q0 10 5 17t19 7h141q16 0 19.5 -9t3.5 -15v-19zM425 745q11 -6 13 -15.5t-7 -21.5l-131 -160q-6 -8 -13 -12t-17 2l-63 36q-8 5 -11.5 10.5t3.5 17.5l103 185q8 14 17 15t16 -3z" />
    <glyph glyph-name="Ncommaaccent" unicode="&#x145;" horiz-adv-x="688" 
d="M348 169l-90 134h-3v-279q0 -6 -3.5 -15t-19.5 -9h-143q-14 0 -19 7t-5 17v617q0 10 5 17t19 7h102q23 0 31.5 -6t16.5 -18l109 -162l81 -122l4 1v283q0 6 3.5 15t19.5 9h143q14 0 19 -7t5 -17v-617q0 -10 -5 -17t-19 -7h-101q-20 0 -31.5 7.5t-20.5 20.5zM431 -143
q0 -69 -30.5 -120t-75.5 -77q-15 -8 -25.5 -5.5t-20.5 13.5l-32 33q-8 8 -11.5 13t-3 9.5t5 10.5t13.5 15q18 20 20.5 36t2.5 25q0 15 -8 28t-19 26q-17 18 -19 29.5t21 28.5l77 59q19 14 31 8.5t27 -19.5q23 -22 35 -54t12 -59z" />
    <glyph glyph-name="ncommaaccent" unicode="&#x146;" horiz-adv-x="580" 
d="M243 454l2 -1q38 29 79.5 40.5t69.5 11.5q55 0 86 -19.5t46 -49.5t18.5 -65.5t3.5 -68.5v-278q0 -6 -3.5 -15t-19.5 -9h-141q-14 0 -19 7t-5 17v246q0 39 -14 49.5t-37 10.5q-17 0 -34.5 -5.5t-31.5 -10.5v-290q0 -6 -3.5 -15t-19.5 -9h-141q-14 0 -19 7t-5 17v449
q0 10 5 17t19 7h141q16 0 19.5 -9t3.5 -15v-19zM377 -163q0 -69 -30.5 -120t-75.5 -77q-15 -8 -25.5 -5.5t-20.5 13.5l-32 33q-8 8 -11.5 13t-3 9.5t5 10.5t13.5 15q18 20 20.5 36t2.5 25q0 15 -8 28t-19 26q-17 18 -19 29.5t21 28.5l77 59q19 14 31 8.5t27 -19.5
q23 -22 35 -54t12 -59z" />
    <glyph glyph-name="Ncaron" unicode="&#x147;" horiz-adv-x="688" 
d="M348 169l-90 134h-3v-279q0 -6 -3.5 -15t-19.5 -9h-143q-14 0 -19 7t-5 17v617q0 10 5 17t19 7h102q23 0 31.5 -6t16.5 -18l109 -162l81 -122l4 1v283q0 6 3.5 15t19.5 9h143q14 0 19 -7t5 -17v-617q0 -10 -5 -17t-19 -7h-101q-20 0 -31.5 7.5t-20.5 20.5zM342 824
l142 79q11 8 17.5 9.5t16.5 -7.5l39 -42q9 -9 10.5 -15t-9.5 -17l-133 -122q-9 -10 -16 -14t-28 -4h-72q-21 0 -28.5 5.5t-16.5 15.5l-130 119q-11 11 -9.5 17t10.5 15l37 42q9 10 16 8t18 -10z" />
    <glyph glyph-name="ncaron" unicode="&#x148;" horiz-adv-x="580" 
d="M243 454l2 -1q38 29 79.5 40.5t69.5 11.5q55 0 86 -19.5t46 -49.5t18.5 -65.5t3.5 -68.5v-278q0 -6 -3.5 -15t-19.5 -9h-141q-14 0 -19 7t-5 17v246q0 39 -14 49.5t-37 10.5q-17 0 -34.5 -5.5t-31.5 -10.5v-290q0 -6 -3.5 -15t-19.5 -9h-141q-14 0 -19 7t-5 17v449
q0 10 5 17t19 7h141q16 0 19.5 -9t3.5 -15v-19zM269 660l142 99q11 8 17.5 9.5t16.5 -7.5l42 -40q9 -9 10.5 -15t-9.5 -17l-136 -144q-9 -10 -16 -14t-28 -4h-72q-21 0 -28.5 5.5t-16.5 15.5l-134 140q-11 11 -9.5 17t10.5 15l41 41q9 10 16 8t18 -10z" />
    <glyph glyph-name="napostrophe" unicode="&#x149;" horiz-adv-x="729" 
d="M392 454l2 -1q38 29 79.5 40.5t69.5 11.5q55 0 86 -19.5t46 -49.5t18.5 -65.5t3.5 -68.5v-278q0 -6 -3.5 -15t-19.5 -9h-141q-14 0 -19 7t-5 17v246q0 39 -14 49.5t-37 10.5q-17 0 -34.5 -5.5t-31.5 -10.5v-290q0 -6 -3.5 -15t-19.5 -9h-141q-14 0 -19 7t-5 17v449
q0 10 5 17t19 7h141q16 0 19.5 -9t3.5 -15v-19zM203 624q0 -69 -30.5 -120t-75.5 -77q-15 -8 -25.5 -5.5t-20.5 13.5l-32 33q-8 8 -11.5 13t-3 9.5t5 10.5t13.5 15q18 20 20.5 36t2.5 25q0 15 -8 28t-19 26q-17 18 -19 29.5t21 28.5l77 59q19 14 31 8.5t27 -19.5
q23 -22 35 -54t12 -59z" />
    <glyph glyph-name="Eng" unicode="&#x14a;" horiz-adv-x="688" 
d="M255 303v-279q0 -6 -3.5 -15t-19.5 -9h-143q-14 0 -19 7t-5 17v617q0 10 5 17t19 7h102q23 0 31.5 -6t16.5 -18l109 -162l81 -122l4 1v283q0 6 3.5 15t19.5 9h143q14 0 19 -7t5 -17v-694q0 -40 -11.5 -73.5t-36 -58t-62.5 -38t-92 -13.5q-14 0 -38 1t-41 6q-8 2 -10.5 7
t-1.5 14l10 114q1 8 5 10t12 3q25 2 40 5.5t23.5 11t11.5 19.5t3 30v59l-87 125l-90 134h-3z" />
    <glyph glyph-name="eng" unicode="&#x14b;" horiz-adv-x="580" 
d="M233 454l2 -1q38 29 79.5 40.5t69.5 11.5q55 0 86 -19.5t46 -49.5t18.5 -65.5t3.5 -68.5v-355q0 -40 -11.5 -73.5t-36 -58t-62.5 -38t-92 -13.5q-14 0 -38 1t-41 6q-8 2 -10.5 7t-1.5 14l10 114q1 8 5 10t12 3q25 2 40 5.5t23.5 11t11.5 19.5t3 30v285q0 39 -14 49.5
t-37 10.5q-17 0 -34.5 -5.5t-31.5 -10.5v-290q0 -6 -3.5 -15t-19.5 -9h-141q-14 0 -19 7t-5 17v449q0 10 5 17t19 7h141q16 0 19.5 -9t3.5 -15v-19z" />
    <glyph glyph-name="Omacron" unicode="&#x14c;" horiz-adv-x="712" 
d="M657 341q0 -37 -3.5 -77.5t-15 -79t-32 -74t-54.5 -62t-82.5 -42t-116.5 -15.5t-116.5 15.5t-81.5 42.5t-53 62t-30.5 74t-13.5 79t-3 77q0 29 3.5 64.5t14.5 72.5t31 72t53.5 62.5t81 44t114.5 16.5q98 0 157.5 -30t92 -77.5t43.5 -106.5t11 -118zM454 330q0 48 -5 81.5
t-16.5 54.5t-30.5 30t-47 9q-51 0 -71.5 -40t-20.5 -135q0 -92 20 -131.5t72 -39.5q54 0 76.5 40t22.5 131zM192 701q-24 0 -24 25v86q0 24 24 24h328q15 0 19 -6t4 -17v-87q0 -13 -4 -19t-19 -6h-328z" />
    <glyph glyph-name="omacron" unicode="&#x14d;" horiz-adv-x="571" 
d="M531 255q0 -40 -6.5 -86t-31.5 -85.5t-74.5 -65.5t-136.5 -26q-85 0 -133.5 26t-72.5 65.5t-30 85.5t-6 86q0 33 7.5 76.5t32.5 82t73 65.5t129 27t130 -23t75.5 -59.5t35 -81t8.5 -87.5zM340 249q0 50 -10 74t-46 24q-31 0 -42.5 -25.5t-11.5 -72.5q0 -53 10.5 -76
t41.5 -23q35 0 46.5 24.5t11.5 74.5zM122 560q-24 0 -24 25v86q0 24 24 24h328q15 0 19 -6t4 -17v-87q0 -13 -4 -19t-19 -6h-328z" />
    <glyph glyph-name="Obreve" unicode="&#x14e;" horiz-adv-x="712" 
d="M657 341q0 -37 -3.5 -77.5t-15 -79t-32 -74t-54.5 -62t-82.5 -42t-116.5 -15.5t-116.5 15.5t-81.5 42.5t-53 62t-30.5 74t-13.5 79t-3 77q0 29 3.5 64.5t14.5 72.5t31 72t53.5 62.5t81 44t114.5 16.5q98 0 157.5 -30t92 -77.5t43.5 -106.5t11 -118zM454 330q0 48 -5 81.5
t-16.5 54.5t-30.5 30t-47 9q-51 0 -71.5 -40t-20.5 -135q0 -92 20 -131.5t72 -39.5q54 0 76.5 40t22.5 131zM352 689q-32 0 -63.5 6.5t-60 20.5t-52.5 36t-39 52q-8 17 -10.5 28.5t11.5 22.5l43 34q17 12 24.5 7.5t19.5 -18.5q27 -32 56.5 -47.5t67.5 -15.5q32 0 64 11.5
t61 51.5q11 15 19.5 17.5t24.5 -7.5l42 -25q17 -11 14.5 -23t-13.5 -32q-35 -61 -88 -90t-121 -29z" />
    <glyph glyph-name="obreve" unicode="&#x14f;" horiz-adv-x="571" 
d="M531 255q0 -40 -6.5 -86t-31.5 -85.5t-74.5 -65.5t-136.5 -26q-85 0 -133.5 26t-72.5 65.5t-30 85.5t-6 86q0 33 7.5 76.5t32.5 82t73 65.5t129 27t130 -23t75.5 -59.5t35 -81t8.5 -87.5zM340 249q0 50 -10 74t-46 24q-31 0 -42.5 -25.5t-11.5 -72.5q0 -53 10.5 -76
t41.5 -23q35 0 46.5 24.5t11.5 74.5zM279 531q-32 0 -64 8.5t-61 25t-52.5 41t-37.5 56.5q-8 17 -10.5 28.5t11.5 22.5l43 34q17 12 24.5 7.5t19.5 -18.5q34 -40 61 -57t65 -17q32 0 61.5 15t61.5 59q11 15 19.5 17.5t24.5 -7.5l42 -25q17 -11 14.5 -23t-13.5 -32
q-34 -65 -87.5 -100t-121.5 -35z" />
    <glyph glyph-name="Ohungarumlaut" unicode="&#x150;" horiz-adv-x="712" 
d="M657 341q0 -37 -3.5 -77.5t-15 -79t-32 -74t-54.5 -62t-82.5 -42t-116.5 -15.5t-116.5 15.5t-81.5 42.5t-53 62t-30.5 74t-13.5 79t-3 77q0 29 3.5 64.5t14.5 72.5t31 72t53.5 62.5t81 44t114.5 16.5q98 0 157.5 -30t92 -77.5t43.5 -106.5t11 -118zM454 330q0 48 -5 81.5
t-16.5 54.5t-30.5 30t-47 9q-51 0 -71.5 -40t-20.5 -135q0 -92 20 -131.5t72 -39.5q54 0 76.5 40t22.5 131zM412 824q8 -9 6.5 -18.5t-14.5 -17.5l-180 -102q-8 -5 -16 -6.5t-16 7.5l-45 57q-5 7 -7 13.5t9 15.5l163 135q12 10 21 7.5t14 -8.5zM676 824q8 -9 6.5 -18.5
t-14.5 -17.5l-180 -102q-8 -5 -16 -6.5t-16 7.5l-45 57q-5 7 -7 13.5t9 15.5l163 135q12 10 21 7.5t14 -8.5z" />
    <glyph glyph-name="ohungarumlaut" unicode="&#x151;" horiz-adv-x="571" 
d="M531 255q0 -40 -6.5 -86t-31.5 -85.5t-74.5 -65.5t-136.5 -26q-85 0 -133.5 26t-72.5 65.5t-30 85.5t-6 86q0 33 7.5 76.5t32.5 82t73 65.5t129 27t130 -23t75.5 -59.5t35 -81t8.5 -87.5zM340 249q0 50 -10 74t-46 24q-31 0 -42.5 -25.5t-11.5 -72.5q0 -53 10.5 -76
t41.5 -23q35 0 46.5 24.5t11.5 74.5zM353 745q11 -6 13 -15.5t-7 -21.5l-131 -160q-6 -8 -13 -12t-17 2l-63 36q-8 5 -11.5 10.5t3.5 17.5l103 185q8 14 17 15t16 -3zM550 745q11 -6 13 -15.5t-7 -21.5l-131 -160q-6 -8 -13 -12t-17 2l-63 36q-8 5 -11.5 10.5t3.5 17.5
l103 185q8 14 17 15t16 -3z" />
    <glyph glyph-name="OE" unicode="&#x152;" horiz-adv-x="870" 
d="M353 673q24 0 46 -2t42 -6h356q11 0 17.5 -6.5t6.5 -17.5v-115q0 -9 -5 -15.5t-19 -6.5h-235v-80h201q11 0 17.5 -6.5t6.5 -17.5v-115q0 -9 -5 -15.5t-19 -6.5h-201v-102h239q11 0 17.5 -6.5t6.5 -17.5v-115q0 -9 -5 -15.5t-19 -6.5h-357q-41 -9 -91 -9
q-68 0 -116.5 15.5t-81.5 42.5t-53 62t-30.5 74t-13.5 79t-3 77q0 29 3.5 64.5t14.5 72.5t31 72t53.5 62.5t81 44t114.5 16.5zM366 159v345q-3 0 -5.5 0.5t-5.5 0.5q-51 0 -71.5 -40t-20.5 -135q0 -92 20 -131.5t72 -39.5h11z" />
    <glyph glyph-name="oe" unicode="&#x153;" horiz-adv-x="856" 
d="M534 207q2 -21 10 -33.5t21 -19t30 -8t37 -1.5t47.5 2t60.5 7q23 3 29 -1t10 -25l10 -59q5 -23 0.5 -34t-33.5 -22q-15 -5 -35.5 -9t-42.5 -7t-43.5 -4.5t-39.5 -1.5q-54 0 -94 13t-66 37q-24 -23 -63 -36t-90 -13q-85 0 -133.5 26t-72.5 65.5t-30 85.5t-6 86
q0 33 7.5 76.5t32.5 82t73 65.5t129 27q51 0 90 -12t65 -35q26 21 62 34t85 13q75 0 121.5 -21t72 -54.5t34.5 -74.5t9 -81q0 -34 -13 -51t-47 -17h-227zM340 249q0 50 -10 74t-46 24q-31 0 -42.5 -25.5t-11.5 -72.5q0 -53 10.5 -76t41.5 -23q35 0 46.5 24.5t11.5 74.5z
M585 363q-19 0 -31.5 -12t-14.5 -36h87q0 20 -10.5 34t-30.5 14z" />
    <glyph glyph-name="Racute" unicode="&#x154;" horiz-adv-x="634" 
d="M600 29q7 -14 2.5 -21.5t-17.5 -7.5h-153q-18 0 -29 5.5t-18 20.5l-89 215h-35v-217q0 -6 -3.5 -15t-19.5 -9h-149q-14 0 -19 7t-5 17v617q0 10 5 17t19 7h265q42 0 83 -12t73.5 -37.5t53 -65t20.5 -94.5q0 -24 -5 -49t-16.5 -49t-31 -45t-47.5 -36zM382 452q0 26 -16 39
t-43 13h-62v-107h60q10 0 20.5 2t19.5 8t15 17t6 28zM488 810q7 -10 4.5 -19.5t-16.5 -14.5l-192 -78q-9 -4 -17 -4.5t-15 9.5l-37 63q-5 7 -5.5 13.5t11.5 14.5l179 113q14 8 22.5 4.5t12.5 -10.5z" />
    <glyph glyph-name="racute" unicode="&#x155;" horiz-adv-x="449" 
d="M244 422l2 -2q15 16 34 30.5t38.5 25t37.5 17.5t32 9q21 3 29.5 -0.5t11.5 -26.5l15 -124q1 -8 1 -13.5t-3 -9t-10.5 -6t-21.5 -5.5q-47 -9 -84.5 -18t-81.5 -24v-251q0 -6 -3.5 -15t-19.5 -9h-141q-14 0 -19 7t-5 17v449q0 10 5 17t19 7h141q16 0 19.5 -9t3.5 -15v-51z
M346 745q11 -6 13 -15.5t-7 -21.5l-131 -160q-6 -8 -13 -12t-17 2l-63 36q-8 5 -11.5 10.5t3.5 17.5l103 185q8 14 17 15t16 -3z" />
    <glyph glyph-name="Rcommaaccent" unicode="&#x156;" horiz-adv-x="634" 
d="M600 29q7 -14 2.5 -21.5t-17.5 -7.5h-153q-18 0 -29 5.5t-18 20.5l-89 215h-35v-217q0 -6 -3.5 -15t-19.5 -9h-149q-14 0 -19 7t-5 17v617q0 10 5 17t19 7h265q42 0 83 -12t73.5 -37.5t53 -65t20.5 -94.5q0 -24 -5 -49t-16.5 -49t-31 -45t-47.5 -36zM382 452q0 26 -16 39
t-43 13h-62v-107h60q10 0 20.5 2t19.5 8t15 17t6 28zM413 -143q0 -69 -30.5 -120t-75.5 -77q-15 -8 -25.5 -5.5t-20.5 13.5l-32 33q-8 8 -11.5 13t-3 9.5t5 10.5t13.5 15q18 20 20.5 36t2.5 25q0 15 -8 28t-19 26q-17 18 -19 29.5t21 28.5l77 59q19 14 31 8.5t27 -19.5
q23 -22 35 -54t12 -59z" />
    <glyph glyph-name="rcommaaccent" unicode="&#x157;" horiz-adv-x="449" 
d="M244 422l2 -2q15 16 34 30.5t38.5 25t37.5 17.5t32 9q21 3 29.5 -0.5t11.5 -26.5l15 -124q1 -8 1 -13.5t-3 -9t-10.5 -6t-21.5 -5.5q-47 -9 -84.5 -18t-81.5 -24v-251q0 -6 -3.5 -15t-19.5 -9h-141q-14 0 -19 7t-5 17v449q0 10 5 17t19 7h141q16 0 19.5 -9t3.5 -15v-51z
M244 -163q0 -69 -30.5 -120t-75.5 -77q-15 -8 -25.5 -5.5t-20.5 13.5l-32 33q-8 8 -11.5 13t-3 9.5t5 10.5t13.5 15q18 20 20.5 36t2.5 25q0 15 -8 28t-19 26q-17 18 -19 29.5t21 28.5l77 59q19 14 31 8.5t27 -19.5q23 -22 35 -54t12 -59z" />
    <glyph glyph-name="Rcaron" unicode="&#x158;" horiz-adv-x="634" 
d="M600 29q7 -14 2.5 -21.5t-17.5 -7.5h-153q-18 0 -29 5.5t-18 20.5l-89 215h-35v-217q0 -6 -3.5 -15t-19.5 -9h-149q-14 0 -19 7t-5 17v617q0 10 5 17t19 7h265q42 0 83 -12t73.5 -37.5t53 -65t20.5 -94.5q0 -24 -5 -49t-16.5 -49t-31 -45t-47.5 -36zM382 452q0 26 -16 39
t-43 13h-62v-107h60q10 0 20.5 2t19.5 8t15 17t6 28zM302 824l142 79q11 8 17.5 9.5t16.5 -7.5l39 -42q9 -9 10.5 -15t-9.5 -17l-133 -122q-9 -10 -16 -14t-28 -4h-72q-21 0 -28.5 5.5t-16.5 15.5l-130 119q-11 11 -9.5 17t10.5 15l37 42q9 10 16 8t18 -10z" />
    <glyph glyph-name="rcaron" unicode="&#x159;" horiz-adv-x="449" 
d="M244 422l2 -2q15 16 34 30.5t38.5 25t37.5 17.5t32 9q21 3 29.5 -0.5t11.5 -26.5l15 -124q1 -8 1 -13.5t-3 -9t-10.5 -6t-21.5 -5.5q-47 -9 -84.5 -18t-81.5 -24v-251q0 -6 -3.5 -15t-19.5 -9h-141q-14 0 -19 7t-5 17v449q0 10 5 17t19 7h141q16 0 19.5 -9t3.5 -15v-51z
M198 660l142 99q11 8 17.5 9.5t16.5 -7.5l42 -40q9 -9 10.5 -15t-9.5 -17l-136 -144q-9 -10 -16 -14t-28 -4h-72q-21 0 -28.5 5.5t-16.5 15.5l-134 140q-11 11 -9.5 17t10.5 15l41 41q9 10 16 8t18 -10z" />
    <glyph glyph-name="Sacute" unicode="&#x15a;" horiz-adv-x="607" 
d="M284 -9q-14 0 -37 1t-50 4.5t-56.5 9.5t-56.5 17q-15 6 -23 11.5t-11 11.5t-3 13t2 16l15 72q3 12 6 18.5t8 8.5t13 1.5t21 -2.5q34 -5 80.5 -9.5t93.5 -4.5q40 0 56.5 10t16.5 33q0 22 -18 29.5t-53 16.5q-43 10 -86 24t-78 37t-57 59.5t-22 93.5q0 51 18.5 90t51.5 66
t80 40.5t104 13.5q14 0 36.5 -1t49.5 -4t55.5 -9t55.5 -16q15 -6 23 -11.5t11 -11.5t2.5 -13t-1.5 -16l-17 -73q-3 -13 -7 -19t-10 -7.5t-15 0t-22 2.5q-17 2 -32.5 4t-32.5 3.5t-36 2t-42 0.5q-28 0 -46.5 -7t-18.5 -30q0 -20 13.5 -27.5t50.5 -16.5q42 -10 86 -22.5
t79.5 -35.5t58 -60.5t22.5 -97.5q0 -62 -24 -103t-63 -66t-89 -35.5t-102 -10.5zM458 810q7 -10 4.5 -19.5t-16.5 -14.5l-192 -78q-9 -4 -17 -4.5t-15 9.5l-37 63q-5 7 -5.5 13.5t11.5 14.5l179 113q14 8 22.5 4.5t12.5 -10.5z" />
    <glyph glyph-name="sacute" unicode="&#x15b;" horiz-adv-x="512" 
d="M477 164q0 -49 -20 -82t-53 -53.5t-75.5 -29t-88.5 -8.5q-18 0 -39 1.5t-42.5 4.5t-41.5 7t-36 9q-33 11 -41.5 22.5t-2.5 37.5l14 59q4 17 10 20.5t26 -0.5q37 -7 77.5 -10.5t66.5 -3.5q31 0 43 5t12 16t-9 15t-29 6q-44 6 -81.5 14t-65.5 24.5t-44 44.5t-16 75
q0 42 17 73.5t46 52.5t69 31.5t86 10.5q18 0 38.5 -1.5t41.5 -4.5t40.5 -7t35.5 -9q26 -9 39 -17.5t7 -33.5l-15 -63q-4 -17 -8 -20t-24 -1q-18 2 -39.5 4.5t-42 4t-38 3t-26.5 1.5q-30 1 -35 -5t-5 -12q0 -10 16 -13t28 -5q41 -5 78.5 -13t65.5 -25t44.5 -47t16.5 -78z
M401 745q11 -6 13 -15.5t-7 -21.5l-131 -160q-6 -8 -13 -12t-17 2l-63 36q-8 5 -11.5 10.5t3.5 17.5l103 185q8 14 17 15t16 -3z" />
    <glyph glyph-name="Scircumflex" unicode="&#x15c;" horiz-adv-x="607" 
d="M284 -9q-14 0 -37 1t-50 4.5t-56.5 9.5t-56.5 17q-15 6 -23 11.5t-11 11.5t-3 13t2 16l15 72q3 12 6 18.5t8 8.5t13 1.5t21 -2.5q34 -5 80.5 -9.5t93.5 -4.5q40 0 56.5 10t16.5 33q0 22 -18 29.5t-53 16.5q-43 10 -86 24t-78 37t-57 59.5t-22 93.5q0 51 18.5 90t51.5 66
t80 40.5t104 13.5q14 0 36.5 -1t49.5 -4t55.5 -9t55.5 -16q15 -6 23 -11.5t11 -11.5t2.5 -13t-1.5 -16l-17 -73q-3 -13 -7 -19t-10 -7.5t-15 0t-22 2.5q-17 2 -32.5 4t-32.5 3.5t-36 2t-42 0.5q-28 0 -46.5 -7t-18.5 -30q0 -20 13.5 -27.5t50.5 -16.5q42 -10 86 -22.5
t79.5 -35.5t58 -60.5t22.5 -97.5q0 -62 -24 -103t-63 -66t-89 -35.5t-102 -10.5zM170 690q-11 -8 -18 -10t-16 8l-39 42q-9 9 -10.5 15t9.5 17l132 120q10 9 17 15t28 6h72q21 0 27.5 -4.5t16.5 -13.5l134 -122q11 -11 9.5 -17t-10.5 -15l-40 -43q-9 -10 -15.5 -8t-18.5 10
l-142 89z" />
    <glyph glyph-name="scircumflex" unicode="&#x15d;" horiz-adv-x="512" 
d="M477 164q0 -49 -20 -82t-53 -53.5t-75.5 -29t-88.5 -8.5q-18 0 -39 1.5t-42.5 4.5t-41.5 7t-36 9q-33 11 -41.5 22.5t-2.5 37.5l14 59q4 17 10 20.5t26 -0.5q37 -7 77.5 -10.5t66.5 -3.5q31 0 43 5t12 16t-9 15t-29 6q-44 6 -81.5 14t-65.5 24.5t-44 44.5t-16 75
q0 42 17 73.5t46 52.5t69 31.5t86 10.5q18 0 38.5 -1.5t41.5 -4.5t40.5 -7t35.5 -9q26 -9 39 -17.5t7 -33.5l-15 -63q-4 -17 -8 -20t-24 -1q-18 2 -39.5 4.5t-42 4t-38 3t-26.5 1.5q-30 1 -35 -5t-5 -12q0 -10 16 -13t28 -5q41 -5 78.5 -13t65.5 -25t44.5 -47t16.5 -78z
M108 525q-11 -8 -18 -10t-16 8l-41 41q-9 9 -10.5 15t9.5 17l134 140q9 10 16.5 15.5t28.5 5.5h72q21 0 28 -4t16 -14l136 -144q11 -11 9.5 -17t-10.5 -15l-42 -40q-10 -9 -16.5 -7.5t-17.5 9.5l-142 99z" />
    <glyph glyph-name="Scedilla" unicode="&#x15e;" horiz-adv-x="607" 
d="M316 -134q0 11 -5 16t-14.5 7.5t-24.5 3t-34 1.5q-24 3 -15 26l25 72q-34 2 -78.5 8.5t-85.5 22.5q-15 6 -23 11.5t-11 11.5t-3 13t2 16l15 72q3 12 6 18.5t8 8.5t13 1.5t21 -2.5q34 -5 80.5 -9.5t93.5 -4.5q40 0 56.5 10t16.5 33q0 22 -18 29.5t-53 16.5q-43 10 -86 24
t-78 37t-57 59.5t-22 93.5q0 51 18.5 90t51.5 66t80 40.5t104 13.5q14 0 36.5 -1t49.5 -4t55.5 -9t55.5 -16q15 -6 23 -11.5t11 -11.5t2.5 -13t-1.5 -16l-17 -73q-3 -13 -7 -19t-10 -7.5t-15 0t-22 2.5q-17 2 -32.5 4t-32.5 3.5t-36 2t-42 0.5q-28 0 -46.5 -7t-18.5 -30
q0 -20 13.5 -27.5t50.5 -16.5q42 -10 86 -22.5t79.5 -35.5t58 -60.5t22.5 -97.5q0 -56 -20 -94.5t-53 -64t-76 -38.5t-89 -16l-16 -42q36 -2 57.5 -10t33 -20t15.5 -27.5t4 -30.5q0 -23 -8.5 -44t-27.5 -37t-48 -25.5t-69 -9.5q-8 0 -19.5 0.5t-25 2t-26 4t-21.5 5.5
q-5 2 -8 5t-1 8l10 51q1 7 13 6q16 -2 34.5 -4t32.5 -2q12 0 23.5 1.5t20 6t13.5 13t5 22.5z" />
    <glyph glyph-name="scedilla" unicode="&#x15f;" horiz-adv-x="512" 
d="M279 -134q0 11 -5 16t-14.5 7.5t-24.5 3t-34 1.5q-24 3 -15 26l25 72q-33 2 -68.5 7.5t-61.5 13.5q-33 11 -41.5 22.5t-2.5 37.5l14 59q4 17 10 20.5t26 -0.5q37 -7 77.5 -10.5t66.5 -3.5q31 0 43 5t12 16t-9 15t-29 6q-44 6 -81.5 14t-65.5 24.5t-44 44.5t-16 75
q0 42 17 73.5t46 52.5t69 31.5t86 10.5q18 0 38.5 -1.5t41.5 -4.5t40.5 -7t35.5 -9q26 -9 39 -17.5t7 -33.5l-15 -63q-4 -17 -8 -20t-24 -1q-18 2 -39.5 4.5t-42 4t-38 3t-26.5 1.5q-30 1 -35 -5t-5 -12q0 -10 16 -13t28 -5q41 -5 78.5 -13t65.5 -25t44.5 -47t16.5 -78
q0 -43 -15 -73.5t-41 -50.5t-60.5 -31t-73.5 -15l-16 -43q36 -2 57.5 -10t33 -20t15.5 -27.5t4 -30.5q0 -23 -8.5 -44t-27.5 -37t-48 -25.5t-69 -9.5q-8 0 -19.5 0.5t-25 2t-26 4t-21.5 5.5q-5 2 -8 5t-1 8l10 51q1 7 13 6q16 -2 34.5 -4t32.5 -2q12 0 23.5 1.5t20 6
t13.5 13t5 22.5z" />
    <glyph glyph-name="Scaron" unicode="&#x160;" horiz-adv-x="607" 
d="M284 -9q-14 0 -37 1t-50 4.5t-56.5 9.5t-56.5 17q-15 6 -23 11.5t-11 11.5t-3 13t2 16l15 72q3 12 6 18.5t8 8.5t13 1.5t21 -2.5q34 -5 80.5 -9.5t93.5 -4.5q40 0 56.5 10t16.5 33q0 22 -18 29.5t-53 16.5q-43 10 -86 24t-78 37t-57 59.5t-22 93.5q0 51 18.5 90t51.5 66
t80 40.5t104 13.5q14 0 36.5 -1t49.5 -4t55.5 -9t55.5 -16q15 -6 23 -11.5t11 -11.5t2.5 -13t-1.5 -16l-17 -73q-3 -13 -7 -19t-10 -7.5t-15 0t-22 2.5q-17 2 -32.5 4t-32.5 3.5t-36 2t-42 0.5q-28 0 -46.5 -7t-18.5 -30q0 -20 13.5 -27.5t50.5 -16.5q42 -10 86 -22.5
t79.5 -35.5t58 -60.5t22.5 -97.5q0 -62 -24 -103t-63 -66t-89 -35.5t-102 -10.5zM296 824l142 79q11 8 17.5 9.5t16.5 -7.5l39 -42q9 -9 10.5 -15t-9.5 -17l-133 -122q-9 -10 -16 -14t-28 -4h-72q-21 0 -28.5 5.5t-16.5 15.5l-130 119q-11 11 -9.5 17t10.5 15l37 42
q9 10 16 8t18 -10z" />
    <glyph glyph-name="scaron" unicode="&#x161;" horiz-adv-x="512" 
d="M477 164q0 -49 -20 -82t-53 -53.5t-75.5 -29t-88.5 -8.5q-18 0 -39 1.5t-42.5 4.5t-41.5 7t-36 9q-33 11 -41.5 22.5t-2.5 37.5l14 59q4 17 10 20.5t26 -0.5q37 -7 77.5 -10.5t66.5 -3.5q31 0 43 5t12 16t-9 15t-29 6q-44 6 -81.5 14t-65.5 24.5t-44 44.5t-16 75
q0 42 17 73.5t46 52.5t69 31.5t86 10.5q18 0 38.5 -1.5t41.5 -4.5t40.5 -7t35.5 -9q26 -9 39 -17.5t7 -33.5l-15 -63q-4 -17 -8 -20t-24 -1q-18 2 -39.5 4.5t-42 4t-38 3t-26.5 1.5q-30 1 -35 -5t-5 -12q0 -10 16 -13t28 -5q41 -5 78.5 -13t65.5 -25t44.5 -47t16.5 -78z
M254 660l142 99q11 8 17.5 9.5t16.5 -7.5l42 -40q9 -9 10.5 -15t-9.5 -17l-136 -144q-9 -10 -16 -14t-28 -4h-72q-21 0 -28.5 5.5t-16.5 15.5l-134 140q-11 11 -9.5 17t10.5 15l41 41q9 10 16 8t18 -10z" />
    <glyph glyph-name="Tcommaaccent" unicode="&#x162;" horiz-adv-x="539" 
d="M529 526q0 -9 -5 -15.5t-19 -6.5h-138v-480q0 -6 -3.5 -15t-19.5 -9h-149q-14 0 -19 7t-5 17v480h-137q-16 0 -20 6.5t-4 15.5v115q0 11 4 17.5t20 6.5h471q11 0 17.5 -6.5t6.5 -17.5v-115zM355 -163q0 -69 -30.5 -120t-75.5 -77q-15 -8 -25.5 -5.5t-20.5 13.5l-32 33
q-8 8 -11.5 13t-3 9.5t5 10.5t13.5 15q18 20 20.5 36t2.5 25q0 15 -8 28t-19 26q-17 18 -19 29.5t21 28.5l77 59q19 14 31 8.5t27 -19.5q23 -22 35 -54t12 -59z" />
    <glyph glyph-name="tcommaaccent" unicode="&#x163;" horiz-adv-x="449" 
d="M437 55q2 -16 -5 -24.5t-18 -12.5q-22 -9 -46 -14t-46.5 -7.5t-42 -3.5t-32.5 -1q-88 0 -124.5 41.5t-36.5 117.5v201h-38q-24 0 -24 25v96q0 24 24 24h40v94q0 13 6.5 19t17.5 9l129 34q13 3 21 -2t8 -19v-135h98q15 0 19 -6t4 -17v-97q0 -13 -4 -19t-19 -6h-100v-118
q0 -32 5.5 -48.5t20 -23t39 -5.5t63.5 4q16 1 21 -1t7 -17zM309 -163q0 -69 -30.5 -120t-75.5 -77q-15 -8 -25.5 -5.5t-20.5 13.5l-32 33q-8 8 -11.5 13t-3 9.5t5 10.5t13.5 15q18 20 20.5 36t2.5 25q0 15 -8 28t-19 26q-17 18 -19 29.5t21 28.5l77 59q19 14 31 8.5
t27 -19.5q23 -22 35 -54t12 -59z" />
    <glyph glyph-name="Tcaron" unicode="&#x164;" horiz-adv-x="539" 
d="M529 526q0 -9 -5 -15.5t-19 -6.5h-138v-480q0 -6 -3.5 -15t-19.5 -9h-149q-14 0 -19 7t-5 17v480h-137q-16 0 -20 6.5t-4 15.5v115q0 11 4 17.5t20 6.5h471q11 0 17.5 -6.5t6.5 -17.5v-115zM266 824l142 79q11 8 17.5 9.5t16.5 -7.5l39 -42q9 -9 10.5 -15t-9.5 -17
l-133 -122q-9 -10 -16 -14t-28 -4h-72q-21 0 -28.5 5.5t-16.5 15.5l-130 119q-11 11 -9.5 17t10.5 15l37 42q9 10 16 8t18 -10z" />
    <glyph glyph-name="tcaron" unicode="&#x165;" horiz-adv-x="541" 
d="M560 695q0 -69 -30.5 -120t-75.5 -77q-15 -8 -25.5 -5.5t-20.5 13.5l-32 33q-8 8 -11.5 13t-3 9.5t5 10.5t13.5 15q18 20 20.5 36t2.5 25q0 15 -8 28t-19 26q-17 18 -19 29.5t21 28.5l77 59q19 14 31 8.5t27 -19.5q23 -22 35 -54t12 -59zM437 55q2 -16 -5 -24.5
t-18 -12.5q-22 -9 -46 -14t-46.5 -7.5t-42 -3.5t-32.5 -1q-88 0 -124.5 41.5t-36.5 117.5v201h-38q-24 0 -24 25v96q0 24 24 24h40v94q0 13 6.5 19t17.5 9l129 34q13 3 21 -2t8 -19v-135h98q15 0 19 -6t4 -17v-97q0 -13 -4 -19t-19 -6h-100v-118q0 -32 5.5 -48.5t20 -23
t39 -5.5t63.5 4q16 1 21 -1t7 -17z" />
    <glyph glyph-name="Tbar" unicode="&#x166;" horiz-adv-x="539" 
d="M529 526q0 -9 -5 -15.5t-19 -6.5h-138v-99h90q15 0 19 -6t4 -17v-63q0 -13 -4 -19t-19 -6h-90v-270q0 -6 -3.5 -15t-19.5 -9h-149q-14 0 -19 7t-5 17v270h-81q-24 0 -24 25v62q0 24 24 24h81v99h-137q-16 0 -20 6.5t-4 15.5v115q0 11 4 17.5t20 6.5h471q11 0 17.5 -6.5
t6.5 -17.5v-115v0z" />
    <glyph glyph-name="tbar" unicode="&#x167;" horiz-adv-x="449" 
d="M437 55q2 -16 -5 -24.5t-18 -12.5q-22 -9 -46 -14t-46.5 -7.5t-42 -3.5t-32.5 -1q-88 0 -124.5 41.5t-36.5 117.5v50h-33q-24 0 -24 25v62q0 24 24 24h33v40h-38q-24 0 -24 25v96q0 24 24 24h40v94q0 13 6.5 19t17.5 9l129 34q13 3 21 -2t8 -19v-135h98q15 0 19 -6t4 -17
v-97q0 -13 -4 -19t-19 -6h-100v-40h85q15 0 19 -6t4 -17v-63q0 -13 -4 -19t-19 -6h-83q3 -20 10.5 -29.5t22 -12.5t37.5 -1.5t56 3.5q16 1 21 -1t7 -17z" />
    <glyph glyph-name="Utilde" unicode="&#x168;" horiz-adv-x="678" 
d="M338 158q80 0 80 99l-1 384q0 10 5 17t19 7h148q16 0 19.5 -9t3.5 -15v-390q0 -29 -3.5 -58.5t-16.5 -61.5q-16 -38 -43 -64.5t-61 -43.5t-72.5 -25t-77.5 -8q-72 0 -124 21t-85 57q-32 35 -47.5 81.5t-15.5 101.5v390q0 10 5 17t19 7h148q16 0 19.5 -9t3.5 -15v-384
q0 -51 19.5 -75t57.5 -24zM432 691q-17 0 -39 7t-44.5 16t-44 16t-37.5 7q-14 0 -29.5 -7t-32.5 -30q-7 -9 -11 -11t-18 5l-46 22q-1 0 -3.5 2t-4.5 5t-3 7.5t1 10.5q28 71 66.5 99.5t77.5 28.5q23 0 46 -7.5t44.5 -16t41 -16t35.5 -7.5q17 0 31.5 8.5t27.5 29.5q6 10 13 9
t18 -7l45 -25q9 -5 12.5 -10t-1.5 -16q-16 -36 -33 -59.5t-35 -37t-37.5 -18.5t-39.5 -5z" />
    <glyph glyph-name="utilde" unicode="&#x169;" horiz-adv-x="574" 
d="M341 43l-2 1q-38 -29 -79 -40.5t-69 -11.5q-55 0 -85 17.5t-44.5 46t-17 64t-2.5 72.5v281q0 6 3.5 15t19.5 9h141q14 0 19 -7t5 -17v-246q0 -39 14 -49.5t37 -10.5q17 0 31.5 5.5t28.5 10.5v290q0 6 3.5 15t19.5 9h141q14 0 19 -7t5 -17v-449q0 -10 -5 -17t-19 -7h-141
q-16 0 -19.5 9t-3.5 15v19zM378 541q-17 0 -39 7t-44.5 16t-44 16t-37.5 7q-14 0 -29.5 -7t-32.5 -30q-7 -9 -11 -11t-18 5l-46 22q-1 0 -3.5 2t-4.5 5t-3 7.5t1 10.5q28 71 66.5 99.5t77.5 28.5q23 0 46 -7.5t44.5 -16t41 -16t35.5 -7.5q17 0 31.5 8.5t27.5 29.5q6 10 13 9
t18 -7l45 -25q9 -5 12.5 -10t-1.5 -16q-16 -36 -33 -59.5t-35 -37t-37.5 -18.5t-39.5 -5z" />
    <glyph glyph-name="Umacron" unicode="&#x16a;" horiz-adv-x="678" 
d="M338 158q80 0 80 99l-1 384q0 10 5 17t19 7h148q16 0 19.5 -9t3.5 -15v-390q0 -29 -3.5 -58.5t-16.5 -61.5q-16 -38 -43 -64.5t-61 -43.5t-72.5 -25t-77.5 -8q-72 0 -124 21t-85 57q-32 35 -47.5 81.5t-15.5 101.5v390q0 10 5 17t19 7h148q16 0 19.5 -9t3.5 -15v-384
q0 -51 19.5 -75t57.5 -24zM175 701q-24 0 -24 25v86q0 24 24 24h328q15 0 19 -6t4 -17v-87q0 -13 -4 -19t-19 -6h-328z" />
    <glyph glyph-name="umacron" unicode="&#x16b;" horiz-adv-x="574" 
d="M341 43l-2 1q-38 -29 -79 -40.5t-69 -11.5q-55 0 -85 17.5t-44.5 46t-17 64t-2.5 72.5v281q0 6 3.5 15t19.5 9h141q14 0 19 -7t5 -17v-246q0 -39 14 -49.5t37 -10.5q17 0 31.5 5.5t28.5 10.5v290q0 6 3.5 15t19.5 9h141q14 0 19 -7t5 -17v-449q0 -10 -5 -17t-19 -7h-141
q-16 0 -19.5 9t-3.5 15v19zM119 560q-24 0 -24 25v86q0 24 24 24h328q15 0 19 -6t4 -17v-87q0 -13 -4 -19t-19 -6h-328z" />
    <glyph glyph-name="Ubreve" unicode="&#x16c;" horiz-adv-x="678" 
d="M338 158q80 0 80 99l-1 384q0 10 5 17t19 7h148q16 0 19.5 -9t3.5 -15v-390q0 -29 -3.5 -58.5t-16.5 -61.5q-16 -38 -43 -64.5t-61 -43.5t-72.5 -25t-77.5 -8q-72 0 -124 21t-85 57q-32 35 -47.5 81.5t-15.5 101.5v390q0 10 5 17t19 7h148q16 0 19.5 -9t3.5 -15v-384
q0 -51 19.5 -75t57.5 -24zM331 681q-32 0 -64 8.5t-61 25t-52.5 41t-37.5 56.5q-8 17 -10.5 28.5t11.5 22.5l43 34q17 12 24.5 7.5t19.5 -18.5q34 -40 61 -57t65 -17q32 0 61.5 15t61.5 59q11 15 19.5 17.5t24.5 -7.5l42 -25q17 -11 14.5 -23t-13.5 -32q-34 -65 -87.5 -100
t-121.5 -35z" />
    <glyph glyph-name="ubreve" unicode="&#x16d;" horiz-adv-x="574" 
d="M341 43l-2 1q-38 -29 -79 -40.5t-69 -11.5q-55 0 -85 17.5t-44.5 46t-17 64t-2.5 72.5v281q0 6 3.5 15t19.5 9h141q14 0 19 -7t5 -17v-246q0 -39 14 -49.5t37 -10.5q17 0 31.5 5.5t28.5 10.5v290q0 6 3.5 15t19.5 9h141q14 0 19 -7t5 -17v-449q0 -10 -5 -17t-19 -7h-141
q-16 0 -19.5 9t-3.5 15v19zM278 531q-32 0 -64 8.5t-61 25t-52.5 41t-37.5 56.5q-8 17 -10.5 28.5t11.5 22.5l43 34q17 12 24.5 7.5t19.5 -18.5q34 -40 61 -57t65 -17q32 0 61.5 15t61.5 59q11 15 19.5 17.5t24.5 -7.5l42 -25q17 -11 14.5 -23t-13.5 -32q-34 -65 -87.5 -100
t-121.5 -35z" />
    <glyph glyph-name="Uring" unicode="&#x16e;" horiz-adv-x="678" 
d="M338 158q80 0 80 99l-1 384q0 10 5 17t19 7h148q16 0 19.5 -9t3.5 -15v-390q0 -29 -3.5 -58.5t-16.5 -61.5q-16 -38 -43 -64.5t-61 -43.5t-72.5 -25t-77.5 -8q-72 0 -124 21t-85 57q-32 35 -47.5 81.5t-15.5 101.5v390q0 10 5 17t19 7h148q16 0 19.5 -9t3.5 -15v-384
q0 -51 19.5 -75t57.5 -24zM339 670q-27 0 -52.5 10t-45 27.5t-31 42t-11.5 54.5q0 29 11.5 53.5t31 42t45 27.5t52.5 10q28 0 53 -11t43.5 -29.5t29 -42.5t10.5 -50q0 -27 -10.5 -51.5t-29 -43t-43.5 -29t-53 -10.5zM339 849q-18 0 -31 -13t-13 -32q0 -21 12.5 -33.5
t31.5 -12.5q17 0 30 13t13 33q0 19 -13 32t-30 13z" />
    <glyph glyph-name="uring" unicode="&#x16f;" horiz-adv-x="574" 
d="M341 43l-2 1q-38 -29 -79 -40.5t-69 -11.5q-55 0 -85 17.5t-44.5 46t-17 64t-2.5 72.5v281q0 6 3.5 15t19.5 9h141q14 0 19 -7t5 -17v-246q0 -39 14 -49.5t37 -10.5q17 0 31.5 5.5t28.5 10.5v290q0 6 3.5 15t19.5 9h141q14 0 19 -7t5 -17v-449q0 -10 -5 -17t-19 -7h-141
q-16 0 -19.5 9t-3.5 15v19zM287 534q-27 0 -52.5 10t-45 27.5t-31 42t-11.5 54.5q0 29 11.5 53.5t31 42t45 27.5t52.5 10q28 0 53 -11t43.5 -29.5t29 -42.5t10.5 -50q0 -27 -10.5 -51.5t-29 -43t-43.5 -29t-53 -10.5zM287 713q-18 0 -31 -13t-13 -32q0 -21 12.5 -33.5
t31.5 -12.5q17 0 30 13t13 33q0 19 -13 32t-30 13z" />
    <glyph glyph-name="Uhungarumlaut" unicode="&#x170;" horiz-adv-x="678" 
d="M338 158q80 0 80 99l-1 384q0 10 5 17t19 7h148q16 0 19.5 -9t3.5 -15v-390q0 -29 -3.5 -58.5t-16.5 -61.5q-16 -38 -43 -64.5t-61 -43.5t-72.5 -25t-77.5 -8q-72 0 -124 21t-85 57q-32 35 -47.5 81.5t-15.5 101.5v390q0 10 5 17t19 7h148q16 0 19.5 -9t3.5 -15v-384
q0 -51 19.5 -75t57.5 -24zM403 824q8 -9 6.5 -18.5t-14.5 -17.5l-180 -102q-8 -5 -16 -6.5t-16 7.5l-45 57q-5 7 -7 13.5t9 15.5l163 135q12 10 21 7.5t14 -8.5zM667 824q8 -9 6.5 -18.5t-14.5 -17.5l-180 -102q-8 -5 -16 -6.5t-16 7.5l-45 57q-5 7 -7 13.5t9 15.5l163 135
q12 10 21 7.5t14 -8.5z" />
    <glyph glyph-name="uhungarumlaut" unicode="&#x171;" horiz-adv-x="574" 
d="M341 43l-2 1q-38 -29 -79 -40.5t-69 -11.5q-55 0 -85 17.5t-44.5 46t-17 64t-2.5 72.5v281q0 6 3.5 15t19.5 9h141q14 0 19 -7t5 -17v-246q0 -39 14 -49.5t37 -10.5q17 0 31.5 5.5t28.5 10.5v290q0 6 3.5 15t19.5 9h141q14 0 19 -7t5 -17v-449q0 -10 -5 -17t-19 -7h-141
q-16 0 -19.5 9t-3.5 15v19zM339 745q11 -6 13 -15.5t-7 -21.5l-131 -160q-6 -8 -13 -12t-17 2l-63 36q-8 5 -11.5 10.5t3.5 17.5l103 185q8 14 17 15t16 -3zM536 745q11 -6 13 -15.5t-7 -21.5l-131 -160q-6 -8 -13 -12t-17 2l-63 36q-8 5 -11.5 10.5t3.5 17.5l103 185
q8 14 17 15t16 -3z" />
    <glyph glyph-name="Uogonek" unicode="&#x172;" horiz-adv-x="678" 
d="M338 158q80 0 80 99l-1 384q0 10 5 17t19 7h148q16 0 19.5 -9t3.5 -15v-390q0 -29 -3.5 -58.5t-16.5 -61.5q-29 -66 -87.5 -99t-127.5 -40q-9 -20 -12 -35.5t-3 -28.5q0 -32 40 -32q14 0 26.5 1.5t27.5 6.5q12 4 16 2t6 -10l14 -44q4 -12 -0.5 -17.5t-12.5 -9.5
q-20 -10 -48 -16.5t-60 -6.5q-62 0 -93.5 31.5t-31.5 82.5q0 18 5 38t19 42q-47 8 -81.5 26.5t-59.5 45.5q-32 35 -47.5 81.5t-15.5 101.5v390q0 10 5 17t19 7h148q16 0 19.5 -9t3.5 -15v-384q0 -51 19.5 -75t57.5 -24z" />
    <glyph glyph-name="uogonek" unicode="&#x173;" horiz-adv-x="574" 
d="M459 -72q0 -32 40 -32q14 0 26.5 1.5t27.5 6.5q12 4 16 2t6 -10l14 -44q4 -12 -0.5 -17.5t-12.5 -9.5q-20 -10 -48 -16.5t-60 -6.5q-62 0 -93.5 31.5t-31.5 82.5q0 19 6 40t21 44h-6q-16 0 -19.5 9t-3.5 15v19l-2 1q-38 -29 -79 -40.5t-69 -11.5q-55 0 -85 17.5t-44.5 46
t-17 64t-2.5 72.5v281q0 6 3.5 15t19.5 9h141q14 0 19 -7t5 -17v-246q0 -39 14 -49.5t37 -10.5q17 0 31.5 5.5t28.5 10.5v290q0 6 3.5 15t19.5 9h141q14 0 19 -7t5 -17v-449q0 -10 -5 -17t-19 -7h-27q-12 -23 -15.5 -40.5t-3.5 -31.5z" />
    <glyph glyph-name="Wcircumflex" unicode="&#x174;" horiz-adv-x="906" 
d="M453 209l-33 -100l-26 -73q-5 -15 -14.5 -25.5t-38.5 -10.5h-110q-26 0 -37.5 9t-16.5 26l-164 601q-5 14 -1 22t21 8h142q20 0 30 -7t15 -26l42 -196l39 -178h6l32 114l31 106l-51 158q-3 10 0 19.5t15 9.5h130q20 0 31 -6.5t16 -26.5l55 -224l35 -150h6l31 169l40 205
q4 19 15.5 26t33.5 7h135q17 0 21 -8t-1 -22l-151 -601q-5 -17 -16.5 -26t-37.5 -9h-110q-29 0 -38.5 10.5t-14.5 25.5l-23 72l-32 101h-6zM285 690q-11 -8 -18 -10t-16 8l-39 42q-9 9 -10.5 15t9.5 17l132 120q10 9 17 15t28 6h72q21 0 27.5 -4.5t16.5 -13.5l134 -122
q11 -11 9.5 -17t-10.5 -15l-40 -43q-9 -10 -15.5 -8t-18.5 10l-142 89z" />
    <glyph glyph-name="wcircumflex" unicode="&#x175;" horiz-adv-x="792" 
d="M499 357l35 -127h6l33 153l19 86q4 17 10 22.5t19 5.5h138q19 0 20 -8.5t-1 -16.5l-128 -432q-7 -22 -19 -31t-31 -9h-106q-17 0 -27 9.5t-18 30.5l-18 50l-23 66h-4l-25 -66q-5 -13 -10 -25.5t-10 -24.5q-8 -20 -20 -30t-32 -10h-97q-21 0 -31 9t-18 31l-144 432
q-3 9 0.5 17t18.5 8h139q15 0 22.5 -4t12.5 -21l26 -105l37 -151h6l27 82l11.5 34.5t11.5 33.5l-37 105q-5 12 0 19t17 7h122q17 0 23.5 -4t12.5 -25zM243 525q-11 -8 -18 -10t-16 8l-41 41q-9 9 -10.5 15t9.5 17l134 140q9 10 16.5 15.5t28.5 5.5h72q21 0 28 -4t16 -14
l136 -144q11 -11 9.5 -17t-10.5 -15l-42 -40q-10 -9 -16.5 -7.5t-17.5 9.5l-142 99z" />
    <glyph glyph-name="Ycircumflex" unicode="&#x176;" horiz-adv-x="685" 
d="M234 220l-222 416q-7 12 -4 21t17 9h147q20 0 29 -5.5t18 -23.5l55 -111l61 -127h6l62 127l51 101q10 18 18.5 28.5t28.5 10.5h152q14 0 16.5 -8t-2.5 -17l-237 -421v-196q0 -6 -3.5 -15t-19.5 -9h-149q-14 0 -19 7t-5 17v196zM197 690q-11 -8 -18 -10t-16 8l-39 42
q-9 9 -10.5 15t9.5 17l132 120q10 9 17 15t28 6h72q21 0 27.5 -4.5t16.5 -13.5l134 -122q11 -11 9.5 -17t-10.5 -15l-40 -43q-9 -10 -15.5 -8t-18.5 10l-142 89z" />
    <glyph glyph-name="ycircumflex" unicode="&#x177;" horiz-adv-x="548" 
d="M275 233l40 130l34 110q4 11 11.5 17.5t30.5 6.5h120q21 0 24 -7.5t-3 -22.5l-242 -644q-7 -17 -15 -22t-28 -5h-119q-17 0 -22.5 6t2.5 23l73 194l-171 449q-12 29 19 29h132q16 0 25.5 -3t14.5 -23l33 -112l35 -126h6zM139 525q-11 -8 -18 -10t-16 8l-41 41
q-9 9 -10.5 15t9.5 17l134 140q9 10 16.5 15.5t28.5 5.5h72q21 0 28 -4t16 -14l136 -144q11 -11 9.5 -17t-10.5 -15l-42 -40q-10 -9 -16.5 -7.5t-17.5 9.5l-142 99z" />
    <glyph glyph-name="Ydieresis" unicode="&#x178;" horiz-adv-x="685" 
d="M234 220l-222 416q-7 12 -4 21t17 9h147q20 0 29 -5.5t18 -23.5l55 -111l61 -127h6l62 127l51 101q10 18 18.5 28.5t28.5 10.5h152q14 0 16.5 -8t-2.5 -17l-237 -421v-196q0 -6 -3.5 -15t-19.5 -9h-149q-14 0 -19 7t-5 17v196zM228 685q-30 0 -47.5 7t-26.5 18.5
t-11.5 26.5t-2.5 31q0 17 3.5 32t13.5 25.5t27 16.5t44 6q28 0 45 -5.5t27 -16t13.5 -25.5t3.5 -33q0 -17 -3 -32t-13 -26.5t-27.5 -18t-45.5 -6.5zM449 685q-29 0 -46.5 7t-26.5 18.5t-12 26.5t-3 31q0 17 4 32t13.5 25.5t26.5 16.5t44 6q28 0 45.5 -5.5t27 -16t13 -25.5
t3.5 -33q0 -17 -3 -32t-12.5 -26.5t-27 -18t-46.5 -6.5z" />
    <glyph glyph-name="Zacute" unicode="&#x179;" horiz-adv-x="579" 
d="M260 161h250q16 0 20 -6.5t4 -15.5v-115q0 -11 -4 -17.5t-20 -6.5h-441q-11 0 -17.5 6.5t-6.5 17.5v101q0 9 2.5 20.5t12.5 24.5l253 334h-224q-16 0 -20 6.5t-4 15.5v115q0 11 4 17.5t20 6.5h420q11 0 17.5 -6.5t6.5 -17.5l-1 -87q0 -20 -4 -33t-13 -25zM460 810
q7 -10 4.5 -19.5t-16.5 -14.5l-192 -78q-9 -4 -17 -4.5t-15 9.5l-37 63q-5 7 -5.5 13.5t11.5 14.5l179 113q14 8 22.5 4.5t12.5 -10.5z" />
    <glyph glyph-name="zacute" unicode="&#x17a;" horiz-adv-x="488" 
d="M436 145q24 0 24 -25v-96q0 -24 -24 -24h-388q-15 0 -19 6t-4 17v79q0 8 2 18.5t16 25.5l184 205h-164q-24 0 -24 25v97q0 24 24 24h367q15 0 19 -6t4 -17v-80q0 -9 -2.5 -19.5t-15.5 -25.5l-183 -204h184zM406 745q11 -6 13 -15.5t-7 -21.5l-131 -160q-6 -8 -13 -12
t-17 2l-63 36q-8 5 -11.5 10.5t3.5 17.5l103 185q8 14 17 15t16 -3z" />
    <glyph glyph-name="Zdotaccent" unicode="&#x17b;" horiz-adv-x="579" 
d="M260 161h250q16 0 20 -6.5t4 -15.5v-115q0 -11 -4 -17.5t-20 -6.5h-441q-11 0 -17.5 6.5t-6.5 17.5v101q0 9 2.5 20.5t12.5 24.5l253 334h-224q-16 0 -20 6.5t-4 15.5v115q0 11 4 17.5t20 6.5h420q11 0 17.5 -6.5t6.5 -17.5l-1 -87q0 -20 -4 -33t-13 -25zM404 800
q0 -17 -3.5 -32.5t-14 -28.5t-29.5 -20.5t-49 -7.5q-32 0 -50.5 8t-29 20.5t-13.5 28.5t-3 32q0 18 4.5 34t15 28t29 19t47.5 7q30 0 48.5 -6.5t29 -18.5t14.5 -28t4 -35z" />
    <glyph glyph-name="zdotaccent" unicode="&#x17c;" horiz-adv-x="488" 
d="M436 145q24 0 24 -25v-96q0 -24 -24 -24h-388q-15 0 -19 6t-4 17v79q0 8 2 18.5t16 25.5l184 205h-164q-24 0 -24 25v97q0 24 24 24h367q15 0 19 -6t4 -17v-80q0 -9 -2.5 -19.5t-15.5 -25.5l-183 -204h184zM359 634q0 -17 -3.5 -32.5t-14 -28.5t-29.5 -20.5t-49 -7.5
q-32 0 -50.5 8t-29 20.5t-13.5 28.5t-3 32q0 18 4.5 34t15 28t29 19t47.5 7q30 0 48.5 -6.5t29 -18.5t14.5 -28t4 -35z" />
    <glyph glyph-name="Zcaron" unicode="&#x17d;" horiz-adv-x="579" 
d="M260 161h250q16 0 20 -6.5t4 -15.5v-115q0 -11 -4 -17.5t-20 -6.5h-441q-11 0 -17.5 6.5t-6.5 17.5v101q0 9 2.5 20.5t12.5 24.5l253 334h-224q-16 0 -20 6.5t-4 15.5v115q0 11 4 17.5t20 6.5h420q11 0 17.5 -6.5t6.5 -17.5l-1 -87q0 -20 -4 -33t-13 -25zM302 824l142 79
q11 8 17.5 9.5t16.5 -7.5l39 -42q9 -9 10.5 -15t-9.5 -17l-133 -122q-9 -10 -16 -14t-28 -4h-72q-21 0 -28.5 5.5t-16.5 15.5l-130 119q-11 11 -9.5 17t10.5 15l37 42q9 10 16 8t18 -10z" />
    <glyph glyph-name="zcaron" unicode="&#x17e;" horiz-adv-x="488" 
d="M436 145q24 0 24 -25v-96q0 -24 -24 -24h-388q-15 0 -19 6t-4 17v79q0 8 2 18.5t16 25.5l184 205h-164q-24 0 -24 25v97q0 24 24 24h367q15 0 19 -6t4 -17v-80q0 -9 -2.5 -19.5t-15.5 -25.5l-183 -204h184zM246 660l142 99q11 8 17.5 9.5t16.5 -7.5l42 -40q9 -9 10.5 -15
t-9.5 -17l-136 -144q-9 -10 -16 -14t-28 -4h-72q-21 0 -28.5 5.5t-16.5 15.5l-134 140q-11 11 -9.5 17t10.5 15l41 41q9 10 16 8t18 -10z" />
    <glyph glyph-name="florin" unicode="&#x192;" horiz-adv-x="616" 
d="M45 16q4 18 8 21t18 1q13 -2 30 -3t27 -1q18 0 29.5 6.5t18.5 19t11 30.5t8 41l27 167h-60q-14 0 -19 3.5t-5 17.5l1 83q0 15 3.5 19t18.5 4h77l15 92q5 30 17 60t34 54.5t56 39.5t83 15q30 0 64.5 -4.5t72.5 -15.5q7 -2 8.5 -7t-1.5 -16l-22 -88q-3 -12 -7 -14.5
t-18 -0.5q-20 3 -30.5 4t-15.5 1q-19 0 -31 -4.5t-20 -13.5t-12 -22t-7 -29l-8 -51h76q14 0 19.5 -3t5.5 -17v-86q0 -16 -4 -18.5t-20 -2.5h-92l-42 -260q-5 -27 -17.5 -54t-34.5 -48t-55 -34t-78 -13q-15 0 -33.5 1.5t-37 4t-34.5 5.5t-27 7q-8 3 -12.5 10t-1.5 21z" />
    <glyph glyph-name="Ohorn" unicode="&#x1a0;" horiz-adv-x="712" 
d="M657 341q0 -37 -3.5 -77.5t-15 -79t-32 -74t-54.5 -62t-82.5 -42t-116.5 -15.5t-116.5 15.5t-81.5 42.5t-53 62t-30.5 74t-13.5 79t-3 77q0 29 3.5 64.5t14.5 72.5t31 72t53.5 62.5t81 44t114.5 16.5q62 0 108 -12.5t79 -34.5q26 5 33 25.5t7 68.5v43q0 9 3.5 11.5
t11.5 2.5h105q14 0 14 -14v-95q0 -56 -19.5 -96.5t-64.5 -57.5q16 -41 21.5 -85t5.5 -88zM454 330q0 48 -5 81.5t-16.5 54.5t-30.5 30t-47 9q-51 0 -71.5 -40t-20.5 -135q0 -92 20 -131.5t72 -39.5q54 0 76.5 40t22.5 131z" />
    <glyph glyph-name="ohorn" unicode="&#x1a1;" horiz-adv-x="592" 
d="M531 255q0 -40 -6.5 -86t-31.5 -85.5t-74.5 -65.5t-136.5 -26q-85 0 -133.5 26t-72.5 65.5t-30 85.5t-6 86q0 33 7.5 76.5t32.5 82t73 65.5t129 27q48 0 84.5 -8.5t63.5 -24.5q21 6 27 26.5t6 65.5v43q0 9 3.5 11.5t11.5 2.5h105q14 0 14 -14v-95q0 -54 -19 -94.5
t-61 -57.5q8 -26 11 -53t3 -53zM340 249q0 50 -10 74t-46 24q-31 0 -42.5 -25.5t-11.5 -72.5q0 -53 10.5 -76t41.5 -23q35 0 46.5 24.5t11.5 74.5z" />
    <glyph glyph-name="Uhorn" unicode="&#x1af;" horiz-adv-x="757" 
d="M338 158q80 0 80 99l-1 384q0 10 5 17t19 7h148q16 0 19.5 -9t3.5 -15v-11q24 4 30.5 20.5t6.5 57.5v57q0 9 3.5 11.5t11.5 2.5h105q14 0 14 -14v-97q0 -36 -8 -66t-25.5 -51.5t-45 -34t-65.5 -12.5h-27v-253q0 -29 -3.5 -58.5t-16.5 -61.5q-16 -38 -43 -64.5t-61 -43.5
t-72.5 -25t-77.5 -8q-72 0 -124 21t-85 57q-32 35 -47.5 81.5t-15.5 101.5v390q0 10 5 17t19 7h148q16 0 19.5 -9t3.5 -15v-384q0 -51 19.5 -75t57.5 -24z" />
    <glyph glyph-name="uhorn" unicode="&#x1b0;" horiz-adv-x="697" 
d="M341 43l-2 1q-38 -29 -79 -40.5t-69 -11.5q-55 0 -85 17.5t-44.5 46t-17 64t-2.5 72.5v281q0 6 3.5 15t19.5 9h141q14 0 19 -7t5 -17v-246q0 -39 14 -49.5t37 -10.5q17 0 31.5 5.5t28.5 10.5v290q0 6 3.5 15t19.5 9h141q14 0 19 -7t5 -17v-2q29 3 37 23.5t8 70.5v43
q0 9 3.5 11.5t11.5 2.5h105q14 0 14 -14v-95q0 -36 -8 -66t-25.5 -51.5t-45 -34t-65.5 -12.5h-35v-325q0 -10 -5 -17t-19 -7h-141q-16 0 -19.5 9t-3.5 15v19z" />
    <glyph glyph-name="AEacute" unicode="&#x1fc;" horiz-adv-x="953" 
d="M436 137h-178l-53 -111q-8 -14 -18.5 -20t-27.5 -6h-139q-26 0 -10 30l301 606q9 17 18.5 23t37.5 6h513q11 0 17.5 -6.5t6.5 -17.5v-115q0 -9 -5 -15.5t-19 -6.5h-247v-80h213q11 0 17.5 -6.5t6.5 -17.5v-115q0 -9 -5 -15.5t-19 -6.5h-213v-102h251q11 0 17.5 -6.5
t6.5 -17.5v-115q0 -9 -5 -15.5t-19 -6.5h-424q-14 0 -19 7t-5 17v113zM434 502l-102 -219h104v219h-2zM752 810q7 -10 4.5 -19.5t-16.5 -14.5l-192 -78q-9 -4 -17 -4.5t-15 9.5l-37 63q-5 7 -5.5 13.5t11.5 14.5l179 113q14 8 22.5 4.5t12.5 -10.5z" />
    <glyph glyph-name="aeacute" unicode="&#x1fd;" horiz-adv-x="859" 
d="M533 202q2 -21 10 -33t21 -17t30 -6t37 -1t47.5 2t60.5 7q23 3 29 -1t10 -25l10 -59q5 -23 0.5 -34t-33.5 -22q-15 -5 -35.5 -9t-42.5 -7t-43.5 -4.5t-39.5 -1.5q-75 0 -122.5 18t-75.5 50q-46 -38 -96.5 -52.5t-102.5 -14.5t-82.5 13.5t-46 35.5t-20 49t-4.5 53
q-1 48 14 80t41 51t62 27t78 8h105v8q0 10 -2.5 17.5t-10 13t-22.5 8t-40 2.5q-9 0 -24.5 -1t-33.5 -2t-36 -3t-32 -3q-13 -2 -21 -2.5t-13 1.5t-7.5 7t-4.5 14l-14 64q-3 15 3.5 25.5t35.5 21.5q18 7 41.5 12t47.5 8t47 4.5t40 1.5q54 0 91.5 -9t64.5 -33q24 20 56 31
t73 11q75 0 121.5 -21t72 -54.5t34.5 -74.5t9 -81q0 -34 -13 -53.5t-47 -19.5h-227zM351 149q-3 13 -4.5 26t-3.5 27h-57q-31 0 -41.5 -12.5t-10.5 -35.5q0 -15 6.5 -21t23.5 -6q16 0 43 7t44 15zM584 363q-19 0 -31.5 -15.5t-14.5 -39.5h87q0 20 -10.5 37.5t-30.5 17.5z
M605 745q11 -6 13 -15.5t-7 -21.5l-131 -160q-6 -8 -13 -12t-17 2l-63 36q-8 5 -11.5 10.5t3.5 17.5l103 185q8 14 17 15t16 -3z" />
    <glyph glyph-name="Oslashacute" unicode="&#x1fe;" horiz-adv-x="712" 
d="M657 341q0 -37 -3.5 -77.5t-15 -79t-32 -74t-54.5 -62t-82.5 -42t-116.5 -15.5q-66 0 -113.5 14.5t-80.5 39.5l-37 -46q-8 -10 -14 -12t-17 6l-17 14q-9 8 -8.5 14t8.5 16l42 52q-20 27 -32 58t-18.5 64t-8.5 66t-2 64q0 29 3.5 64.5t14.5 72.5t31 72t53.5 62.5t81 44
t114.5 16.5q66 0 113.5 -14t81.5 -38l30 37q10 12 15 13.5t14 -6.5l18 -14q10 -8 10 -13.5t-9 -17.5l-33 -41q38 -49 51 -112t13 -126zM555 810q7 -10 4.5 -19.5t-16.5 -14.5l-192 -78q-9 -4 -17 -4.5t-15 9.5l-37 63q-5 7 -5.5 13.5t11.5 14.5l179 113q14 8 22.5 4.5
t12.5 -10.5zM454 330q0 21 -1 39.5t-3 33.5l-167 -205q22 -39 72 -39q54 0 76.5 40t22.5 131zM263 330v-31t2 -27l163 201q-23 32 -73 32q-51 0 -71.5 -40t-20.5 -135z" />
    <glyph glyph-name="oslashacute" unicode="&#x1ff;" horiz-adv-x="571" 
d="M531 255q0 -40 -6.5 -86t-31.5 -85.5t-74.5 -65.5t-136.5 -26q-46 0 -80.5 8t-60.5 22l-25 -30q-8 -10 -14 -12t-17 6l-17 14q-9 8 -8.5 14t8.5 16l25 31q-18 21 -28.5 45t-16 49.5t-7 51t-1.5 48.5q0 33 7.5 76.5t32.5 82t73 65.5t129 27q48 0 84 -8.5t62 -23.5l36 44
q10 12 15 13.5t14 -6.5l18 -14q10 -8 10 -13.5t-9 -17.5l-36 -44q33 -38 44 -86t11 -95zM447 745q11 -6 13 -15.5t-7 -21.5l-131 -160q-6 -8 -13 -12t-17 2l-63 36q-8 5 -11.5 10.5t3.5 17.5l103 185q8 14 17 15t16 -3zM340 268l-89 -109q12 -9 31 -9q35 0 46.5 24.5
t11.5 74.5v19zM230 230l88 108q-12 9 -34 9q-31 0 -42.5 -25.5t-11.5 -72.5v-19z" />
    <glyph glyph-name="Scommaaccent" unicode="&#x218;" horiz-adv-x="607" 
d="M284 -9q-14 0 -37 1t-50 4.5t-56.5 9.5t-56.5 17q-15 6 -23 11.5t-11 11.5t-3 13t2 16l15 72q3 12 6 18.5t8 8.5t13 1.5t21 -2.5q34 -5 80.5 -9.5t93.5 -4.5q40 0 56.5 10t16.5 33q0 22 -18 29.5t-53 16.5q-43 10 -86 24t-78 37t-57 59.5t-22 93.5q0 51 18.5 90t51.5 66
t80 40.5t104 13.5q14 0 36.5 -1t49.5 -4t55.5 -9t55.5 -16q15 -6 23 -11.5t11 -11.5t2.5 -13t-1.5 -16l-17 -73q-3 -13 -7 -19t-10 -7.5t-15 0t-22 2.5q-17 2 -32.5 4t-32.5 3.5t-36 2t-42 0.5q-28 0 -46.5 -7t-18.5 -30q0 -20 13.5 -27.5t50.5 -16.5q42 -10 86 -22.5
t79.5 -35.5t58 -60.5t22.5 -97.5q0 -62 -24 -103t-63 -66t-89 -35.5t-102 -10.5zM397 -163q0 -69 -30.5 -120t-75.5 -77q-15 -8 -25.5 -5.5t-20.5 13.5l-32 33q-8 8 -11.5 13t-3 9.5t5 10.5t13.5 15q18 20 20.5 36t2.5 25q0 15 -8 28t-19 26q-17 18 -19 29.5t21 28.5l77 59
q19 14 31 8.5t27 -19.5q23 -22 35 -54t12 -59z" />
    <glyph glyph-name="scommaaccent" unicode="&#x219;" horiz-adv-x="512" 
d="M477 164q0 -49 -20 -82t-53 -53.5t-75.5 -29t-88.5 -8.5q-18 0 -39 1.5t-42.5 4.5t-41.5 7t-36 9q-33 11 -41.5 22.5t-2.5 37.5l14 59q4 17 10 20.5t26 -0.5q37 -7 77.5 -10.5t66.5 -3.5q31 0 43 5t12 16t-9 15t-29 6q-44 6 -81.5 14t-65.5 24.5t-44 44.5t-16 75
q0 42 17 73.5t46 52.5t69 31.5t86 10.5q18 0 38.5 -1.5t41.5 -4.5t40.5 -7t35.5 -9q26 -9 39 -17.5t7 -33.5l-15 -63q-4 -17 -8 -20t-24 -1q-18 2 -39.5 4.5t-42 4t-38 3t-26.5 1.5q-30 1 -35 -5t-5 -12q0 -10 16 -13t28 -5q41 -5 78.5 -13t65.5 -25t44.5 -47t16.5 -78z
M354 -163q0 -69 -30.5 -120t-75.5 -77q-15 -8 -25.5 -5.5t-20.5 13.5l-32 33q-8 8 -11.5 13t-3 9.5t5 10.5t13.5 15q18 20 20.5 36t2.5 25q0 15 -8 28t-19 26q-17 18 -19 29.5t21 28.5l77 59q19 14 31 8.5t27 -19.5q23 -22 35 -54t12 -59z" />
    <glyph glyph-name="schwa" unicode="&#x259;" horiz-adv-x="558" 
d="M327 291q-2 21 -10 33.5t-21 19t-30 8t-37 1.5q-38 0 -104 -9q-23 -3 -29 1t-10 25l-10 59q-5 23 -0.5 34t33.5 22q15 5 35 9t41 7t42 4.5t39 1.5q79 0 128 -20.5t76.5 -55t37.5 -80.5t10 -96q0 -36 -7 -81.5t-32 -86t-73.5 -68t-131.5 -27.5q-75 0 -120.5 22t-70.5 55.5
t-33 74.5t-8 79q0 34 13 51t47 17h225zM277 131q19 0 32 14t15 43h-91q0 -29 12 -43t32 -14z" />
    <glyph glyph-name="primemod" unicode="&#x2b9;" horiz-adv-x="329" 
d="M150 357q-4 -5 -9.5 -10.5t-16.5 -0.5l-89 41q-9 4 -10 11.5t2 15.5l133 298q5 14 15.5 13t17.5 -3l110 -52q11 -4 13.5 -12t-5.5 -21l-161 -280v0z" />
    <glyph glyph-name="circumflex" unicode="&#x2c6;" horiz-adv-x="563" 
d="M136 525q-11 -8 -18 -10t-16 8l-41 41q-9 9 -10.5 15t9.5 17l134 140q9 10 16.5 15.5t28.5 5.5h72q21 0 28 -4t16 -14l136 -144q11 -11 9.5 -17t-10.5 -15l-42 -40q-10 -9 -16.5 -7.5t-17.5 9.5l-142 99z" />
    <glyph glyph-name="caron" unicode="&#x2c7;" horiz-adv-x="558" 
d="M276 660l142 99q11 8 17.5 9.5t16.5 -7.5l42 -40q9 -9 10.5 -15t-9.5 -17l-136 -144q-9 -10 -16 -14t-28 -4h-72q-21 0 -28.5 5.5t-16.5 15.5l-134 140q-11 11 -9.5 17t10.5 15l41 41q9 10 16 8t18 -10z" />
    <glyph glyph-name="breve" unicode="&#x2d8;" horiz-adv-x="554" 
d="M280 531q-32 0 -64 8.5t-61 25t-52.5 41t-37.5 56.5q-8 17 -10.5 28.5t11.5 22.5l43 34q17 12 24.5 7.5t19.5 -18.5q34 -40 61 -57t65 -17q32 0 61.5 15t61.5 59q11 15 19.5 17.5t24.5 -7.5l42 -25q17 -11 14.5 -23t-13.5 -32q-34 -65 -87.5 -100t-121.5 -35z" />
    <glyph glyph-name="dotaccent" unicode="&#x2d9;" horiz-adv-x="558" 
d="M373 634q0 -17 -3.5 -32.5t-14 -28.5t-29.5 -20.5t-49 -7.5q-32 0 -50.5 8t-29 20.5t-13.5 28.5t-3 32q0 18 4.5 34t15 28t29 19t47.5 7q30 0 48.5 -6.5t29 -18.5t14.5 -28t4 -35z" />
    <glyph glyph-name="ring" unicode="&#x2da;" horiz-adv-x="538" 
d="M279 534q-27 0 -52.5 10t-45 27.5t-31 42t-11.5 54.5q0 29 11.5 53.5t31 42t45 27.5t52.5 10q28 0 53 -11t43.5 -29.5t29 -42.5t10.5 -50q0 -27 -10.5 -51.5t-29 -43t-43.5 -29t-53 -10.5zM279 713q-18 0 -31 -13t-13 -32q0 -21 12.5 -33.5t31.5 -12.5q17 0 30 13t13 33
q0 19 -13 32t-30 13z" />
    <glyph glyph-name="ogonek" unicode="&#x2db;" horiz-adv-x="385" 
d="M194 -72q0 -32 40 -32q14 0 26.5 1.5t27.5 6.5q12 4 16 2t6 -10l14 -44q4 -12 -0.5 -17.5t-12.5 -9.5q-20 -10 -48 -16.5t-60 -6.5q-62 0 -93.5 31.5t-31.5 82.5q0 30 17 66.5t63 78.5h98q-40 -46 -51 -78.5t-11 -54.5z" />
    <glyph glyph-name="tilde" unicode="&#x2dc;" horiz-adv-x="563" 
d="M375 541q-17 0 -39 7t-44.5 16t-44 16t-37.5 7q-14 0 -29.5 -7t-32.5 -30q-7 -9 -11 -11t-18 5l-46 22q-1 0 -3.5 2t-4.5 5t-3 7.5t1 10.5q28 71 66.5 99.5t77.5 28.5q23 0 46 -7.5t44.5 -16t41 -16t35.5 -7.5q17 0 31.5 8.5t27.5 29.5q6 10 13 9t18 -7l45 -25
q9 -5 12.5 -10t-1.5 -16q-16 -36 -33 -59.5t-35 -37t-37.5 -18.5t-39.5 -5z" />
    <glyph glyph-name="hungarumlaut" unicode="&#x2dd;" horiz-adv-x="638" 
d="M371 745q11 -6 13 -15.5t-7 -21.5l-131 -160q-6 -8 -13 -12t-17 2l-63 36q-8 5 -11.5 10.5t3.5 17.5l103 185q8 14 17 15t16 -3zM568 745q11 -6 13 -15.5t-7 -21.5l-131 -160q-6 -8 -13 -12t-17 2l-63 36q-8 5 -11.5 10.5t3.5 17.5l103 185q8 14 17 15t16 -3z" />
    <glyph glyph-name="tonos" unicode="&#x384;" horiz-adv-x="554" 
d="M431 745q11 -6 13 -15.5t-7 -21.5l-131 -160q-6 -8 -13 -12t-17 2l-63 36q-8 5 -11.5 10.5t3.5 17.5l103 185q8 14 17 15t16 -3z" />
    <glyph glyph-name="dieresistonos" unicode="&#x385;" horiz-adv-x="600" 
d="M398 761q11 -3 16 -11t-1 -22l-87 -188q-4 -9 -10 -15t-17 -3l-69 20q-9 2 -14 6t-1 18l53 205q4 15 12.5 18.5t16.5 1.5zM114 537q-30 0 -47.5 7t-26.5 18.5t-11.5 26.5t-2.5 31q0 17 3.5 32t13.5 25.5t27 16.5t44 6q28 0 45 -5.5t27 -16t13.5 -25.5t3.5 -33
q0 -17 -3 -32t-13 -26.5t-27.5 -18t-45.5 -6.5zM484 537q-29 0 -46.5 7t-26.5 18.5t-12 26.5t-3 31q0 17 4 32t13.5 25.5t26.5 16.5t44 6q28 0 45.5 -5.5t27 -16t13 -25.5t3.5 -33q0 -17 -3 -32t-12.5 -26.5t-27 -18t-46.5 -6.5z" />
    <glyph glyph-name="Alphatonos" unicode="&#x386;" horiz-adv-x="650" 
d="M204 33q-5 -19 -15 -26t-27 -7h-138q-14 0 -18.5 5t1.5 25l186 601q5 17 14 26t35 9h157q26 0 34 -9t14 -27l197 -602q9 -28 -13 -28h-153q-20 0 -28 9.5t-13 29.5l-27 98h-178zM96 635q11 -6 13 -15.5t-7 -21.5l-131 -160q-6 -8 -13 -12t-17 2l-63 36q-8 5 -11.5 10.5
t3.5 17.5l103 185q8 14 17 15t16 -3zM349 367l-25 104h-6l-47 -188h99z" />
    <glyph glyph-name="anoteleia" unicode="&#x387;" horiz-adv-x="252" 
d="M222 372q0 -17 -3.5 -32.5t-14 -28.5t-29.5 -20.5t-49 -7.5q-32 0 -50.5 8t-29 20.5t-13.5 28.5t-3 32q0 18 4.5 34t15 28t29 19t47.5 7q30 0 48.5 -6.5t29 -18.5t14.5 -28t4 -35z" />
    <glyph glyph-name="Epsilontonos" unicode="&#x388;" horiz-adv-x="582" 
d="M15 635q11 -6 13 -15.5t-7 -21.5l-131 -160q-6 -8 -13 -12t-17 2l-63 36q-8 5 -11.5 10.5t3.5 17.5l103 185q8 14 17 15t16 -3zM65 641q0 10 5 17t19 7h420q11 0 17.5 -6.5t6.5 -17.5v-115q0 -9 -5 -15.5t-19 -6.5h-248v-80h214q11 0 17.5 -6.5t6.5 -17.5v-115
q0 -9 -5 -15.5t-19 -6.5h-214v-102h252q11 0 17.5 -6.5t6.5 -17.5v-115q0 -9 -5 -15.5t-19 -6.5h-424q-14 0 -19 7t-5 17v617z" />
    <glyph glyph-name="Etatonos" unicode="&#x389;" horiz-adv-x="671" 
d="M23 635q11 -6 13 -15.5t-7 -21.5l-131 -160q-6 -8 -13 -12t-17 2l-63 36q-8 5 -11.5 10.5t3.5 17.5l103 185q8 14 17 15t16 -3zM410 641q0 10 5 17t19 7h149q16 0 19.5 -9t3.5 -15v-617q0 -6 -3.5 -15t-19.5 -9h-149q-14 0 -19 7t-5 17v237h-149v-237q0 -6 -3.5 -15
t-19.5 -9h-149q-14 0 -19 7t-5 17v617q0 10 5 17t19 7h149q16 0 19.5 -9t3.5 -15v-218h149v218z" />
    <glyph glyph-name="Iotatonos" unicode="&#x38a;" horiz-adv-x="326" 
d="M25 635q11 -6 13 -15.5t-7 -21.5l-131 -160q-6 -8 -13 -12t-17 2l-63 36q-8 5 -11.5 10.5t3.5 17.5l103 185q8 14 17 15t16 -3zM65 641q0 10 5 17t19 7h149q16 0 19.5 -9t3.5 -15v-617q0 -6 -3.5 -15t-19.5 -9h-149q-14 0 -19 7t-5 17v617z" />
    <glyph glyph-name="Omicrontonos" unicode="&#x38c;" horiz-adv-x="712" 
d="M51 635q11 -6 13 -15.5t-7 -21.5l-131 -160q-6 -8 -13 -12t-17 2l-63 36q-8 5 -11.5 10.5t3.5 17.5l103 185q8 14 17 15t16 -3zM657 341q0 -37 -3.5 -77.5t-15 -79t-32 -74t-54.5 -62t-82.5 -42t-116.5 -15.5t-116.5 15.5t-81.5 42.5t-53 62t-30.5 74t-13.5 79t-3 77
q0 29 3.5 64.5t14.5 72.5t31 72t53.5 62.5t81 44t114.5 16.5q98 0 157.5 -30t92 -77.5t43.5 -106.5t11 -118zM454 330q0 48 -5 81.5t-16.5 54.5t-30.5 30t-47 9q-51 0 -71.5 -40t-20.5 -135q0 -92 20 -131.5t72 -39.5q54 0 76.5 40t22.5 131z" />
    <glyph glyph-name="Upsilontonos" unicode="&#x38e;" horiz-adv-x="685" 
d="M-17 635q11 -6 13 -15.5t-7 -21.5l-131 -160q-6 -8 -13 -12t-17 2l-63 36q-8 5 -11.5 10.5t3.5 17.5l103 185q8 14 17 15t16 -3zM234 220l-222 416q-7 12 -4 21t17 9h147q20 0 29 -5.5t18 -23.5l55 -111l61 -127h6l62 127l51 101q10 18 18.5 28.5t28.5 10.5h152
q14 0 16.5 -8t-2.5 -17l-237 -421v-196q0 -6 -3.5 -15t-19.5 -9h-149q-14 0 -19 7t-5 17v196z" />
    <glyph glyph-name="Omegatonos" unicode="&#x38f;" horiz-adv-x="713" 
d="M56 635q11 -6 13 -15.5t-7 -21.5l-131 -160q-6 -8 -13 -12t-17 2l-63 36q-8 5 -11.5 10.5t3.5 17.5l103 185q8 14 17 15t16 -3zM602 157h42q16 0 20 -6.5t4 -15.5v-111q0 -11 -4 -17.5t-20 -6.5h-231q-17 0 -21 9.5t-4 15.5v132q0 15 8 21.5t13 11.5q24 22 36 53.5
t12 82.5q0 92 -21 135.5t-78 43.5q-51 0 -71.5 -48.5t-20.5 -130.5q0 -55 7.5 -85t25.5 -48q5 -5 12.5 -11.5t7.5 -24.5v-132q0 -5 -2.5 -15t-19.5 -10h-229q-16 0 -20 6.5t-4 17.5v111q0 9 4 15.5t20 6.5h47l2 2q-17 13 -28.5 37.5t-18.5 51t-9.5 52t-2.5 41.5q0 29 4 64.5
t16 72.5t32.5 72t53.5 62.5t80 44t112 16.5q94 0 153.5 -30t93 -77.5t45.5 -106.5t12 -118q0 -13 -3 -35.5t-10 -49t-18.5 -52t-27.5 -44.5z" />
    <glyph glyph-name="iotadieresistonos" unicode="&#x390;" horiz-adv-x="371" 
d="M291 761q11 -3 16 -11t-1 -22l-87 -188q-4 -9 -10 -15t-17 -3l-69 20q-9 2 -14 6t-1 18l53 205q4 15 12.5 18.5t16.5 1.5zM7 537q-30 0 -47.5 7t-26.5 18.5t-11.5 26.5t-2.5 31q0 17 3.5 32t13.5 25.5t27 16.5t44 6q28 0 45 -5.5t27 -16t13.5 -25.5t3.5 -33q0 -17 -3 -32
t-13 -26.5t-27.5 -18t-45.5 -6.5zM377 537q-29 0 -46.5 7t-26.5 18.5t-12 26.5t-3 31q0 17 4 32t13.5 25.5t26.5 16.5t44 6q28 0 45.5 -5.5t27 -16t13 -25.5t3.5 -33q0 -17 -3 -32t-12.5 -26.5t-27 -18t-46.5 -6.5zM285 24q0 -6 -3.5 -15t-19.5 -9h-141q-14 0 -19 7t-5 17
v449q0 10 5 17t19 7h141q16 0 19.5 -9t3.5 -15v-449z" />
    <glyph glyph-name="Alpha" unicode="&#x391;" horiz-adv-x="650" 
d="M204 33q-5 -19 -15 -26t-27 -7h-138q-14 0 -18.5 5t1.5 25l186 601q5 17 14 26t35 9h157q26 0 34 -9t14 -27l197 -602q9 -28 -13 -28h-153q-20 0 -28 9.5t-13 29.5l-27 98h-178zM349 367l-25 104h-6l-47 -188h99z" />
    <glyph glyph-name="Beta" unicode="&#x392;" horiz-adv-x="662" 
d="M607 204q0 -50 -18.5 -88t-49 -63.5t-70 -39t-82.5 -13.5h-298q-14 0 -19 7t-5 17v617q0 10 5 17t19 7l286 1q106 0 160.5 -50.5t54.5 -141.5q0 -10 -2.5 -25.5t-10 -33t-20 -33.5t-33.5 -27v-5q29 -12 45.5 -31t25 -40t10.5 -41t2 -34zM406 213q0 23 -13 38.5t-42 15.5
h-89v-106h89q31 0 43 14.5t12 37.5zM390 461q0 19 -11 31t-37 12h-80v-83h80q26 0 37 11t11 29z" />
    <glyph glyph-name="Gamma" unicode="&#x393;" horiz-adv-x="546" 
d="M260 24q0 -6 -3.5 -15t-19.5 -9h-149q-14 0 -19 7t-5 17l-1 617q0 10 5 17t19 7h412q11 0 17.5 -6.5t6.5 -17.5v-115q0 -9 -5 -15.5t-19 -6.5h-239v-480z" />
    <glyph glyph-name="Delta" unicode="&#x394;" horiz-adv-x="650" 
d="M24 0q-14 0 -18 8t1 22l190 601q5 17 14 26t35 9h150q26 0 34 -9t14 -27l200 -602q3 -10 1 -19t-14 -9h-607zM235 160h167l-51 194l-27 113h-6l-27 -111z" />
    <glyph glyph-name="Delta" unicode="&#x2206;" horiz-adv-x="650" 
d="M24 0q-14 0 -18 8t1 22l190 601q5 17 14 26t35 9h150q26 0 34 -9t14 -27l200 -602q3 -10 1 -19t-14 -9h-607zM235 160h167l-51 194l-27 113h-6l-27 -111z" />
    <glyph glyph-name="Epsilon" unicode="&#x395;" horiz-adv-x="582" 
d="M65 641q0 10 5 17t19 7h420q11 0 17.5 -6.5t6.5 -17.5v-115q0 -9 -5 -15.5t-19 -6.5h-248v-80h214q11 0 17.5 -6.5t6.5 -17.5v-115q0 -9 -5 -15.5t-19 -6.5h-214v-102h252q11 0 17.5 -6.5t6.5 -17.5v-115q0 -9 -5 -15.5t-19 -6.5h-424q-14 0 -19 7t-5 17v617z" />
    <glyph glyph-name="Zeta" unicode="&#x396;" horiz-adv-x="579" 
d="M260 161h250q16 0 20 -6.5t4 -15.5v-115q0 -11 -4 -17.5t-20 -6.5h-441q-11 0 -17.5 6.5t-6.5 17.5v101q0 9 2.5 20.5t12.5 24.5l253 334h-224q-16 0 -20 6.5t-4 15.5v115q0 11 4 17.5t20 6.5h420q11 0 17.5 -6.5t6.5 -17.5l-1 -87q0 -20 -4 -33t-13 -25z" />
    <glyph glyph-name="Eta" unicode="&#x397;" horiz-adv-x="671" 
d="M410 641q0 10 5 17t19 7h149q16 0 19.5 -9t3.5 -15v-617q0 -6 -3.5 -15t-19.5 -9h-149q-14 0 -19 7t-5 17v237h-149v-237q0 -6 -3.5 -15t-19.5 -9h-149q-14 0 -19 7t-5 17v617q0 10 5 17t19 7h149q16 0 19.5 -9t3.5 -15v-218h149v218z" />
    <glyph glyph-name="Theta" unicode="&#x398;" horiz-adv-x="712" 
d="M657 341q0 -37 -3.5 -77.5t-15 -79t-32 -74t-54.5 -62t-82.5 -42t-116.5 -15.5t-116.5 15.5t-81.5 42.5t-53 62t-30.5 74t-13.5 79t-3 77q0 29 3.5 64.5t14.5 72.5t31 72t53.5 62.5t81 44t114.5 16.5q98 0 157.5 -30t92 -77.5t43.5 -106.5t11 -118zM454 330q0 48 -5 81.5
t-16.5 54.5t-30.5 30t-47 9q-51 0 -71.5 -40t-20.5 -135q0 -92 20 -131.5t72 -39.5q54 0 76.5 40t22.5 131zM321 257q-6 0 -15 3.5t-9 19.5v103q0 14 7 19t17 5h72q10 0 17 -5t7 -19v-103q0 -16 -9 -19.5t-15 -3.5h-72z" />
    <glyph glyph-name="Iota" unicode="&#x399;" horiz-adv-x="326" 
d="M65 641q0 10 5 17t19 7h149q16 0 19.5 -9t3.5 -15v-617q0 -6 -3.5 -15t-19.5 -9h-149q-14 0 -19 7t-5 17v617z" />
    <glyph glyph-name="Kappa" unicode="&#x39a;" horiz-adv-x="650" 
d="M256 457l68 91l75 94q10 11 22.5 17t32.5 6h160q20 0 23.5 -9.5t-8.5 -23.5l-205 -247l215 -348q13 -21 5.5 -29t-19.5 -8h-159q-23 0 -34.5 9t-19.5 22l-116 200l-43 -52v-155q0 -6 -3.5 -15t-19.5 -9h-149q-14 0 -19 7t-5 17v617q0 10 5 17t19 7h149q16 0 19.5 -9
t3.5 -15v-184h3z" />
    <glyph glyph-name="Lambda" unicode="&#x39b;" horiz-adv-x="650" 
d="M351 353l-27 114h-6l-27 -112l-87 -322q-5 -19 -15 -26t-27 -7h-138q-14 0 -18 8t1 22l190 601q5 17 14 26t35 9h150q26 0 34 -9t14 -27l200 -602q3 -10 1 -19t-14 -9h-153q-20 0 -28 9.5t-13 29.5z" />
    <glyph glyph-name="Mu" unicode="&#x39c;" horiz-adv-x="799" 
d="M405 330l87 179l66 128q8 14 17.5 21t34.5 7h101q16 0 19.5 -9t3.5 -15v-617q0 -6 -3.5 -15t-19.5 -9h-143q-14 0 -19 7t-5 17v229l-3 1l-35 -78l-25 -51q-8 -14 -18.5 -23.5t-33.5 -9.5h-59q-21 0 -31.5 8.5t-18.5 22.5l-26 52l-37 81l-2 -1v-231q0 -6 -3.5 -15
t-19.5 -9h-143q-14 0 -19 7t-5 17v617q0 10 5 17t19 7h105q26 0 36 -6t18 -21l65 -129l86 -179h6z" />
    <glyph glyph-name="Nu" unicode="&#x39d;" horiz-adv-x="688" 
d="M348 169l-90 134h-3v-279q0 -6 -3.5 -15t-19.5 -9h-143q-14 0 -19 7t-5 17v617q0 10 5 17t19 7h102q23 0 31.5 -6t16.5 -18l109 -162l81 -122l4 1v283q0 6 3.5 15t19.5 9h143q14 0 19 -7t5 -17v-617q0 -10 -5 -17t-19 -7h-101q-20 0 -31.5 7.5t-20.5 20.5z" />
    <glyph glyph-name="Xi" unicode="&#x39e;" horiz-adv-x="611" 
d="M530 665q11 0 17.5 -6.5t6.5 -17.5v-115q0 -9 -5 -15.5t-19 -6.5h-129v-80h93q11 0 17.5 -6.5t6.5 -17.5v-115q0 -9 -5 -15.5t-19 -6.5h-93v-102h141q11 0 17.5 -6.5t6.5 -17.5v-115q0 -9 -5 -15.5t-19 -6.5h-473q-14 0 -19 6.5t-5 15.5v115q0 11 6.5 17.5t17.5 6.5h141
v102h-93q-14 0 -19 6.5t-5 15.5v115q0 11 6.5 17.5t17.5 6.5h93v80h-129q-14 0 -19 6.5t-5 15.5v115q0 11 6.5 17.5t17.5 6.5h449v0z" />
    <glyph glyph-name="Omicron" unicode="&#x39f;" horiz-adv-x="712" 
d="M657 341q0 -37 -3.5 -77.5t-15 -79t-32 -74t-54.5 -62t-82.5 -42t-116.5 -15.5t-116.5 15.5t-81.5 42.5t-53 62t-30.5 74t-13.5 79t-3 77q0 29 3.5 64.5t14.5 72.5t31 72t53.5 62.5t81 44t114.5 16.5q98 0 157.5 -30t92 -77.5t43.5 -106.5t11 -118zM454 330q0 48 -5 81.5
t-16.5 54.5t-30.5 30t-47 9q-51 0 -71.5 -40t-20.5 -135q0 -92 20 -131.5t72 -39.5q54 0 76.5 40t22.5 131z" />
    <glyph glyph-name="Pi" unicode="&#x3a0;" horiz-adv-x="671" 
d="M583 665q16 0 19.5 -9t3.5 -15v-617q0 -6 -3.5 -15t-19.5 -9h-149q-14 0 -19 7t-5 17v479h-149v-479q0 -6 -3.5 -15t-19.5 -9h-149q-14 0 -19 7t-5 17v617q0 10 5 17t19 7h494z" />
    <glyph glyph-name="Rho" unicode="&#x3a1;" horiz-adv-x="590" 
d="M261 24q0 -6 -3.5 -15t-19.5 -9h-149q-14 0 -19 7t-5 17v617q0 10 5 17t19 7h250q48 0 91 -13t75.5 -39.5t51 -66.5t18.5 -94q0 -35 -9.5 -73.5t-35 -70.5t-72 -53.5t-119.5 -21.5h-78v-209zM373 447q0 29 -17.5 43t-46.5 14h-48v-115h48q11 0 22.5 2.5t20.5 9t15 17.5
t6 29z" />
    <glyph glyph-name="Sigma" unicode="&#x3a3;" horiz-adv-x="564" 
d="M492 663q16 0 20 -6.5t4 -17.5v-115q0 -9 -4 -15.5t-20 -6.5h-228l105 -139q11 -14 10 -23t-9 -21l-105 -158h245q16 0 20 -6.5t4 -15.5v-115q0 -11 -4 -17.5t-20 -6.5h-436q-11 0 -17.5 6.5t-6.5 17.5v101q0 9 2.5 20.5t12.5 24.5l111 171l-114 153q-9 12 -13 25t-4 33
v82q0 11 6 20t19 9h422z" />
    <glyph glyph-name="Tau" unicode="&#x3a4;" horiz-adv-x="539" 
d="M529 526q0 -9 -5 -15.5t-19 -6.5h-138v-480q0 -6 -3.5 -15t-19.5 -9h-149q-14 0 -19 7t-5 17v480h-137q-16 0 -20 6.5t-4 15.5v115q0 11 4 17.5t20 6.5h471q11 0 17.5 -6.5t6.5 -17.5v-115v0z" />
    <glyph glyph-name="Upsilon" unicode="&#x3a5;" horiz-adv-x="685" 
d="M234 220l-222 416q-7 12 -4 21t17 9h147q20 0 29 -5.5t18 -23.5l55 -111l61 -127h6l62 127l51 101q10 18 18.5 28.5t28.5 10.5h152q14 0 16.5 -8t-2.5 -17l-237 -421v-196q0 -6 -3.5 -15t-19.5 -9h-149q-14 0 -19 7t-5 17v196z" />
    <glyph glyph-name="Phi" unicode="&#x3a6;" horiz-adv-x="873" 
d="M344 641q0 10 5 17t19 7h149q16 0 19.5 -9t3.5 -15v-16q83 -8 136.5 -35.5t85 -66t44 -84t12.5 -87.5q0 -40 -11 -87t-41.5 -89t-85 -73t-140.5 -39v-40q0 -6 -3.5 -15t-19.5 -9h-149q-14 0 -19 7t-5 17v38q-92 6 -149 37t-88 74t-41.5 91t-10.5 88q0 20 4.5 47t16.5 56
t33 57.5t53 52.5t77 40t105 21v15zM259 343q0 -55 22 -83t63 -36v241q-40 -8 -62.5 -37t-22.5 -85zM619 343q0 56 -20.5 84t-58.5 36v-237q36 9 57.5 36.5t21.5 80.5z" />
    <glyph glyph-name="Chi" unicode="&#x3a7;" horiz-adv-x="620" 
d="M414 339l178 -307q3 -5 4.5 -10.5t0.5 -10t-5.5 -8t-14.5 -3.5h-156q-14 0 -23.5 4.5t-17.5 20.5l-31 68l-44 94l-44 -98l-27 -61q-8 -16 -18 -22t-27 -6h-157q-17 0 -18.5 10t6.5 24l177 305l-167 293q-8 13 -4.5 23t20.5 10h154q18 0 24.5 -4.5t14.5 -20.5l31 -68
l36 -79l38 85l27 60q8 15 15 21t22 6h160q13 0 18.5 -3t7 -7.5t0 -10t-4.5 -9.5z" />
    <glyph glyph-name="Psi" unicode="&#x3a8;" horiz-adv-x="848" 
d="M327 641q0 10 5 17t19 7h149q16 0 19.5 -9t3.5 -15v-328q33 5 56.5 32t23.5 73v223q0 10 5 17t19 7h142q16 0 19.5 -9t3.5 -15v-28v-5.5t0.5 -3t0.5 -20v-56v-111.5q0 -58 -17.5 -106t-51.5 -82.5t-84.5 -54.5t-116.5 -23v-127q0 -6 -3.5 -15t-19.5 -9h-149q-14 0 -19 7
t-5 17v127q-77 3 -128.5 24t-83.5 56.5t-45.5 83t-13.5 102.5l-1 224q0 10 5 17t19 7h144q16 0 19.5 -9t3.5 -15v-223q0 -48 23.5 -75t57.5 -31v329z" />
    <glyph glyph-name="Omega" unicode="&#x3a9;" horiz-adv-x="713" 
d="M602 157h42q16 0 20 -6.5t4 -15.5v-111q0 -11 -4 -17.5t-20 -6.5h-231q-17 0 -21 9.5t-4 15.5v132q0 15 8 21.5t13 11.5q24 22 36 53.5t12 82.5q0 92 -21 135.5t-78 43.5q-51 0 -71.5 -48.5t-20.5 -130.5q0 -55 7.5 -85t25.5 -48q5 -5 12.5 -11.5t7.5 -24.5v-132
q0 -5 -2.5 -15t-19.5 -10h-229q-16 0 -20 6.5t-4 17.5v111q0 9 4 15.5t20 6.5h47l2 2q-17 13 -28.5 37.5t-18.5 51t-9.5 52t-2.5 41.5q0 29 4 64.5t16 72.5t32.5 72t53.5 62.5t80 44t112 16.5q94 0 153.5 -30t93 -77.5t45.5 -106.5t12 -118q0 -13 -3 -35.5t-10 -49
t-18.5 -52t-27.5 -44.5z" />
    <glyph glyph-name="Iotadieresis" unicode="&#x3aa;" horiz-adv-x="326" 
d="M65 641q0 10 5 17t19 7h149q16 0 19.5 -9t3.5 -15v-617q0 -6 -3.5 -15t-19.5 -9h-149q-14 0 -19 7t-5 17v617zM54 685q-30 0 -47.5 7t-26.5 18.5t-11.5 26.5t-2.5 31q0 17 3.5 32t13.5 25.5t27 16.5t44 6q28 0 45 -5.5t27 -16t13.5 -25.5t3.5 -33q0 -17 -3 -32t-13 -26.5
t-27.5 -18t-45.5 -6.5zM275 685q-29 0 -46.5 7t-26.5 18.5t-12 26.5t-3 31q0 17 4 32t13.5 25.5t26.5 16.5t44 6q28 0 45.5 -5.5t27 -16t13 -25.5t3.5 -33q0 -17 -3 -32t-12.5 -26.5t-27 -18t-46.5 -6.5z" />
    <glyph glyph-name="Upsilondieresis" unicode="&#x3ab;" horiz-adv-x="685" 
d="M234 220l-222 416q-7 12 -4 21t17 9h147q20 0 29 -5.5t18 -23.5l55 -111l61 -127h6l62 127l51 101q10 18 18.5 28.5t28.5 10.5h152q14 0 16.5 -8t-2.5 -17l-237 -421v-196q0 -6 -3.5 -15t-19.5 -9h-149q-14 0 -19 7t-5 17v196zM226 685q-30 0 -47.5 7t-26.5 18.5
t-11.5 26.5t-2.5 31q0 17 3.5 32t13.5 25.5t27 16.5t44 6q28 0 45 -5.5t27 -16t13.5 -25.5t3.5 -33q0 -17 -3 -32t-13 -26.5t-27.5 -18t-45.5 -6.5zM447 685q-29 0 -46.5 7t-26.5 18.5t-12 26.5t-3 31q0 17 4 32t13.5 25.5t26.5 16.5t44 6q28 0 45.5 -5.5t27 -16t13 -25.5
t3.5 -33q0 -17 -3 -32t-12.5 -26.5t-27 -18t-46.5 -6.5z" />
    <glyph glyph-name="alphatonos" unicode="&#x3ac;" horiz-adv-x="608" 
d="M230 242q0 -52 11.5 -70t35.5 -18q14 0 31.5 4.5t32.5 12.5v153q-17 7 -29 9t-21 2q-32 0 -46.5 -24t-14.5 -69zM528 173q0 -27 3.5 -32.5t19.5 -7.5q14 -2 18 -5.5t4 -14.5v-82q0 -13 -9 -19t-24 -10q-18 -5 -36 -6.5t-38 -1.5q-19 0 -36 2.5t-31.5 10t-25 20.5
t-16.5 35l-2 1q-22 -23 -43.5 -37t-41 -21.5t-36.5 -10t-32 -2.5q-51 0 -82.5 20.5t-49 55t-24 80t-6.5 95.5q0 49 9.5 96t32 84t59 59.5t90.5 22.5q25 0 55 -8t60 -32l2 1v12q0 10 4 14.5t18 4.5h135q16 0 19.5 -9t3.5 -15v-300zM442 745q11 -6 13 -15.5t-7 -21.5
l-131 -160q-6 -8 -13 -12t-17 2l-63 36q-8 5 -11.5 10.5t3.5 17.5l103 185q8 14 17 15t16 -3z" />
    <glyph glyph-name="epsilontonos" unicode="&#x3ad;" horiz-adv-x="504" 
d="M399 745q11 -6 13 -15.5t-7 -21.5l-131 -160q-6 -8 -13 -12t-17 2l-63 36q-8 5 -11.5 10.5t3.5 17.5l103 185q8 14 17 15t16 -3zM99 256q-31 18 -41 43.5t-10 44.5q0 50 22.5 82t56 50t73 25t72.5 7q40 0 88 -6.5t83 -21.5q16 -7 23 -16.5t3 -28.5l-14 -65q-2 -10 -4 -15
t-6.5 -6.5t-12 -1t-20.5 1.5q-15 2 -33.5 3.5l-37 3t-35 2t-26.5 0.5q-37 0 -37 -24q0 -11 13 -18t33 -7h63q15 0 20 -6t5 -17v-67q0 -13 -5 -19t-20 -6h-72q-16 0 -30 -5t-14 -18q0 -11 7 -20.5t37 -9.5q38 0 74.5 2.5t75.5 7.5q19 2 24 -1.5t9 -19.5l13 -60q5 -23 0.5 -34
t-33.5 -22q-35 -12 -80 -17.5t-81 -5.5q-37 0 -79.5 5t-78.5 21.5t-60 48.5t-24 87q0 23 12.5 51.5t46.5 48.5v3z" />
    <glyph glyph-name="etatonos" unicode="&#x3ae;" horiz-adv-x="580" 
d="M421 745q11 -6 13 -15.5t-7 -21.5l-131 -160q-6 -8 -13 -12t-17 2l-63 36q-8 5 -11.5 10.5t3.5 17.5l103 185q8 14 17 15t16 -3zM233 454l2 -1q38 29 79.5 40.5t69.5 11.5q55 0 86 -19.5t46 -49.5t18.5 -65.5t3.5 -68.5v-278q0 -6 -3.5 -15t-19.5 -9h-141q-14 0 -19 7
t-5 17v246q0 39 -14 49.5t-37 10.5q-17 0 -34.5 -5.5t-31.5 -10.5v-290q0 -6 -3.5 -15t-19.5 -9h-141q-14 0 -19 7t-5 17v449q0 10 5 17t19 7h141q16 0 19.5 -9t3.5 -15v-19z" />
    <glyph glyph-name="iotatonos" unicode="&#x3af;" horiz-adv-x="302" 
d="M243 24q0 -6 -3.5 -15t-19.5 -9h-141q-14 0 -19 7t-5 17v449q0 10 5 17t19 7h141q16 0 19.5 -9t3.5 -15v-449zM297 745q11 -6 13 -15.5t-7 -21.5l-131 -160q-6 -8 -13 -12t-17 2l-63 36q-8 5 -11.5 10.5t3.5 17.5l103 185q8 14 17 15t16 -3z" />
    <glyph glyph-name="upsilondieresistonos" unicode="&#x3b0;" horiz-adv-x="577" 
d="M233 212q0 -12 2 -23t8 -20t16 -14.5t26 -5.5q32 0 45.5 20t13.5 43v261q0 6 3.5 15t19.5 9h141q14 0 19 -7t5 -17v-274q0 -42 -16 -79.5t-47 -65.5t-77 -44.5t-107 -16.5q-62 0 -107 15t-74.5 42.5t-44 65.5t-14.5 83v274q0 6 3.5 15t19.5 9h141q14 0 19 -7t5 -17v-261z
M392 761q11 -3 16 -11t-1 -22l-87 -188q-4 -9 -10 -15t-17 -3l-69 20q-9 2 -14 6t-1 18l53 205q4 15 12.5 18.5t16.5 1.5zM108 537q-30 0 -47.5 7t-26.5 18.5t-11.5 26.5t-2.5 31q0 17 3.5 32t13.5 25.5t27 16.5t44 6q28 0 45 -5.5t27 -16t13.5 -25.5t3.5 -33q0 -17 -3 -32
t-13 -26.5t-27.5 -18t-45.5 -6.5zM478 537q-29 0 -46.5 7t-26.5 18.5t-12 26.5t-3 31q0 17 4 32t13.5 25.5t26.5 16.5t44 6q28 0 45.5 -5.5t27 -16t13 -25.5t3.5 -33q0 -17 -3 -32t-12.5 -26.5t-27 -18t-46.5 -6.5z" />
    <glyph glyph-name="alpha" unicode="&#x3b1;" horiz-adv-x="608" 
d="M230 242q0 -52 11.5 -70t35.5 -18q14 0 31.5 4.5t32.5 12.5v153q-17 7 -29 9t-21 2q-32 0 -46.5 -24t-14.5 -69zM528 173q0 -27 3.5 -32.5t19.5 -7.5q14 -2 18 -5.5t4 -14.5v-82q0 -13 -9 -19t-24 -10q-18 -5 -36 -6.5t-38 -1.5q-19 0 -36 2.5t-31.5 10t-25 20.5
t-16.5 35l-2 1q-22 -23 -43.5 -37t-41 -21.5t-36.5 -10t-32 -2.5q-51 0 -82.5 20.5t-49 55t-24 80t-6.5 95.5q0 49 9.5 96t32 84t59 59.5t90.5 22.5q25 0 55 -8t60 -32l2 1v12q0 10 4 14.5t18 4.5h135q16 0 19.5 -9t3.5 -15v-300z" />
    <glyph glyph-name="beta" unicode="&#x3b2;" horiz-adv-x="574" 
d="M233 -141q0 -6 -3.5 -15t-19.5 -9h-141q-14 0 -19 7t-5 17v617q0 58 17.5 102.5t48 74.5t72 45.5t89.5 15.5q50 0 91.5 -13t71.5 -37t46.5 -58t16.5 -77q0 -12 -2.5 -27t-9 -31t-18 -31t-28.5 -27q34 -16 53 -37.5t28 -44.5t11 -45.5t2 -40.5q0 -62 -10 -109.5
t-33.5 -80.5t-62.5 -50t-97 -17q-23 0 -51.5 3.5t-46.5 8.5v-141zM275 563q-22 0 -32.5 -18.5t-10.5 -50.5v-340q19 -5 33 -5.5t19 -0.5q16 0 27 4t18 15t10 30t3 50q0 46 -10 65.5t-39 22.5q-4 1 -8.5 0.5t-9.5 -0.5q-7 0 -11.5 2.5t-4.5 11.5v81q0 8 1.5 13t10.5 10
q17 8 31 21t14 42q0 17 -9.5 32t-31.5 15z" />
    <glyph glyph-name="gamma" unicode="&#x3b3;" horiz-adv-x="578" 
d="M297 203l41 145l40 125q4 11 11.5 17.5t30.5 6.5h125q21 0 24.5 -7t-2.5 -22l-180 -467v-182q0 -6 -3.5 -15t-19.5 -9h-141q-14 0 -19 7t-5 17v172l-125 339q-5 11 -9.5 18t-15.5 8h-11q-7 0 -10.5 1.5t-5.5 9.5l-18 106q-1 13 13 19q16 7 42 12.5t50 5.5
q51 0 74.5 -17.5t36.5 -60.5q13 -41 22.5 -72.5t17.5 -57.5t15.5 -49.5t15.5 -49.5h6z" />
    <glyph glyph-name="delta" unicode="&#x3b4;" horiz-adv-x="572" 
d="M294 718q18 0 38.5 -1.5t41.5 -4.5t40.5 -7t35.5 -9q26 -9 38.5 -17.5t7.5 -33.5l-13 -58q-2 -10 -5.5 -16t-10 -8t-17 -1.5t-26.5 2.5q-38 5 -70.5 7t-50.5 3q-30 1 -35 -5t-5 -12q0 -10 13 -18t34 -16.5t47 -20t52 -27.5q28 -17 51 -37.5t39 -47t24.5 -61.5t8.5 -82
q0 -39 -8 -83.5t-34.5 -82.5t-75 -63.5t-129.5 -25.5q-84 0 -133 25.5t-73.5 63.5t-31.5 82.5t-7 83.5q0 21 5 48.5t17 54.5t31 51t47 39q-37 25 -50.5 50t-13.5 60q0 42 17 73.5t46 52.5t69 31.5t86 10.5zM282 149q35 0 47 27t12 65q0 15 -1.5 32t-7 32t-16 26t-29.5 14
q-26 -9 -40 -39t-14 -65q0 -51 9 -71.5t40 -20.5z" />
    <glyph glyph-name="epsilon" unicode="&#x3b5;" horiz-adv-x="504" 
d="M99 256q-31 18 -41 43.5t-10 44.5q0 50 22.5 82t56 50t73 25t72.5 7q40 0 88 -6.5t83 -21.5q16 -7 23 -16.5t3 -28.5l-14 -65q-2 -10 -4 -15t-6.5 -6.5t-12 -1t-20.5 1.5q-15 2 -33.5 3.5l-37 3t-35 2t-26.5 0.5q-37 0 -37 -24q0 -11 13 -18t33 -7h63q15 0 20 -6t5 -17
v-67q0 -13 -5 -19t-20 -6h-72q-16 0 -30 -5t-14 -18q0 -11 7 -20.5t37 -9.5q38 0 74.5 2.5t75.5 7.5q19 2 24 -1.5t9 -19.5l13 -60q5 -23 0.5 -34t-33.5 -22q-35 -12 -80 -17.5t-81 -5.5q-37 0 -79.5 5t-78.5 21.5t-60 48.5t-24 87q0 23 12.5 51.5t46.5 48.5v3z" />
    <glyph glyph-name="zeta" unicode="&#x3b6;" horiz-adv-x="545" 
d="M40 164q0 27 12 53.5t32 51.5t47 46t56 36h-108q-24 0 -24 25v97q0 24 24 24h415q15 0 19 -6t4 -17v-70q0 -13 -3 -25.5t-18 -20.5q-33 -17 -76.5 -40.5t-82 -49t-65.5 -51t-27 -46.5q0 -14 12.5 -21.5t32.5 -11.5t44.5 -4.5t48.5 -0.5h59q21 0 29.5 -4t16.5 -21l26 -56
q5 -8 5.5 -19.5t-10.5 -29.5q-18 -32 -37 -70.5t-35 -82.5q-9 -25 -17 -32t-29 2l-87 31q-14 5 -19.5 15.5t0.5 30.5q3 10 6 17.5t7 17t10.5 21.5t16.5 31q-66 3 -119 15t-90 34t-56.5 54.5t-19.5 76.5z" />
    <glyph glyph-name="eta" unicode="&#x3b7;" horiz-adv-x="580" 
d="M233 454l2 -1q38 29 79.5 40.5t69.5 11.5q55 0 86 -19.5t46 -49.5t18.5 -65.5t3.5 -68.5v-278q0 -6 -3.5 -15t-19.5 -9h-141q-14 0 -19 7t-5 17v246q0 39 -14 49.5t-37 10.5q-17 0 -34.5 -5.5t-31.5 -10.5v-290q0 -6 -3.5 -15t-19.5 -9h-141q-14 0 -19 7t-5 17v449
q0 10 5 17t19 7h141q16 0 19.5 -9t3.5 -15v-19z" />
    <glyph glyph-name="theta" unicode="&#x3b8;" horiz-adv-x="596" 
d="M556 360q0 -39 -2.5 -81.5t-11 -83.5t-25 -77.5t-45.5 -64.5t-72.5 -44.5t-104.5 -16.5q-91 0 -142.5 33.5t-76.5 86.5t-30.5 118.5t-5.5 129.5q0 32 2.5 70.5t11 77.5t25.5 75t45 64t70 45t101 17q87 0 138.5 -29.5t78.5 -78t35.5 -111.5t8.5 -130zM233 300
q-1 -80 13 -117t50 -37q38 0 53.5 34t14.5 120h-131zM296 556q-27 0 -42.5 -33t-17.5 -93h125q-2 67 -15.5 96.5t-49.5 29.5z" />
    <glyph glyph-name="iota" unicode="&#x3b9;" horiz-adv-x="302" 
d="M243 24q0 -6 -3.5 -15t-19.5 -9h-141q-14 0 -19 7t-5 17v449q0 10 5 17t19 7h141q16 0 19.5 -9t3.5 -15v-449z" />
    <glyph glyph-name="kappa" unicode="&#x3ba;" horiz-adv-x="569" 
d="M232 362l53 65l37 44q11 12 21.5 19t36.5 7h144q17 0 21.5 -9t-8.5 -22l-146 -166l170 -268q5 -9 2 -20.5t-21 -11.5h-136q-29 0 -41 8t-19 20l-79 132l-35 -42v-94q0 -6 -3.5 -15t-19.5 -9h-140q-14 0 -19 7t-5 17v449q0 10 5 17t19 7h140q16 0 19.5 -9t3.5 -15v-111z
" />
    <glyph glyph-name="lambda" unicode="&#x3bb;" horiz-adv-x="537" 
d="M257 229l-33 -96l-43 -115q-4 -10 -7.5 -14t-12.5 -4h-141q-12 0 -14.5 6.5t1.5 16.5l175 443l-17 55q-8 23 -16.5 33t-33.5 10l-17 -1q-11 -1 -14.5 2.5t-5.5 12.5l-17 95q-1 6 1.5 10.5t13.5 8.5q38 13 71.5 16.5t50.5 3.5q21 0 40 -2.5t36 -12t30.5 -28t23.5 -49.5
l141 -454q5 -14 9.5 -22t21.5 -8h9q6 0 9.5 -1.5t4.5 -7.5l8 -95q2 -18 -13 -23q-29 -10 -56.5 -13t-50.5 -3q-27 0 -45.5 8.5t-31 22.5t-20.5 30.5t-13 33.5l-18 60l-21 81h-5z" />
    <glyph glyph-name="nu" unicode="&#x3bd;" horiz-adv-x="583" 
d="M295 203l41 145l40 125q4 11 11.5 17.5t30.5 6.5h125q21 0 24 -7t-2 -22l-161 -428q-8 -21 -19.5 -30.5t-36.5 -9.5h-114q-27 0 -37.5 9.5t-18.5 30.5l-159 427q-5 15 -1.5 22.5t20.5 7.5h135q16 0 25.5 -3t14.5 -23l36 -129l40 -139h6z" />
    <glyph glyph-name="xi" unicode="&#x3be;" horiz-adv-x="502" 
d="M122 373q-22 9 -36 24t-22.5 31.5t-12 34t-3.5 32.5q0 53 18.5 93t51 67t77.5 40.5t98 13.5q40 0 88 -6.5t83 -21.5q16 -7 23 -16.5t3 -28.5l-14 -65q-2 -10 -4 -15t-6.5 -6.5t-12 -1t-20.5 1.5q-15 2 -33.5 3.5l-37 3t-35 2t-26.5 0.5q-33 0 -46 -20.5t-12 -44.5
q1 -26 22 -38.5t53 -12.5h95q15 0 20 -6t5 -17v-87q0 -13 -5 -19t-20 -6h-82q-48 0 -73 -24t-25 -76q0 -27 11.5 -42.5t29.5 -22.5t41.5 -8.5t47.5 -1.5h49q21 0 29.5 -4t16.5 -21l26 -56q5 -8 5.5 -19.5t-10.5 -29.5q-18 -32 -37.5 -76t-35.5 -88q-9 -25 -17 -32t-29 2
l-92 30q-14 6 -21.5 14t-0.5 31q6 20 15 41t29 59q-56 3 -102 15t-79 38t-51 67.5t-18 103.5q0 16 3.5 37.5t12.5 43.5t25 42.5t40 35.5z" />
    <glyph glyph-name="omicron" unicode="&#x3bf;" horiz-adv-x="571" 
d="M531 255q0 -40 -6.5 -86t-31.5 -85.5t-74.5 -65.5t-136.5 -26q-85 0 -133.5 26t-72.5 65.5t-30 85.5t-6 86q0 33 7.5 76.5t32.5 82t73 65.5t129 27t130 -23t75.5 -59.5t35 -81t8.5 -87.5zM340 249q0 50 -10 74t-46 24q-31 0 -42.5 -25.5t-11.5 -72.5q0 -53 10.5 -76
t41.5 -23q35 0 46.5 24.5t11.5 74.5z" />
    <glyph glyph-name="pi" unicode="&#x3c0;" horiz-adv-x="583" 
d="M538 24q0 -6 -3.5 -15t-19.5 -9h-141q-14 0 -19 7t-5 17l1 325h-118v-325q0 -6 -3.5 -15t-19.5 -9h-141q-14 0 -19 7t-5 17v449q0 24 24 24h446q15 0 19 -6t4 -17v-450z" />
    <glyph glyph-name="rho" unicode="&#x3c1;" horiz-adv-x="574" 
d="M45 242q0 124 60 195t184 71q76 0 123.5 -21.5t74.5 -57.5t37 -83t10 -98q0 -59 -8.5 -106.5t-31.5 -82t-63 -53t-104 -18.5q-17 0 -44.5 3.5t-49.5 8.5v-181q0 -6 -3.5 -15t-19.5 -9h-141q-14 0 -19 7t-5 17v423zM342 250q0 51 -14.5 72.5t-38.5 21.5q-25 0 -41 -15.5
t-16 -50.5v-124q17 -4 28 -5t20 -1q16 0 28 4t19.5 15.5t11 31t3.5 51.5z" />
    <glyph glyph-name="sigma1" unicode="&#x3c2;" horiz-adv-x="512" 
d="M477 164q0 -49 -20 -82t-53 -53.5t-75.5 -29t-88.5 -8.5q-18 0 -39 1.5t-42.5 4t-41.5 6.5t-36 9q-29 11 -39 22.5t-5 37.5l9 55q3 20 11.5 24t27.5 0q37 -7 78.5 -10t67.5 -3q31 0 43 5t12 16t-9 15t-29 6q-44 6 -81.5 14t-65.5 24.5t-44 44.5t-16 75q0 42 17 73.5
t46 52.5t69 31.5t86 10.5q18 0 38.5 -1.5t41.5 -4.5t40.5 -7t35.5 -9q26 -9 38.5 -17.5t7.5 -33.5l-13 -58q-2 -10 -5.5 -16t-10 -8t-17 -1.5t-26.5 2.5q-38 5 -70.5 7t-50.5 3q-30 1 -35 -5t-5 -12q0 -10 16 -13t28 -5q41 -5 78.5 -13t65.5 -25t44.5 -47t16.5 -78z" />
    <glyph glyph-name="sigma" unicode="&#x3c3;" horiz-adv-x="593" 
d="M493 347q17 -25 23.5 -55t6.5 -56q0 -21 -2.5 -47t-11 -53t-25 -53t-44 -46t-67.5 -32.5t-96 -12.5q-85 0 -132.5 26t-71 65.5t-28.5 85t-5 84.5q0 34 8.5 76t35 79.5t75.5 63t131 25.5h260q15 0 19 -6t4 -17v-97q0 -13 -4 -19t-19 -6h-55zM336 247q0 55 -12 77.5
t-44 22.5q-26 0 -40.5 -21.5t-14.5 -78.5q0 -60 14 -80t39 -20q13 0 24 4t18.5 15.5t11.5 31t4 49.5z" />
    <glyph glyph-name="tau" unicode="&#x3c4;" horiz-adv-x="473" 
d="M388 497q15 0 19 -6t4 -17v-97q0 -13 -4 -19t-19 -6h-100v-118q0 -32 5.5 -48.5t20 -23t39 -5.5t63.5 4q14 1 20 -1t8 -17l13 -88q2 -16 -5 -24.5t-18 -12.5q-22 -9 -46 -14t-46.5 -7.5t-42 -3.5t-32.5 -1q-88 0 -124.5 41.5t-36.5 117.5v201h-68q-24 0 -24 25v96
q0 24 24 24h350z" />
    <glyph glyph-name="upsilon" unicode="&#x3c5;" horiz-adv-x="577" 
d="M233 212q0 -12 2 -23t8 -20t16 -14.5t26 -5.5q32 0 45.5 20t13.5 43v261q0 6 3.5 15t19.5 9h141q14 0 19 -7t5 -17v-274q0 -42 -16 -79.5t-47 -65.5t-77 -44.5t-107 -16.5q-62 0 -107 15t-74.5 42.5t-44 65.5t-14.5 83v274q0 6 3.5 15t19.5 9h141q14 0 19 -7t5 -17v-261
v0z" />
    <glyph glyph-name="phi" unicode="&#x3c6;" horiz-adv-x="792" 
d="M477 509q80 0 133 -22.5t84.5 -59.5t44.5 -83t13 -92q0 -51 -14 -97t-45 -81.5t-81.5 -57.5t-122.5 -26v-142q0 -6 -3.5 -15t-19.5 -9h-141q-14 0 -19 7t-5 17v141q-91 1 -143 26t-78.5 63t-33 84t-6.5 90q0 37 6.5 71t23 63.5t45 52.5t72.5 40q10 5 21.5 5t19.5 -14
l53 -98q5 -9 2 -14t-10 -10q-26 -23 -36.5 -45t-10.5 -59q0 -15 2.5 -31.5t11 -31t23 -24.5t38.5 -11v290q0 38 23.5 55.5t60.5 17.5h92zM490 148q21 -1 35 7.5t23 22.5t13 31.5t4 34.5q0 18 -3.5 36.5t-11.5 33t-23 23.5t-37 9v-198z" />
    <glyph glyph-name="chi" unicode="&#x3c7;" horiz-adv-x="557" 
d="M385 253l157 -222q5 -7 3 -19t-19 -12h-143q-14 0 -22 3.5t-16 15.5l-67 111l-65 -109q-8 -12 -17 -16.5t-24 -4.5h-146q-15 0 -18 10t5 21l158 222l-147 214q-7 10 -3.5 20t18.5 10h143q17 0 22.5 -3.5t13.5 -15.5l60 -100l59 99q7 11 12.5 15.5t19.5 4.5h153
q12 0 17 -3.5t5.5 -8t-1.5 -10t-4 -8.5z" />
    <glyph glyph-name="psi" unicode="&#x3c8;" horiz-adv-x="777" 
d="M481 149q36 2 51 22t15 43v259q0 6 3.5 15t19.5 9h141q14 0 19 -7t5 -17v-262q0 -42 -17 -81t-50 -69t-80 -48.5t-107 -19.5v-145q0 -6 -3.5 -15t-19.5 -9h-141q-14 0 -19 7t-5 17v145h-1q-62 1 -108.5 18t-78 46.5t-47.5 69t-16 84.5v262q0 6 3.5 15t19.5 9h141
q14 0 19 -7t5 -17v-259q0 -12 2.5 -23t9.5 -20t19 -15t31 -7h1v383q0 10 5 17t19 7h141q16 0 19.5 -9t3.5 -15v-383z" />
    </font>
</defs>
</svg>
